<svg xmlns="http://www.w3.org/2000/svg" width="55" viewBox="0 0 41.25 75" height="100" version="1.0"><defs><clipPath id="a"><path d="M1.184 1.262h38.304v72.187H1.184zm0 0"/></clipPath></defs><g clip-path="url(#a)"><path fill="#fff" d="M3.082 73.09a1.88 1.88 0 01-1.055-.317 1.83 1.83 0 01-.699-.847 1.819 1.819 0 01-.11-1.086 1.85 1.85 0 01.52-.965l32.723-32.52L1.738 4.828a1.818 1.818 0 01-.422-.61 1.81 1.81 0 01-.152-.726 1.803 1.803 0 01.14-.73c.098-.23.235-.438.415-.617a1.886 1.886 0 011.36-.547c.253 0 .495.054.73.152.234.102.437.242.617.422L38.48 36.027a1.889 1.889 0 01.555 1.328 1.87 1.87 0 01-.555 1.325L4.426 72.535c-.371.367-.82.55-1.344.555zm0 0"/></g></svg>