<svg xmlns="http://www.w3.org/2000/svg" width="55" viewBox="0 0 41.25 75" height="100" version="1.0"><defs><clipPath id="a"><path d="M1.184 1.262h38.144v72.187H1.184zm0 0"/></clipPath></defs><g clip-path="url(#a)"><path fill="#fff" d="M37.434 73.09c.382 0 .734-.106 1.054-.317a1.878 1.878 0 00.805-1.933 1.818 1.818 0 00-.52-.965L6.055 37.355 38.773 4.828a1.872 1.872 0 00.579-1.336c0-.254-.047-.496-.145-.73a1.866 1.866 0 00-.414-.617 1.955 1.955 0 00-.621-.41 1.9 1.9 0 00-.734-.137 1.887 1.887 0 00-1.348.574L2.03 36.027a1.832 1.832 0 00-.406.61c-.098.23-.145.468-.145.718 0 .247.047.489.145.715.094.23.23.434.406.61l34.06 33.855c.37.367.816.55 1.344.555zm0 0"/></g></svg>