<svg xmlns="http://www.w3.org/2000/svg" width="500" viewBox="0 0 375 232.5" height="310" version="1.0"><defs><clipPath id="a"><path d="M.402 1.7h374.196V228H.402zm0 0"/></clipPath></defs><g clip-path="url(#a)"><path fill="#efe9e1" d="M146.469 174.133c4.261 1.855 8.136 3.558 11.933 5.183.7.309 1.551.309 2.246.618 3.332 1.16 6.434 1.703 9.457-1.239 1.317-1.312 3.641-2.011 5.579-2.086 6.12-.386 10.925-3.636 15.73-6.734 1.703-1.082 3.176-2.55 4.805-3.79.465-.308 1.16-.386 1.703-.542-.23.621-.23 1.469-.621 1.703-4.727 3.172-9.375 6.422-14.332 9.285-2.016 1.16-2.793 2.242-2.403 4.563h5.657c.078-.153.078-.23.152-.387-.773-.23-1.547-.387-2.246-.695-.543-.23-.93-.774-1.395-1.16.621-.157 1.317-.618 1.86-.465 1.781.543 3.64 1.086 5.191 2.011 1.707 1.008 2.637.852 3.488-.925.465-.93 1.086-1.86 1.782-2.942-1.551-.156-2.868-.234-4.106-.386 0-.235 0-.543-.078-.774.543-.234 1.008-.621 1.55-.621 5.27-.078 8.06-3.867 11.005-7.426.773-.851 1.394-1.937 2.324-2.554 2.477-1.704 5.5-1.083 7.207 1.394 1.238 1.777 2.711 3.637 3.176 5.649.62 2.628.543 5.492.387 8.277-.31 5.027-.852 9.98-1.239 15.012 2.09-3.098 4.184-6.27 6.43-9.364 2.172-2.863 4.418-5.726 6.973-8.203 2.48-2.398 4.73-1.777 5.89 1.473 1.473 4.176 1.781 8.586.7 12.922-1.008 4.097-2.25 8.12-3.41 12.144-.157.465-.235 1.008-.387 1.625 3.949-1.469 6.351-4.797 5.886-8.277 2.637 1.547 3.797-.621 5.348-1.934 5.191-4.644 10.46-9.207 15.574-13.851 9.688-8.82 17.438-19.266 24.719-29.942.855-1.238.93-3.328.621-4.875-.93-5.187-3.488-9.672-7.05-13.543-.622-.617-1.087-1.39-1.63-2.011.157-.23.387-.465.543-.696.778.465 1.63.852 2.246 1.47 3.875 3.948 6.278 8.745 7.672 14.007.156.46.235 1.004.39 1.625 28.204-20.43 56.18-40.777 87.25-56.406.235.308.466.539.622.847-.852.621-1.55 1.395-2.48 1.938-9.918 5.722-20.07 10.91-29.602 17.254-17.203 11.297-33.938 23.21-50.832 35.05-2.246 1.547-4.262 3.715-5.813 6.036-11.234 16.945-25.183 31.492-40.836 44.41-2.558 2.09-4.417 5.11-7.05 7.199-5.426 4.254-9.918 9.516-14.957 14.082-4.957 4.41-10.77 5.879-17.125 2.473-.465-.23-1.473.312-2.012.777-1.863 1.547-3.488 3.402-5.504 4.719-5.89 3.789-13.25 1.316-16.039-5.11-.465-1.004-1.316-1.855-2.016-2.707l-10.46-12.3c-1.087-1.317-2.094-2.707-3.333-4.258-3.566 6.5-9.609 5.96-15.496 5.648-3.18-.152-5.89-1.777-7.52-4.64-3.175-5.493-5.343-11.297-4.878-17.797.308-3.559-.856-4.953-4.34-5.805-4.262-1.082-8.45-2.32-12.71-3.246-1.938-.387-4.106-.543-5.966-.078-28.828 7.582-57.652 15.32-86.476 22.902-7.285 1.934-14.649 3.48-21.93 5.106-.856.156-1.785-.153-2.637-.23.387-.93.543-2.09 1.086-2.786.621-.773 1.551-1.316 2.48-1.703 25.65-11.527 51.684-22.285 78.419-30.95.62-.156 1.164-.464 2.093-.773-.62-.312-.855-.465-1.242-.62-15.344-4.876-30.683-9.825-46.105-14.7-12.477-4.024-25.028-7.895-37.582-11.918-.852-.309-1.63-1.004-2.403-1.547.774-.695 1.473-2.012 2.246-2.09 2.946-.23 6.047-.46 8.989 0 19.062 3.328 38.047 6.656 57.035 10.293 16.117 3.094 32.234 6.5 48.351 9.75 1.63.309 3.489.153 5.036-.312 3.953-1.16 7.828-2.63 11.78-4.024 1.474-.539 2.79-1.004 1.86-3.172-.234-.539.621-2.011 1.395-2.476 4.648-2.785 9.375-5.336 14.023-8.121 1.008-.621 1.707-1.625 2.559-2.477-.93-.93-1.781-1.933-2.946-2.633-1.625-.925-2.167-2.242-.695-3.558 1.473-1.39 3.254-2.785 5.113-3.637 3.024-1.316 6.2-2.09 9.297-3.25 1.008-.387 1.938-1.16 2.637-1.934 3.563-4.101 6.82-8.59 10.691-12.378 4.73-4.723 9.61-5.032 15.422-2.012.157.078.309.152.387.23 3.254 1.934 6.121 2.32 9.688 0 5.347-3.48 11.699-3.48 17.976-3.172 5.969.309 12.012 1.082 17.977.621 6.59-.542 12.32-3.328 17.59-7.816 13.097-11.219 26.656-21.973 40.218-32.73 12.785-10.059 25.957-19.575 38.668-29.79 11.156-8.972 21.696-18.644 32.621-27.93 1.782-1.472 3.72-2.71 5.578-4.1.235.152.465.386.7.538-.387.621-.543 1.317-1.086 1.704-12.477 10.601-24.797 21.277-37.426 31.648-8.758 7.195-17.977 13.77-26.89 20.812-15.34 11.993-30.606 24.141-45.872 36.211-1.86 1.47-3.644 3.016-5.27 4.641-8.058 8.125-18.054 9.363-28.827 8.746-6.274-.387-12.63-.543-18.907-.156-3.023.234-5.89 2.012-8.832 3.172 0 .308 0 .62.075.93.62.464 1.32.93 1.937 1.39 2.094 1.703 4.418 3.25 6.277 5.262 3.645 3.949 3.72 8.203.7 12.613-3.024 4.332-7.207 7.043-11.856 9.285-1.937.93-3.488 2.63-5.348 3.559-2.246 1.008-4.804 2.246-7.207 2.168-4.34-.078-7.902.851-11.234 4.023-8.68 8.125-17.59 15.938-26.426 23.906-.62.313-.93.774-1.937 1.86zM6.367 201.137c.078.23.156.539.235.773 4.726-1.086 9.453-2.012 14.101-3.25 19.684-5.418 39.367-10.988 59.047-16.25 17.98-4.797 36.11-9.285 54.168-13.847 2.477-.622 4.105-1.782 4.8-4.41.544-2.09 1.708-4.024 2.403-6.114.313-.93.621-2.71.39-2.863-1.784-.696-2.636-3.172-5.269-2.246-8.37 3.02-16.816 6.035-25.34 8.668-32.699 10.058-64.859 21.82-96.164 35.668a269.176 269.176 0 01-8.37 3.87zm108.797-42.559c0-.23 0-.387-.078-.617-1.395-.309-2.711-.695-4.106-.93-23.636-4.719-47.19-9.515-70.902-14.082-10.617-2.012-21.312-3.48-31.926-5.105-1.472-.235-3.023 0-4.574 0 0 .23 0 .465-.078.695.855.309 1.707.621 2.637.93 24.718 7.89 49.437 15.86 74.156 23.676 10.46 3.328 10.46 3.25 20.922-.157 4.726-1.468 9.3-2.937 13.95-4.41zm23.945 22.98v.852c1.938.695 3.875 1.395 5.887 2.012 1.086.308 2.324.308 3.488.621 6.356 1.7 11.7 4.719 15.575 10.445 4.726 6.961 9.918 13.617 15.265 20.117 2.324 2.864 5.969 4.254 9.766 3.325a75.023 75.023 0 0011.543-3.946c3.722-1.625 6.742-4.254 8.992-7.66 2.012-3.094 2.012-5.492-.078-8.12-.156.151-.387.23-.543.386-3.719 5.879-9.531 8.742-15.887 10.52-6.199 1.78-12.164 1.007-17.125-3.56-3.332-3.093-3.953-8.433-1.472-12.3 1.394-2.09 3.18-3.328 5.812-3.406.773 0 1.55-.23 2.172-.617 1.86-.93 3.871-1.86 5.578-3.02 1.16-.852 2.016-2.164 3.02-3.324-.153-.235-.309-.543-.465-.778-1.004-.152-1.938-.46-2.942-.386-3.023.078-6.047.312-9.144.465-10.926.62-21.309-1.239-30.918-6.809-.7-.387-2.094-.309-2.715.156-2.012 1.547-3.871 3.328-5.809 5.028zm15.188-48.667c.387.851.465 1.472.773 1.859 3.176 4.023 7.13 6.652 12.399 6.574 7.207-.152 14.258-1.469 20.691-4.719 3.485-1.78 6.738-4.332 9.684-6.886 2.945-2.63 3.332-6.965 1.55-10.137-2.015-3.559-4.105-4.488-8.68-3.789-1.081.152-2.167.309-3.253.539-4.957.93-9.688 2.633-13.871 5.496-.617.387-.93 1.238-1.317 1.934-.543 1.004-.773 2.398-1.628 3.172-3.254 3.02-7.282 4.488-11.543 5.34-1.551.078-3.024.308-4.805.617zm14.488-11.141c.156.23.387.387.543.617 2.172-1.547 4.496-2.863 6.356-4.719 4.34-4.253 9.453-5.957 15.418-5.414 4.73.461 8.062 2.938 9.996 7.196 1.629 3.558 1.32 7.347-1.317 10.367-3.176 3.715-6.816 7.039-11.547 8.59-4.8 1.547-9.761 2.86-14.644 4.023-6.278 1.547-12.086.461-17.203-3.715-.543-.386-1.782-.465-2.403-.078-4.261 2.32-8.445 4.797-12.629 7.274-4.726 2.707-4.648 4.41.23 7.195.778.465 1.708.93 2.638 1.008a5.802 5.802 0 002.558-.387c5.887-2.633 11.7-5.648 17.664-7.973 6.512-2.476 13.328-3.093 20.305-3.093 2.402 0 4.883-.852 7.05-1.782 2.095-.925 3.72-2.785 5.813-3.789 4.727-2.246 8.989-5.03 11.778-9.672 1.472-2.476 1.859-5.183.156-7.503-1.55-2.168-3.332-4.489-5.582-5.805-3.871-2.399-8.29-4.024-12.32-6.27-4.727-2.629-8.91-1.699-12.473 1.625-3.488 3.328-6.512 7.2-9.688 10.836-.312.387-.464 1.004-.699 1.469zm41.844 66.078c-1.316.078-2.402.309-3.406.152-4.032-.617-6.434-3.171-6.512-7.347-.078-2.711.312-5.418.465-8.59-5.965 6.652-11.156 13.23-10.926 22.516-.309-.079-.617-.079-.93-.157-.386-1.699-.773-3.402-1.16-5.183-5.191 1.703-8.293 5.11-9.844 10.058-1.937 6.114-.617 8.512 5.735 9.52 8.058 1.312 14.644-1.938 20.535-7.043 4.34-3.637 5.191-8.82 6.043-13.926zm23.559.23c-2.094 1.782-4.032 3.329-5.97 1.704-1.468-1.317-2.245-3.48-3.405-5.34-1.63 2.32-3.41 4.797-5.118 7.43-2.941 4.562-6.351 8.898-7.437 14.468-.235 1.317-1.238 2.477-2.016 3.637-1.316 2.012-2.71 4.023-3.949 6.035-1.32 2.242-1.086 3.094 1.547 3.79 4.805 1.238 9.144.234 12.941-2.938 3.567-2.942 6.664-6.27 8.293-10.602 1.781-4.719 3.098-9.672 4.57-14.469.31-1.082.31-2.168.543-3.714zm-89.657-14.777c10.54-9.515 20.844-18.8 31.074-28.164-.078-.234-.234-.465-.308-.695-4.883 1.469-9.844 2.55-14.492 4.41-5.578 2.164-11.004 4.875-16.504 7.426-.235.078-.387.308-.465.465-1.242 2.941-2.48 5.879-3.719 8.82-.156.309 0 .773.23 1.082a283.983 283.983 0 004.184 6.656zm17.281 22.285c-5.347-7.894-13.949-8.824-22.55-10.68.156 7.044 1.707 13.31 6.355 18.493.852.93 2.403 1.316 3.563 1.934.156-.774 0-1.083-.153-1.313-3.254-4.875-1.472-8.746 4.34-9.672 2.946-.543 5.735-.156 8.446 1.238zm51.297-22.75c-.23-1.625-.386-2.707-.617-3.793-.469-1.933-1.472-3.324-3.566-3.558-2.016-.153-3.41 1.008-3.875 2.785-1.086 3.406-2.016 6.887-2.633 10.371-.234 1.469.23 3.25.773 4.797.774 2.012 2.48 3.016 4.649 2.937 2.015-.074 2.789-1.625 3.18-3.25.851-3.632 1.472-7.195 2.09-10.289zm-57.652 32.496c1.32-.152 2.016-.152 2.715-.308 2.71-.543 4.414-2.168 4.336-4.18 0-2.242-2.012-4.484-4.649-4.87a12.534 12.534 0 00-4.183 0c-1.938.23-3.953.694-4.496 3.093-.465 1.933.777 4.254 3.023 5.262 1.242.539 2.559.773 3.254 1.004zm48.973 9.594c-6.664 3.406-13.25 6.735-21.387 5.649 1.937 3.097 4.11 5.03 7.594 5.34 5.117.308 12.011-5.106 13.793-10.989zm-53.078-84.027c8.058.387 17.898-3.016 18.675-6.887-6.976.543-13.328 2.168-18.675 6.887zm-29.293 42.71v.544c3.488.926 7.054 1.855 10.539 2.707.464.078 1.32-.309 1.55-.695.93-2.012 1.782-4.024 2.868-6.657-5.5 1.473-10.227 2.785-14.957 4.102zm112.05 9.442c-.156-.078-.23-.156-.386-.312-.235-1.004-.309-2.012-.621-2.938-.852-2.246-1.782-2.476-3.641-.93-2.324 1.934-3.024 5.805-1.55 8.356.929 1.625 2.48 2.012 3.64.621 1.164-1.394 1.785-3.172 2.558-4.797zm-98.41-5.883c3.719 2.168 3.797 2.168 6.508-.695.465-.465 1.008-1.469.777-1.933-1.007-1.934-2.25-3.793-3.722-6.27a356.128 356.128 0 01-3.563 8.898zm43.004 1.008c-3.562-.465-6.586.696-9.14 3.172 2.167.23 4.34.23 6.507.309 2.246.078 2.946-1.082 2.633-3.48zm36.188 8.047c-3.72 3.25-5.114 10.524-2.711 13 .93-4.258 1.78-8.36 2.71-13zm-39.52 16.711c1.242-3.25 2.48-6.574 3.723-9.902-3.797.851-5.813 6.343-3.723 9.902zm37.586-18.8c.23 0 .465.077.617.077 1.086-3.714 2.324-7.351 1.164-11.84-.62 4.333-1.164 8.047-1.781 11.762zm44.398-71.65c.7.774 1.395 1.626 2.172 2.4 5.735 5.804 8.989 12.3 6.043 20.503-2.558 7.196-6.898 13.078-13.636 17.024-.93.539-1.786 1.316-2.715 2.011.156.23.312.54.465.774.699-.309 1.472-.465 2.171-.852 6.122-3.328 10.383-8.355 13.56-14.469 5.812-11.14 2.48-19.421-5.966-27.39-.387-.387-1.008-.543-1.55-.774-.157.309-.387.543-.544.774zm-49.746 22.13c.618.078 1.317.23 1.938.078 7.746-1.086 14.644-8.742 14.953-16.48 0-.544-.309-1.087-.465-1.704-.308-.078-.617-.23-.851-.308-.696 10.136-6.586 15.394-16.04 17.406.153.39.31.7.465 1.008zm-85.16 31.183c0 2.707-2.172 4.95-4.883 4.95-2.558 0-4.648-2.243-4.648-4.875 0-2.551 2.633-5.184 5.113-5.262 2.324 0 4.34 2.324 4.418 5.187zm-1.629-.078c-.23-1.394-.543-2.941-2.558-3.172-1.703-.156-3.332 1.313-3.407 3.094 0 1.703.618 3.094 2.477 3.328 1.707.23 3.41-1.316 3.488-3.25zm0 0"/></g></svg>