<svg xmlns="http://www.w3.org/2000/svg" width="100" viewBox="0 0 75 75" height="100" version="1.0"><defs><clipPath id="a"><path d="M20 7.5h34v60H20zm0 0"/></clipPath><clipPath id="b"><path d="M49 20h25.133v34H49zm0 0"/></clipPath><clipPath id="c"><path d="M.633 20H26v34H.633zm0 0"/></clipPath></defs><g clip-path="url(#a)"><path fill="#f4f8f3" d="M53.84 17.21a14.894 14.894 0 00-2.106-5.558c-1.273-2.156-3.222-3.363-5.64-3.898a9.114 9.114 0 00-2.11-.203 3.965 3.965 0 00-1.867.433 3.905 3.905 0 00-1.441 1.262 9.8 9.8 0 00-1.965 5.664c-.066 1.29-.02 2.574.14 3.856.118.832.188 1.664.208 2.504.058 1.738.402 3.453.562 5.175.113 1.059.195 2.117.29 3.176.023.258.05.512.073.77a7.353 7.353 0 01-.91 4.285c-.152.289-.281.379-.61.289a3.486 3.486 0 00-2.085.031.305.305 0 01-.234 0 .314.314 0 01-.168-.164 6.822 6.822 0 01-1-3.293 30.737 30.737 0 01.34-4.715c.101-.765.175-1.535.261-2.3l.336-2.973c0-.13.008-.262.027-.403.059-1.511.22-3.015.36-4.523a2.307 2.307 0 000-.402 26.364 26.364 0 00-.266-3.04 9.628 9.628 0 00-1.7-3.863 3.92 3.92 0 00-1.495-1.34 3.937 3.937 0 00-1.961-.44 8.93 8.93 0 00-5.52 1.757A6.853 6.853 0 0023.672 11a14.46 14.46 0 00-2.2 4.7c-.21.874-.327 1.769-.48 2.66a3.62 3.62 0 000 .581 11.702 11.702 0 001.875 6.399c.637.965 1.332 1.898 2.016 2.82.316.445.66.875.965 1.328a22.872 22.872 0 003.91 4.395c.125.11.258.203.402.285.18.11.36.113.543.008a.496.496 0 00.266-.473 1.962 1.962 0 00-.172-.742 14.734 14.734 0 00-.945-1.676 51.67 51.67 0 00-3.317-4.277 13.52 13.52 0 01-2.96-6.11 7.386 7.386 0 01.546-4.812 13.197 13.197 0 013.274-4.516A6.184 6.184 0 0130 10.168c.152-.04.309-.086.469-.113a2.303 2.303 0 011.465.14c.472.203.84.528 1.105.973.484.742.813 1.547.992 2.418.13.629.207 1.27.235 1.914a20.025 20.025 0 01-.282 4.43c-.117.761-.187 1.535-.285 2.3-.148 1.149-.293 2.297-.465 3.442-.222 1.562-.476 3.117-.71 4.676-.114.765-.208 1.53-.31 2.297-.023.187 0 .402-.03.574-.016.816.054 1.62.218 2.418a3.197 3.197 0 001.453 2.297.404.404 0 01.168.496 82.966 82.966 0 00-.53 1.86 19.112 19.112 0 00-.598 4.097c-.036.933-.168 1.863-.122 2.797.07 1.449.082 2.902.2 4.343.16 1.735.425 3.45.808 5.149.301 1.414.617 2.82 1.059 4.21.195.614.402 1.212.625 1.825.45 1.242.91 2.48 1.383 3.715.132.324.289.64.46.949.051.07.118.105.204.105a.226.226 0 00.199-.105c.14-.254.266-.512.375-.781.648-1.719 1.324-3.426 1.918-5.164a33.032 33.032 0 001.18-4.575c.277-1.457.504-2.917.75-4.378 0-.125.027-.258.035-.403l.242-5.043a32.17 32.17 0 00-.48-5.68c-.145-.855-.426-1.683-.649-2.523a4.791 4.791 0 00-.137-.46.33.33 0 01-.02-.278.344.344 0 01.184-.207 3.31 3.31 0 001.016-1.028c.262-.417.426-.87.488-1.363.223-1.312.23-2.625.028-3.941-.293-1.942-.551-3.887-.86-5.82-.242-1.528-.402-3.06-.593-4.594-.126-1.153-.31-2.297-.43-3.45a10.73 10.73 0 010-2.695c.043-.578.137-1.152.273-1.715.172-.52.38-1.023.586-1.53a1.93 1.93 0 01.235-.403c.804-1.094 1.41-1.559 3.07-1.18a6.613 6.613 0 013.055 1.774c.285.265.554.546.804.843a15.26 15.26 0 011.95 2.992c.476.946.753 1.95.835 3.008a8.02 8.02 0 01-.37 3.098 14.535 14.535 0 01-3.11 5.64 45.586 45.586 0 00-2.902 3.743 18.497 18.497 0 00-.961 1.636c-.09.172-.153.356-.196.543-.101.282-.039.516.192.704.25.164.492.152.722-.036.106-.07.204-.16.297-.238a20.05 20.05 0 003.606-3.89l2.011-2.731a23.008 23.008 0 001.75-2.664A11.666 11.666 0 0053.825 21a11.67 11.67 0 00.015-3.79zM34.21 39.435c.099-.297.224-.59.34-.887.403.098.47.488.677.75.117.191.195.398.242.617.074.352.234.664.48.926.246.265.543.45.89.547.321.113.544.328.673.64.18.25.215.52.113.809a1.987 1.987 0 00-.082.566c-.07.868-.098 1.739-.223 2.598-.101.8-.152 1.605-.152 2.418 0 1.059 0 2.121.031 3.18.024.808.11 1.613.125 2.418.024 1.093 0 2.191 0 3.28h.07l-.242 7.81a.81.81 0 01-.023.195.499.499 0 01-.09.113.533.533 0 01-.066-.066c-.07-.145-.149-.285-.203-.434a221.28 221.28 0 01-1-2.719c-.2-.574-.403-1.156-.57-1.738a40.497 40.497 0 01-1.087-4.496 52.938 52.938 0 01-.613-3.902 50.035 50.035 0 01-.223-6.075c0-.804.043-1.609.133-2.414.117-1.41.383-2.789.8-4.136zm2.017.98a1.467 1.467 0 01-.278-.605 1.47 1.47 0 01.871-1.645c.192-.055.383-.094.578-.113.188.008.375.023.563.05.34.079.613.254.824.528.215.27.32.578.317.926a1.45 1.45 0 01-.332.922 1.43 1.43 0 01-.836.507 1.532 1.532 0 01-1.707-.57zm4.226-2.047a20.532 20.532 0 011.172 6.133c.035 1.8.023 3.625 0 5.406-.02 1-.094 1.992-.227 2.985-.207 1.558-.539 3.097-.847 4.64-.555 2.766-1.614 5.356-2.559 7.98a1.446 1.446 0 01-.199.325c0 .023-.055.031-.086.031-.027 0-.062 0-.062-.027a.867.867 0 01-.047-.281c.027-.512.082-1.024.09-1.54.054-2.253.09-4.507.12-6.34-.023-1.902-.038-3.378-.058-4.863 0-.804 0-1.613-.078-2.418-.164-1.453.035-2.894.117-4.336.035-.636.137-1.277.148-1.921-.027-.485.055-.95.243-1.399a.406.406 0 000-.457 8.881 8.881 0 01-.227-.426c-.094-.214-.05-.355.207-.437a1.958 1.958 0 001.04-.809c.124-.187.21-.394.265-.617a2.017 2.017 0 00-.137-1.312 1.948 1.948 0 00-.387-.551 2.072 2.072 0 00-.668-.426 2.038 2.038 0 00-.777-.148c-.27 0-.531.046-.781.148-.25.098-.473.242-.668.426-.16.152-.297.336-.45.5-.09.101-.19.035-.242-.031-.136-.176-.257-.364-.402-.551-.113-.156-.101-.305.043-.438.402-.468.723-.984.965-1.55.117-.258.3-.454.547-.59.25-.133.515-.18.793-.141.64 0 1.297-.035 1.64.711a5.762 5.762 0 001.118 1.68c.18.183.312.398.394.644zm0 0"/></g><g clip-path="url(#b)"><path fill="#f4f8f3" d="M60.605 33.586c.141-.25.223-.52.25-.805.192-.75.344-1.508.575-2.246.175-.555.394-1.09.652-1.61a2.513 2.513 0 011.234-1.183.428.428 0 01.207-.062.466.466 0 01.488.355c.071.246.102.496.094.754a6.353 6.353 0 01-.539 2.242c-.582 1.328-1.183 2.645-1.777 3.965l-.352.809a.075.075 0 000 .07.085.085 0 00.086 0c.079-.055.149-.117.215-.188.344-.43.715-.835 1.024-1.285a34.323 34.323 0 012.613-3.343 4.46 4.46 0 00.953-1.875c.238-.934.504-1.868.754-2.797.254-.93.512-1.817.758-2.727a8.7 8.7 0 011.55-2.875c.204-.3.473-.531.805-.68a.469.469 0 01.508.004c.172.102.254.25.25.446a2.42 2.42 0 010 .672c-.082.402-.2.804-.3 1.207-.024.117-.079.316-.04.34.172.097.278-.07.403-.169.351-.277.703-.562 1.066-.828.36-.265.64-.43.965-.636.262-.153.543-.203.84-.153a.39.39 0 01.277.172c.07.094.098.203.078.317a2.195 2.195 0 01-.265.613 4.64 4.64 0 01-1.067 1.11c-.922.695-1.828 1.417-2.773 2.09-.532.37-1.004.8-1.422 1.292a5.769 5.769 0 00-.996 1.742c0 .024.023.063.035.09l-.164.09c-.02.02-.043.039-.059.066h.13a.5.5 0 00.066-.164c.3-.09.445-.36.644-.566a21.485 21.485 0 013.043-2.668c.27-.176.55-.328.848-.453.25-.11.504-.125.761-.043a.679.679 0 01.606.633.652.652 0 01-.05.308 2.746 2.746 0 01-.528.906 13.32 13.32 0 01-1.399 1.329c-1.34 1.105-2.71 2.171-4.062 3.265a49.855 49.855 0 00-3.653 3.445 7.11 7.11 0 00-.503.586.328.328 0 00-.043.16.346.346 0 00.09 0c.5-.12 1.003-.242 1.5-.378.187-.055.363-.13.53-.223.575-.297 1.145-.586 1.704-.914a35.108 35.108 0 013.52-1.586c.456-.176.93-.27 1.413-.289a1.8 1.8 0 01.575.07c.144.043.25.137.32.274a.504.504 0 01.023.418 1.95 1.95 0 01-.375.554 3.32 3.32 0 01-1.726.903 283.28 283.28 0 01-4.809 1.05 4.43 4.43 0 00-1.441.536.751.751 0 01-.805.125 1.255 1.255 0 00-1.008.234c-.527.27-.96.645-1.312 1.121-.48.684-.973 1.36-1.453 2.047-.664.95-1.332 1.898-1.992 2.852a205.26 205.26 0 00-1.727 2.562 23.373 23.373 0 00-1.586 2.54 2.23 2.23 0 00-.184.343c-.05.187-.32.328-.136.574.152-.105.3-.219.437-.348a10.31 10.31 0 001.68-2.109c.094-.168.21-.324.344-.465a44.636 44.636 0 013.05-3.09c.664-.609 1.309-1.238 1.973-1.851a16.602 16.602 0 012.914-2.051 2.4 2.4 0 011.211-.32.59.59 0 01.637.258.586.586 0 01.031.683c-.09.274-.227.524-.402.75-.336.39-.696.758-1.082 1.098A24.763 24.763 0 0162.085 43c-1.065.66-2.16 1.281-3.222 1.938-.492.304-.96.644-1.43.98a3.137 3.137 0 00-.578.512c-.84 1.023-1.816 1.918-2.718 2.883-.133.14-.254.289-.375.437a.13.13 0 000 .094s.05.031.074.027a2.44 2.44 0 00.367-.101c1.254-.504 2.504-1.024 3.766-1.516.5-.223.972-.488 1.418-.805a11.58 11.58 0 014.289-1.683 4.29 4.29 0 011.05 0c.13.02.247.062.356.136a.532.532 0 01.266.387.538.538 0 01-.121.45c-.383.398-.829.71-1.336.937a6.47 6.47 0 01-1.95.527c-.761.129-1.53.215-2.296.3a8.237 8.237 0 00-2.243.556 4.878 4.878 0 01-1.375.441.506.506 0 00-.183.059c-1.02.48-2.047.945-3.051 1.453-.43.234-.805.535-1.129.898-.379.403-.781.766-1.187 1.137a.505.505 0 01-.258.105.223.223 0 01-.16-.082c-.028-.039-.043-.136 0-.164.218-.234.437-.472.671-.687a1.39 1.39 0 00.461-.918c.13-.926.29-1.844.465-2.766a2.485 2.485 0 00-.176-1.61 12.452 12.452 0 00-1.132-2.015 12.027 12.027 0 01-1.09-2.258 1.373 1.373 0 01-.09-.562c-.008-.309.125-.531.402-.664a.656.656 0 01.77.105c.312.242.539.551.676.926.277.754.527 1.52.765 2.29.086.273.117.562.18.839 0 .039.09.059.133.086.043.027.039-.059.035-.086a3.268 3.268 0 01.2-1.523c.16-.524.21-1.063.155-1.61a25.645 25.645 0 01.137-4.836 5.482 5.482 0 01.461-1.773c.184-.418.441-.782.773-1.098a.59.59 0 01.63-.152.591.591 0 01.43.484c.089.41.124.824.108 1.246a8.05 8.05 0 01-.238 1.426c-.137.563-.324 1.113-.48 1.672-.535 1.957-1.075 3.918-1.61 5.875-.101.371-.168.754-.234 1.137-.219 1.203-.43 2.414-.64 3.625-.04.191-.063.382-.079.578a.42.42 0 00.121.222c0 .02.13 0 .172-.047.406-.37.75-.792 1.024-1.273.402-.77.832-1.527 1.25-2.293.27-.476.53-.957.808-1.43a3.97 3.97 0 00.621-2.39c-.054-.703-.058-1.414-.07-2.121-.04-1.07.07-2.121.328-3.16.09-.45.266-.86.524-1.239.136-.21.332-.3.582-.265a.56.56 0 01.351.156.55.55 0 01.172.34c.043.383.055.77.043 1.152a21.996 21.996 0 01-.578 3.527 32.48 32.48 0 00-.168.848c0 .031.016.05.039.066a.085.085 0 00.086 0c.098-.082.187-.171.27-.27.367-.491.726-.987 1.09-1.48a3.7 3.7 0 00.695-1.351 6.354 6.354 0 01.652-1.504c.281-.563.39-1.152.336-1.777-.04-.61-.047-1.207-.04-1.832a4.57 4.57 0 00-.32-2.262 4.809 4.809 0 01-.261-1.125c-.285-1.207-.582-2.442-.86-3.664a5.585 5.585 0 01-.129-.957c-.03-.336.055-.64.254-.91a.553.553 0 01.22-.184.501.501 0 01.28-.047c.098.008.188.04.27.098a.59.59 0 01.184.215c.082.175.136.36.164.55.07.672.148 1.344.171 2.012.063 1.68.344 3.332.497 5a1.1 1.1 0 00.144.348.36.36 0 00-.062.055v.058zm6.723-6.043c.125-.02.188-.094.188-.223.129-.136.242-.289.347-.445.489-.902.969-1.809 1.45-2.723.226-.422.46-.843.652-1.285a4.752 4.752 0 00.5-2.031.199.199 0 00-.09-.156.174.174 0 00-.164 0 2.308 2.308 0 00-.352.324 7.951 7.951 0 00-1.546 2.75c-.344 1.137-.622 2.289-.926 3.433a.408.408 0 000 .098c0 .094-.028.184-.04.277a.226.226 0 00-.066.055v.059zm-3.316 6.164l-.16.094a.256.256 0 00-.059.07h.137a.844.844 0 00.054-.168c.153-.05.317-.094.317-.305.308-.07.476-.324.68-.52A38.267 38.267 0 0168 30.165c1.176-.945 2.367-1.875 3.535-2.824.375-.3.727-.633 1.047-.992.195-.254.367-.52.512-.809.074-.133-.059-.336-.215-.363a1.063 1.063 0 00-.805.156c-.816.52-1.57 1.117-2.261 1.793-.868.86-1.68 1.773-2.555 2.621a37.175 37.175 0 00-2.664 3.047c-.137.164-.336.309-.309.57-.172.063-.316.133-.273.332zm-4.547-5.059a.46.46 0 00-.074.153c0 .031.054.066.086.105v-.093c0-.055-.024-.118-.04-.176a.666.666 0 00.094-.254 53.41 53.41 0 00-.097-1.613 2.46 2.46 0 00-.055-.38 1.086 1.086 0 00-.098-.265c-.027-.055-.113-.133-.125-.125-.07.04-.176.105-.18.16-.074.875.09 1.703.489 2.488zm5.98 9.84c-.289.145-.527.239-.746.375a16.018 16.018 0 00-2.484 1.828 604.352 604.352 0 00-3.625 3.465c-.11.117-.203.242-.285.38a.082.082 0 000 .093c.023.02.05.027.078.023.976-.562 1.953-1.12 2.91-1.699a32.926 32.926 0 003.55-2.492 7.18 7.18 0 001.27-1.313c.09-.125.168-.261.235-.402a.25.25 0 00-.04-.273.251.251 0 00-.257-.094c-.227.016-.446.074-.606.11zm-4.511-2.847c.054-.078.105-.16.148-.243.336-.699.672-1.39.992-2.093.324-.7.707-1.516 1.016-2.29a6.616 6.616 0 00.543-2.417c0-.114.043-.278-.14-.301a.47.47 0 00-.27.066 2.22 2.22 0 00-.805.934c-.18.371-.332.754-.465 1.144-.547 1.649-.754 3.38-1.129 5.067 0 .035.008.066.035.09.024.02.047.035.075.043zm-8.082 5.98c.035.07.05.152.093.176.13.055.153-.07.172-.14.403-1.298.778-2.587 1.149-3.884a5.86 5.86 0 00.25-2.015 2.069 2.069 0 00-.102-.461.213.213 0 00-.18-.16.218.218 0 00-.222.086 6.777 6.777 0 00-.617.968 3.285 3.285 0 00-.266.922 30.49 30.49 0 00-.277 4.508zm8.562 5.191l-1.727.989c-.023 0-.046.054-.039.07.02.031.043.05.079.059.093.023.187.03.28.03.93-.046 1.845-.183 2.75-.401.49-.153.962-.344 1.419-.582a2.49 2.49 0 00.523-.403.196.196 0 00.028-.18.196.196 0 00-.122-.132 2.092 2.092 0 00-.562-.067 14.07 14.07 0 00-2.629.617zm-5.102-4.082a.301.301 0 00.055-.082 22.23 22.23 0 00.805-4.836c.008-.132 0-.269-.024-.402a.32.32 0 00-.168-.207.237.237 0 00-.218.11c-.137.289-.25.585-.34.894a13.27 13.27 0 00-.238 4.39.14.14 0 00.043.083s.062.043.086.05zm13.051-9.382v.027c-.445.18-.894.352-1.332.543-.234.102-.46.223-.687.336a.227.227 0 00-.063.074c.024 0 .047.04.07.04.157.019.317.019.473 0 .942-.204 1.88-.403 2.82-.641.465-.13.91-.305 1.34-.524.192-.113.36-.258.5-.43.082-.082 0-.285-.117-.304a1.773 1.773 0 00-1.035.11c-.664.233-1.32.507-1.969.769zm3.875-11.766c-.261.172-.59.367-.898.59a9.296 9.296 0 00-2.418 2.32.88.88 0 00-.078.262c.09 0 .207 0 .265-.04a150.31 150.31 0 002.668-2.038c.262-.235.504-.488.727-.762a.696.696 0 00.09-.262c.027-.09 0-.129-.102-.113zm-22.406 21.86l-.437-1.087a1.137 1.137 0 00-.098-.164c-.14-.214-.438-.351-.555-.246a.493.493 0 00-.125.524c.012.093.04.187.078.273.375.922.871 1.774 1.48 2.559.024.031.095.035.141.054a.376.376 0 000-.093 6.363 6.363 0 00-.48-1.82zm0 0"/></g><path fill="#f4f8f3" d="M64.934 25.172a.722.722 0 01-.47.055.706.706 0 01-.41-.235.735.735 0 01-.19-.43.735.735 0 01.105-.46c.351-.715 1-.762 1.566-.297.113.097.18.218.2.367a.583.583 0 01-.09.41c-.165.285-.403.48-.711.59zm-.153-.371a4.18 4.18 0 00.336-.375c.11-.156-.043-.406-.246-.406a.447.447 0 00-.476.382c-.02.086 0 .223.039.266.105.062.218.105.34.133zm-7.321 8.367a.811.811 0 01-.605.02.813.813 0 01-.457-.395.722.722 0 01-.003-.512.742.742 0 01.32-.394.76.76 0 01.597-.059.78.78 0 01.477.367c.094.18.106.367.043.559a.672.672 0 01-.371.414zm-.55-.563a.524.524 0 00.195.09c.172 0 .2-.125.196-.254-.004-.129-.106-.14-.203-.129a.209.209 0 00-.172.098.204.204 0 00-.016.195zm12.871 4.243c.137.402-.078.976-.406 1.062a.725.725 0 01-.871-.402.752.752 0 01.082-.606.772.772 0 01.48-.375.644.644 0 01.715.32zm-.64.199a.595.595 0 00-.121.187c0 .032.058.09.093.13.04.038.063 0 .07-.032.028-.082.051-.164.067-.246zM56.648 52.172a.885.885 0 01-.05.3c-.168.282-.399.5-.684.66a.497.497 0 01-.539-.089c-.234-.23-.29-.5-.176-.809a.8.8 0 01.278-.382.787.787 0 01.449-.153.64.64 0 01.445.106c.137.09.23.21.277.367zm-.808.402c.047-.058.101-.133.152-.207.047-.07 0-.082 0-.086 0-.004-.12-.066-.152-.047a.576.576 0 00-.164.2c0 .03.023.101.054.144.028.043.063.016.114.012zm9.035-8.48c-.273.093-.5.027-.68-.2-.183-.222-.207-.46-.07-.71a.618.618 0 01.625-.36.32.32 0 01.18.051.785.785 0 01.27.621.773.773 0 01-.325.598zm0 0"/><g clip-path="url(#c)"><path fill="#f4f8f3" d="M14.36 33.73a.076.076 0 000-.058.394.394 0 00-.063-.05 1.27 1.27 0 00.148-.352c.149-1.668.438-3.32.492-4.997.024-.675.102-1.347.172-2.015.024-.203.075-.399.164-.586a.548.548 0 01.73-.266c.09.043.165.102.22.184.199.27.285.574.254.91a4.907 4.907 0 01-.13.957c-.277 1.211-.57 2.441-.855 3.664a5.345 5.345 0 01-.262 1.125c-.37.73-.332 1.492-.324 2.262 0 .61 0 1.207-.039 1.832a3.26 3.26 0 00.344 1.789c.281.473.504.973.656 1.504.137.496.367.949.692 1.351.359.493.714.989 1.082 1.48.082.099.172.188.27.27.03.016.058.016.085 0 .027-.015.04-.035.04-.066-.052-.281-.11-.566-.169-.848a21.988 21.988 0 01-.574-3.527 7.578 7.578 0 01.039-1.152.554.554 0 01.176-.336.564.564 0 01.347-.16.554.554 0 01.582.265c.262.38.438.79.528 1.238.254 1.04.363 2.09.324 3.16 0 .708 0 1.419-.066 2.122-.051.863.156 1.66.617 2.39.277.473.539.953.808 1.43.403.766.84 1.523 1.254 2.293.274.48.614.906 1.024 1.273.039.04.148.067.168.047a.335.335 0 00.12-.222 4.113 4.113 0 00-.077-.578 443.692 443.692 0 00-.64-3.626 11.026 11.026 0 00-.235-1.136c-.535-1.957-1.075-3.918-1.61-5.875-.152-.559-.343-1.11-.48-1.672a8.424 8.424 0 01-.238-1.426 4.924 4.924 0 01.113-1.242.591.591 0 01.43-.484.583.583 0 01.628.156c.332.312.594.676.778 1.094.254.566.406 1.156.457 1.773.2 1.605.246 3.219.137 4.836-.055.547 0 1.086.16 1.61a3.33 3.33 0 01.195 1.523c0 .027.023.058.035.086.012.027.125-.047.133-.086.066-.278.094-.567.184-.84.238-.77.484-1.535.765-2.29a2 2 0 01.672-.925.656.656 0 01.77-.105.657.657 0 01.402.664c.008.195-.02.382-.09.562a11.458 11.458 0 01-1.09 2.258 12.754 12.754 0 00-1.133 2.016 2.52 2.52 0 00-.171 1.613c.171.918.332 1.836.464 2.762.036.367.188.671.461.918.239.214.45.453.668.687a.174.174 0 010 .164.21.21 0 01-.16.082.505.505 0 01-.258-.105 27.186 27.186 0 01-1.183-1.137 4.404 4.404 0 00-1.13-.898c-1.007-.508-2.034-.973-3.054-1.45a.447.447 0 00-.183-.062 4.76 4.76 0 01-1.387-.465 8.196 8.196 0 00-2.242-.55c-.766-.09-1.535-.173-2.297-.302a6.47 6.47 0 01-1.95-.527 4.218 4.218 0 01-1.335-.937.542.542 0 01-.121-.454.544.544 0 01.265-.382.795.795 0 01.356-.137 4.299 4.299 0 011.05 0c1.543.273 2.973.832 4.29 1.68.445.312.917.582 1.417.804 1.262.492 2.512 1.012 3.77 1.516.117.043.238.078.363.101.028 0 .07 0 .075-.027a.13.13 0 000-.094c-.122-.148-.243-.3-.375-.441-.903-.961-1.88-1.855-2.715-2.879a3.023 3.023 0 00-.582-.512 24.3 24.3 0 00-1.43-.98c-1.066-.656-2.16-1.277-3.223-1.938a24.537 24.537 0 01-3.199-2.32c-.39-.34-.75-.707-1.086-1.098a2.456 2.456 0 01-.426-.75.586.586 0 01.024-.695.587.587 0 01.644-.258c.43 0 .832.106 1.211.317a16.994 16.994 0 012.91 2.05c.664.618 1.309 1.247 1.973 1.856a42.165 42.165 0 013.05 3.09c.134.14.25.297.345.465a10.31 10.31 0 001.68 2.109c.136.125.284.242.44.348.18-.246-.09-.403-.14-.575a2.21 2.21 0 00-.18-.343 23.033 23.033 0 00-1.59-2.54 174.16 174.16 0 01-1.75-2.55c-.656-.957-1.32-1.903-1.988-2.852-.48-.687-.972-1.363-1.457-2.047a3.624 3.624 0 00-1.308-1.12 1.242 1.242 0 00-1.008-.235.75.75 0 01-.805-.125 4.443 4.443 0 00-1.437-.535 217.078 217.078 0 01-4.809-1.051 3.32 3.32 0 01-1.703-.863 1.985 1.985 0 01-.375-.555.506.506 0 01.027-.418.512.512 0 01.317-.273c.187-.051.379-.075.574-.067a4.39 4.39 0 011.414.285c1.203.465 2.375.993 3.523 1.586.555.328 1.125.617 1.7.914.171.09.351.157.539.207.496.137 1 .258 1.5.38a.28.28 0 00.113.023.398.398 0 00-.047-.16 7.126 7.126 0 00-.504-.586 48.321 48.321 0 00-3.652-3.446c-1.352-1.09-2.719-2.16-4.063-3.261a12.739 12.739 0 01-1.406-1.348c-.234-.27-.41-.57-.531-.906a.695.695 0 01.043-.613.712.712 0 01.219-.227.726.726 0 01.296-.102 1.06 1.06 0 01.758.043c.29.125.567.278.828.457A20.8 20.8 0 016.57 27.86c.2.207.344.477.649.567a.492.492 0 00.062.164c0 .023.086 0 .13 0a.311.311 0 00-.06-.067l-.163-.09c0-.027.042-.066.035-.09a5.503 5.503 0 00-.996-1.738 7.207 7.207 0 00-1.422-1.293c-.942-.675-1.852-1.394-2.774-2.093a4.707 4.707 0 01-1.05-1.106 2.04 2.04 0 01-.274-.61.406.406 0 01.074-.32.398.398 0 01.278-.171c.304-.051.59 0 .855.152.324.211.652.402.965.637.308.234.71.55 1.05.832.122.094.227.265.403.164.035 0 0-.223-.043-.34-.098-.402-.219-.805-.3-1.207a2.42 2.42 0 010-.672c0-.09.019-.172.062-.25a.522.522 0 01.43-.27c.09 0 .175.016.253.06.336.148.602.374.805.679a8.728 8.728 0 011.555 2.863c.254.899.484 1.805.73 2.703.246.899.516 1.86.754 2.797.168.7.485 1.324.953 1.871a34.373 34.373 0 012.614 3.348c.308.45.675.855 1.023 1.285.062.07.137.133.215.188a.078.078 0 00.082 0 .059.059 0 000-.07 30.38 30.38 0 00-.348-.81c-.594-1.32-1.21-2.636-1.777-3.964a6.28 6.28 0 01-.531-2.246 2.573 2.573 0 01.09-.754.52.52 0 01.101-.195.44.44 0 01.176-.125.448.448 0 01.215-.04c.074.008.14.028.207.063.55.25.96.644 1.234 1.187.258.52.477 1.055.652 1.61.227.738.403 1.496.575 2.246.027.285.109.555.25.805zm-6.723-6.042v-.06c-.02-.023-.043-.038-.067-.054 0-.09-.027-.183-.039-.277-.011-.094.024-.067 0-.098-.304-1.144-.586-2.297-.922-3.433a8.024 8.024 0 00-1.55-2.75 2.125 2.125 0 00-.352-.325.174.174 0 00-.164 0 .19.19 0 00-.09.16c.027.704.2 1.372.516 2 .191.442.426.864.652 1.286.48.91.961 1.82 1.45 2.722.105.157.218.305.347.446 0 .129.059.203.187.222zm3.039 5.703c.027-.262-.176-.403-.313-.57A37.175 37.175 0 007.7 29.772c-.875-.875-1.687-1.793-2.562-2.652a14.055 14.055 0 00-2.258-1.793 1.09 1.09 0 00-.828-.156c-.156.027-.29.23-.215.363.144.29.316.555.512.809.324.36.672.691 1.047.992 1.167.953 2.359 1.883 3.535 2.82a38.454 38.454 0 013.043 2.703c.207.196.37.45.68.52 0 .207.163.254.316.305a.587.587 0 00.058.164c0 .027.086 0 .133 0a.311.311 0 00-.058-.067l-.16-.093c.023-.192-.122-.262-.266-.329zm5.285-7.239c0-.054-.11-.12-.176-.16-.07-.039-.101.07-.125.125a.912.912 0 00-.101.266c-.028.125-.043.25-.055.379-.04.539-.074 1.078-.098 1.613.012.09.047.176.094.25 0 .063-.027.121-.04.18-.01.054 0 .058 0 .093.032-.039.09-.074.087-.105a.46.46 0 00-.074-.152 4.545 4.545 0 00.488-2.489zM8.895 38.363a.251.251 0 00-.258.094.258.258 0 00-.043.273c.066.141.144.274.234.403.367.492.793.93 1.27 1.312a32.926 32.926 0 003.55 2.492c.957.579 1.938 1.133 2.91 1.7a.094.094 0 00.079-.024.1.1 0 000-.093 2.466 2.466 0 00-.285-.38 505.886 505.886 0 00-3.625-3.464 15.77 15.77 0 00-2.485-1.828c-.21-.141-.457-.23-.746-.375-.168-.02-.387-.078-.601-.11zm5.195-2.765a.146.146 0 00.039-.09c-.379-1.688-.582-3.418-1.133-5.067a9.951 9.951 0 00-.473-1.14 2.22 2.22 0 00-.804-.934.463.463 0 00-.27-.066c-.183.023-.144.187-.14.3.027.84.21 1.649.543 2.419.312.773.668 1.53 1.015 2.289.348.757.656 1.394.992 2.093.043.082.094.164.149.243a.281.281 0 00.082-.047zm7.7 1.527a3.42 3.42 0 00-.267-.922 7.137 7.137 0 00-.617-.969.221.221 0 00-.226-.086.213.213 0 00-.176.16c-.05.153-.086.305-.102.462a5.77 5.77 0 00.25 2.015c.371 1.297.762 2.59 1.149 3.883.023.07.043.195.172.14.043-.019.058-.105.093-.175a30.537 30.537 0 00-.277-4.508zm-10.884 9.043a2.28 2.28 0 00-.562.062.202.202 0 00-.121.137.197.197 0 00.027.18c.156.156.332.293.523.402.457.239.93.43 1.422.582.903.219 1.817.356 2.746.403.098 0 .192-.012.286-.036a.097.097 0 00.074-.054s0-.059-.031-.074l-1.735-.985a13.91 13.91 0 00-2.644-.617zm7.805-3.457a.12.12 0 00.043-.082 13.27 13.27 0 00-.238-4.39 5.374 5.374 0 00-.356-.88.249.249 0 00-.219-.109.32.32 0 00-.164.21c-.027.134-.039.267-.027.403a21.84 21.84 0 00.805 4.836c0 .028.035.051.05.078.016.032.07-.05.086-.066zM3.609 32.563a1.806 1.806 0 00-1.035-.114c-.11 0-.195.227-.117.309.145.172.309.316.5.43.43.226.875.406 1.34.542.926.243 1.863.438 2.82.645.156.016.317.016.473 0 .027 0 .047-.031.07-.043.024-.012-.031-.059-.058-.074-.227-.113-.454-.235-.692-.336-.437-.192-.887-.363-1.332-.543v-.024c-.66-.27-1.312-.542-1.969-.792zM1.43 21.538c-.093 0-.132.023-.109.113.016.094.043.18.094.262a6.8 6.8 0 00.727.762c.879.691 1.789 1.387 2.668 2.039.062.047.175.027.265.039a.88.88 0 00-.078-.262 9.358 9.358 0 00-2.418-2.32c-.312-.223-.64-.402-.902-.59zm22.165 23.723a.376.376 0 000 .093c.043 0 .113 0 .14-.054a10.92 10.92 0 001.48-2.559 1.09 1.09 0 00.075-.273.486.486 0 00-.125-.524c-.117-.105-.402.032-.555.246a.866.866 0 00-.097.164l-.438 1.086a6.232 6.232 0 00-.476 1.82zm0 0"/></g><path fill="#f4f8f3" d="M9.285 24.582a.583.583 0 01-.09-.41.575.575 0 01.2-.367c.566-.465 1.207-.403 1.57.297.086.14.12.296.105.46a.735.735 0 01-.191.43.706.706 0 01-.41.235.722.722 0 01-.469-.055 1.3 1.3 0 01-.715-.59zm1.207.078c.055-.043.059-.18.035-.265a.441.441 0 00-.472-.383c-.203 0-.356.258-.246.406a4 4 0 00.332.371c.129-.023.246-.066.359-.129zm6.653 7.535a.78.78 0 01.476-.367.76.76 0 01.598.059.742.742 0 01.32.394.722.722 0 01-.004.512.813.813 0 01-.457.395.802.802 0 01-.601-.02.68.68 0 01-.375-.414.682.682 0 01.043-.559zm.69.117c-.097 0-.202 0-.202.13 0 .128.023.265.195.253a.558.558 0 00.203-.09.193.193 0 00-.02-.199.202.202 0 00-.175-.093zm-11.952 4.2a.8.8 0 01.48.375.76.76 0 01.078.605.695.695 0 01-.359.363.704.704 0 01-.512.04c-.34-.09-.554-.641-.406-1.063a.627.627 0 01.305-.281.659.659 0 01.414-.04zm-.2.574c.016.082.04.164.067.246 0 0 .063.04.07.031.008-.008.106-.097.094-.129a.595.595 0 00-.121-.187zm13.325 14.617c.363.016.605.192.73.535.114.309.055.578-.18.809a.505.505 0 01-.538.094 1.858 1.858 0 01-.684-.664.87.87 0 01-.05-.301.653.653 0 01.276-.367.64.64 0 01.446-.106zm.187.89c.032-.042.07-.113.055-.144a.506.506 0 00-.168-.195c-.027 0-.098 0-.148.043-.047.043 0 .062 0 .09 0 .023.105.144.148.203.047.062.105.015.113.004zm-9.136-8.499c.273.093.5.027.68-.2a.59.59 0 00.07-.71.618.618 0 00-.625-.36.32.32 0 00-.18.051.785.785 0 00-.27.621.773.773 0 00.325.598zm0 0"/></svg>