<svg xmlns="http://www.w3.org/2000/svg" width="500" viewBox="0 0 375 375" height="500" version="1.0"><defs><clipPath id="a"><path d="M1.348 5.07H373v364.5H1.348zm0 0"/></clipPath></defs><g clip-path="url(#a)"><path fill="#efe9e1" d="M320.29 368.512c-1.587-2.075-5.97-14.68-7.802-22.418-1.16-4.895-1.992-9.196-2.3-11.867l-.157-1.344-3.039 1.027c-1.676.563-5.055 1.516-7.508 2.117-8.847 2.16-11.304 2.403-22.52 2.239-6.335-.094-9.769-.258-13.046-.618-7.203-.8-8.387-.992-17.676-2.882-5.242-1.067-15.652-2.266-22.234-2.559-4.953-.223-12.125-.879-22.36-2.05-3.37-.384-7.753-.872-9.738-1.079-4.222-.45-6.094-.871-7.508-1.7-.765-.448-1.027-.75-1.027-1.19 0-1.012.746-1.497 2.563-1.665.906-.082 2.566-.25 3.69-.367 1.122-.117 3.774-.277 5.888-.355 2.117-.074 5.254-.297 6.972-.488 1.719-.196 4.184-.356 5.473-.356 3.601-.008 3.414-.148-3.188-2.375a3224.22 3224.22 0 01-7.753-2.633c-2.348-.797-4.266-1.36-4.266-1.25 0 .711-6.469 7.024-7.293 7.117-.29.032-.59.067-.676.079-.086.007-.719.523-1.406 1.144-1.266 1.137-2.984 3.531-5.262 7.324-.683 1.145-1.512 2.254-1.84 2.469-.675.445-.777.86-.21.86.316 0 .359.203.245 1.14-.285 2.438-.41 4.266-.757 11-.43 8.297-.793 13.617-.938 13.766-.058.054-.238.023-.398-.078-.219-.137-.254-1.211-.14-4.41.284-8.028.925-17.192 1.386-19.82.32-1.81.152-1.966-.375-.345-.469 1.457-3.192 5.684-4.133 6.426-1.57 1.234-1.707-1.168-.262-4.555.832-1.941.844-2 .227-1.214-2.856 3.652-3.969 4.843-4.461 4.773-.863-.121-.746-1.023.414-3.203.598-1.121 1.027-2.04.96-2.04-.07 0-.913.65-1.87 1.446-2.645 2.184-3.024 1.817-1.246-1.207 2.219-3.773 7.617-9.426 14.39-15.074 1.817-1.516 3.305-2.8 3.305-2.856 0-.054-.976.61-2.168 1.473-1.195.863-3.492 2.395-5.11 3.406a327.728 327.728 0 00-6.425 4.16c-5.3 3.528-9.996 6.25-10.79 6.25-.726 0-.034-.906 2.49-3.273 1.515-1.426 2.73-2.617 2.694-2.652-.035-.035-.761.191-1.617.504-2.097.757-6.312 1.691-6.804 1.503-1.32-.507.714-2.113 6.351-5.019 2.7-1.39 5.64-2.977 6.535-3.523 2.692-1.653 8.828-6.008 10.88-7.723 1.054-.883 2.175-1.781 2.491-1.992l.567-.383-1.41-.719c-.774-.394-1.723-1.043-2.106-1.445-.59-.625-.672-.867-.55-1.617.203-1.246.769-1.786 1.886-1.786 1.567 0 5.652.692 9.938 1.676 2.25.52 5.168 1.176 6.492 1.461 1.324.285 4.137 1.055 6.25 1.715 3.523 1.094 9.015 2.441 9.203 2.254.164-.164-5.64-2.457-11.004-4.34-9.285-3.266-15.156-5.734-17.05-7.18-2.345-1.78-2.239-3.945.245-5.214.868-.442 1.203-.465 4.305-.293 3.086.171 3.773.109 3.121-.293-.469-.29-.254-1.746.36-2.48.93-1.102 2.304-1.54 4.89-1.56l2.238-.015 1.532-1.649 1.527-1.652-.344-.82c-.191-.453-.347-1.34-.347-1.973l-.004-1.152-1.051 1.144c-2.102 2.278-3.238 1.075-3.64-3.847-.137-1.696-.223-1.98-.598-1.98-.578 0-3.48 1.976-6.004 4.093-1.125.941-2.36 1.879-2.742 2.078-.997.524-2.188.5-2.801-.055-1.028-.933-1.25-1.722-1.137-4.054.2-4.156 2.414-9.235 5.02-11.512l1.183-1.035.086-2.633c.074-2.101 0-2.906-.36-4.008-.25-.754-.573-2.176-.718-3.152-.238-1.613-.219-1.883.227-2.89.394-.884.425-1.114.156-1.114-.188 0-.696-.309-1.13-.688-.433-.378-1.308-.914-1.94-1.19-1.72-.755-2.532-1.415-3.09-2.517-.645-1.261-.512-2.808.507-5.804 1.168-3.45 1.04-3.961-1.394-5.535-2.527-1.633-2.926-2.13-2.926-3.625 0-1.106.238-1.739 1.867-4.95 2.543-5.004 3.211-5.511 7.93-5.984 4.23-.422 9.438.445 9.438 1.578 0 .192-.028.352-.063.348a28.738 28.738 0 01-1.168-.34c-2.93-.887-9.258-.656-11.625.43-1.418.648-1.562.832-3.832 4.875-2.285 4.078-2.207 4.757.797 6.816 2.055 1.406 2.906 2.414 2.906 3.441 0 .204-.379 1.575-.84 3.051-1.457 4.637-1.097 5.852 2.16 7.336.934.426 1.84.95 2.02 1.164.465.563 2.668.504 4.594-.12 2.367-.766 4.715-.72 7.031.132 1.082.398 1.863.824 1.863 1.016 0 .457-.652.41-2.304-.172-3.887-1.371-10.196.566-10.196 3.129 0 1.097.703 4.332 1.117 5.129.282.543.32 1.199.192 3.136-.133 1.953-.09 2.625.21 3.348.45 1.066.813 1.242 3.637 1.75 2.657.476 3.27.726 5.157 2.117 2.426 1.785 3.644 1.738 6.277-.242 1.2-.902 1.441-1.203 1.441-1.805 0-1.125.59-.687.676.504.067.926-.02 1.113-.875 1.93-1.242 1.183-3.261 2.176-4.425 2.176-1.188 0-2.106-.395-4.102-1.762-1.727-1.18-2.45-1.438-5.54-1.973-1.753-.304-2.05-.437-2.784-1.23l-.825-.89-1.199 1.304c-3.785 4.113-5.672 13.926-2.683 13.926.601 0 1.91-.899 4.312-2.965 3.52-3.02 6.309-4.371 7.09-3.426.18.215.465 1.676.64 3.309.176 1.605.43 3.03.563 3.164.164.16.68-.172 1.57-1.012 1.141-1.082 1.391-1.219 1.81-.996.417.222.483.5.483 2.035 0 2.043.301 2.535 1.551 2.535.63 0 .992-.219 1.766-1.058 1.14-1.239 1.7-2.274 2.844-5.278.945-2.476 1.156-2.789 1.59-2.355.238.234.136.773-.5 2.629-.958 2.796-2.055 4.683-3.516 6.027-.926.852-1.23.996-2.137.996-.969 0-1.187.125-2.668 1.543l-1.61 1.54 1.4.288c.769.156 1.464.324 1.542.371.36.211 5.88-4.676 8.195-7.254 3.36-3.738 5.395-5.726 5.57-5.441.196.316-1.296 2.27-4.35 5.68-2.555 2.851-4.75 4.785-7.243 6.382l-1.289.825 1.05.312c1.575.469 1.755.418 2.762-.82 1.426-1.758 8.329-9.438 9.438-10.5 1.637-1.574 1.336-.832-.488 1.2a348.1 348.1 0 00-4.778 5.515c-1.687 1.98-3.402 3.922-3.812 4.308-.414.39-.75.774-.75.852 0 .082.488.277 1.082.437 1.094.29 1.476.77.621.77-.258 0-1.852-.317-3.547-.707-5.355-1.227-7.226-1.508-8.824-1.328-2.629.293-4.14 1.547-3.48 2.886.296.606.558.711 2.968 1.196 3.977.797 6.445 1.62 12.262 4.082 6.238 2.64 7.121 3.008 7.242 3.008.05 0 .09-.895.09-1.985 0-2.586-.371-3.308-2.445-4.738-1.903-1.309-2.696-2.223-2.489-2.871.528-1.664 4.051-6.422 7.868-10.621 1.03-1.137 1.875-2.121 1.875-2.184 0-.062-.458-.344-1.02-.625-.563-.281-1.508-1.012-2.106-1.625-1.69-1.738-1.996-1.836-6.406-2.008-3.988-.156-4.879-.379-4.21-1.047.425-.421 7.538-.414 8.742.012.488.172 1.66 1.008 2.605 1.856.945.847 2.297 1.824 3.004 2.172 1.16.566 1.351.597 1.96.304.579-.277.677-.469.677-1.3 0-.696.191-1.227.664-1.844.363-.477.66-1.024.66-1.211 0-.184-.531-.668-1.184-1.074-1.558-.97-1.875-1.512-2.215-3.79-.23-1.546-.41-2.035-.949-2.574-.605-.61-.816-.664-2.426-.656-.968.004-2.629.164-3.683.355-2.602.47-3.008.457-3.008-.093 0-.828 2.957-4.617 5.398-6.914 5.957-5.61 9.961-11.047 10.38-14.102.132-.969.077-1.164-.493-1.734-.55-.551-.773-.621-1.52-.48-3.273.613-8.39 4.956-11.706 9.94-2.051 3.079-3.133 5.426-3.883 8.4l-.617 2.448.5 1.336c.68 1.817.664 2.75-.028 1.438-.277-.531-.758-1.203-1.07-1.492-.313-.293-.566-.704-.566-.91 0-.212-.536-1.485-1.192-2.837-3.434-7.07-3.754-13.382-.894-17.656.87-1.308 1.75-1.547 2.218-.605.168.332.34 3.199.45 7.449.097 3.805.253 7.457.343 8.117.16 1.14.18 1.164.364.48.718-2.714 4.18-8.35 6.933-11.3 3.176-3.399 7.137-5.887 9.375-5.887 1.434 0 1.996.274 2.477 1.195.847 1.641.207 4.016-1.957 7.254-1.778 2.657-3.32 4.414-7.68 8.739-3.063 3.035-5.578 6.02-5.305 6.293.04.039.82-.09 1.735-.286.918-.191 2.48-.351 3.472-.355 3.055-.008 4.047.898 4.567 4.176.34 2.156.469 2.363 2.004 3.23.714.403 1.351.938 1.418 1.192.144.554-.387 1.906-1.016 2.574-.285.305-.48.922-.527 1.66-.063.957-.2 1.27-.735 1.668-.36.27-1.078.508-1.593.535-.52.024-1.047.11-1.18.192-.18.109-5.64 6.699-6.84 8.25-.121.16.66-.086 1.738-.54 2.192-.921 2.582-.968 4.102-.492.586.188 2.039.512 3.23.727 5.32.957 9.473 4.387 9.493 7.844.011 2.625-1.41 6.007-3.293 7.832l-1.274 1.234.242 2.371c.395 3.82 1.422 6.461 2.516 6.461.262 0 1.16-.805 2.152-1.937.938-1.067 2.223-2.332 2.856-2.81 2.328-1.76 5.48-1.741 9.703.063 2.68 1.145 3.379 1.192 4.219.297 1.015-1.086 1.355-2.023 1.535-4.242.207-2.578.777-3.812 2.265-4.89 3.735-2.72 4.766-4.543 3.711-6.579-.707-1.37-2.992-2.41-9.382-4.277-1.75-.508-2.797-1.148-3.239-1.977-.14-.257-.41-1.293-.605-2.304-.426-2.223-.653-2.547-1.645-2.344-1.336.27-5.039 2.223-6.39 3.363-1.559 1.317-2.551 1.797-3.73 1.797-.974 0-2.157-.531-2.356-1.05-.211-.544.043-.614.824-.223 1.105.55 2.117.215 4.34-1.442 3.215-2.394 7.004-4.05 8.445-3.691.902.226 1.305.965 1.723 3.168.43 2.27.867 2.77 2.945 3.336 2.766.754 6.703 2.133 7.84 2.738 1.43.766 2.457 1.906 2.824 3.133.227.754.207 1.176-.101 2.242-.56 1.91-1.266 2.809-3.356 4.246-1.027.707-2.031 1.54-2.238 1.856-.223.34-.453 1.492-.57 2.832-.231 2.718-.77 4.043-2.13 5.27-1.34 1.206-2.25 1.198-5.027-.04-2.703-1.207-3.676-1.46-5.59-1.457-2.07.004-3.32.598-4.882 2.317-2.918 3.214-3.446 3.687-4.13 3.687-1.722 0-3.18-3.094-3.421-7.273l-.137-2.344h-.746c-.703 0-1.102-.195-2.645-1.293-.586-.414-.808-.43-2.812-.172-2.281.293-3.594.188-4.465-.36-.289-.179-1.262-.484-2.164-.675-.906-.192-3.16-1.016-5.008-1.832-8.195-3.61-10.422-4.363-15.578-5.274-4.023-.707-8.687-1.062-9.371-.707-.871.45-1.621 1.23-1.621 1.692 0 .601 1.32 2.039 2.5 2.722.98.57 4.633 2.172 8.043 3.528.976.387 4.605 1.687 8.062 2.887 3.606 1.25 7.559 2.808 9.286 3.656 2.652 1.3 3.003 1.547 3.003 2.078 0 .582-.043.598-1.562.562-1.941-.05-5.586-.91-9.965-2.347-1.844-.61-5.36-1.535-7.812-2.063-2.454-.527-5.258-1.176-6.23-1.437-.974-.262-3.352-.696-5.286-.969-3.324-.465-3.535-.473-3.82-.078-.414.562-.395.66.289 1.473 1.172 1.39 7.027 3.91 17.078 7.347 2.91.992 6.05 2.121 6.984 2.508.93.387 2.77 1.043 4.086 1.453 2.54.797 3.879 1.48 4.121 2.11.207.546-.285.769-2.082.937a407.5 407.5 0 00-4.933.508c-1.852.203-5.586.465-8.297.586-5.957.261-10.547.61-11.125.836-1.09.43 1.402 1.601 4.273 2.007 2.168.31 18.317 2.293 21.637 2.665a230.9 230.9 0 0015.55 1.207c4.95.207 7.497.421 14.383 1.222 1.258.149 4.665.738 7.575 1.309 11.648 2.297 16.414 2.797 26.597 2.773 11.532-.02 16.274-.441 23.317-2.054 7.527-1.727 14.48-4.418 15.96-6.176 2.384-2.828 3-7.196 3.005-21.242.003-5.95-.106-8.286-.598-13.223-.742-7.441-1.375-12.125-2.281-16.934-.383-2.05-1.414-7.89-2.285-12.98-2.602-15.176-2.907-16.64-5.618-26.922-1.074-4.066-4.992-16.586-5.191-16.586-.047 0-.871.336-1.832.742-2.73 1.164-6.414 2.114-11.645 3.004-19.617 3.34-23.218 4.742-26.566 10.336-.75 1.254-.844 1.59-.84 3.098.004 1.633.07 1.824 1.985 5.66 1.09 2.187 1.98 4.05 1.98 4.14 0 .094.379.95.844 1.903.562 1.156.765 1.816.605 1.976-.43.43-1.48-.843-2.453-2.976-.512-1.125-1.148-2.422-1.414-2.883-1.254-2.191-2.691-5.547-2.918-6.812-.367-2.032.02-3.618 1.375-5.672 2.594-3.938 6.441-6.149 13.578-7.797 1.387-.32 3.336-.711 4.328-.871.992-.16 2.852-.492 4.133-.742 1.285-.247 4.043-.72 6.133-1.051 2.09-.328 4.555-.817 5.48-1.082 1.598-.461 5.82-2.098 6.176-2.399.094-.074.008-1.273-.183-2.66-1.125-8.086-5.043-22.043-9.02-32.121-2.687-6.805-5.008-10.672-8.5-14.164-2.5-2.496-7.016-5.961-9.988-7.66-2.692-1.54-7.61-4.895-9.793-6.676-2.61-2.133-4.77-4.66-7.004-8.195-5.68-8.98-7.11-14.305-6.52-24.258.137-2.29.563-6.11.95-8.488 1.972-12.114 2.085-14.297.878-16.653-1.007-1.976-2.25-3.062-4.164-3.66-2.046-.633-2.68-.527-5.46.918-1.825.95-2.399 1.129-3.829 1.211-.925.05-2.246-.031-2.933-.184-1.59-.359-4.617-2.32-6.387-4.144-1.328-1.363-1.707-1.883-4.402-6.02-1.594-2.449-4.13-5.21-7.227-7.879-1.219-1.046-2.91-2.8-3.758-3.898-3.511-4.543-7.715-8.219-10.945-9.566-2.164-.903-5.195-1.278-7.71-.961-1.903.242-3.36.586-3.864.914-.469.304-.832 4.965-1.63 20.957-.187 3.77-.452 7.316-.593 7.886-.332 1.372-1.48 3.88-2.36 5.153-.386.562-1.581 2.383-2.66 4.047-2.39 3.703-2.48 4.246-.93 5.71 1.5 1.423 2.278 2 3.767 2.805.734.395 1.472.989 1.64 1.32.188.364.3 1.419.29 2.645-.009 1.125-.012 2.29-.005 2.59.024.715 1.782 2.606 3.012 3.234.578.297 1.637.547 2.61.618 1.019.07 1.554.199 1.413.34-.289.288-3.355.374-4.07.113-.453-.164-.543-.114-.543.312 0 .281-.242.938-.539 1.457-.539.942-.539.957-.094 1.73.805 1.4.926 2.16 1.094 6.915.149 4.12.234 4.832.707 5.887 1.246 2.777 2.75 3.398 7.656 3.164 4.079-.196 8.598-1.079 11.309-2.211 7.629-3.184 10.75-4.399 10.969-4.262.144.086-.035.363-.418.648-.926.696-8.242 4.098-10.461 4.868-1.008.347-1.906.699-2 .777-.094.078.476 1.215 1.265 2.527 2.188 3.64 3.56 8.488 3.645 12.89.027 1.516-.066 2.231-.375 2.817-.488.926-1.918 2.031-3.766 2.91-1.257.602-1.488.63-4.808.582-1.914-.03-4.352-.218-5.406-.421-2.586-.497-3.633-.485-3.844.05-1.547 3.852.945 15.407 4.504 20.907 3.453 5.34 8.996 9.421 14.738 10.863 2.508.633 8.305 1.336 15.977 1.941 5.304.418 6.628.45 9.855.215 2.05-.148 4.43-.21 5.29-.14 2.433.199 5.929-.731 11.448-3.04 1.438-.605 4.617-1.867 7.063-2.808 2.449-.938 4.883-1.961 5.41-2.27.531-.308 1.937-1.457 3.125-2.547 2.57-2.359 4.21-3.468 7.473-5.046 2.605-1.262 3.996-1.575 4.128-.926.196.93-4.007 4.98-7.511 7.242-2.64 1.703-9.332 5.227-12.504 6.586-1.586.68-4.074 1.57-5.531 1.973-6.575 1.835-12.5 3.207-15.266 3.543-1.652.199-5.656.687-8.895 1.085-3.238.399-6.863.836-8.054.977-3.5.414-7.516.14-10.219-.691-2.867-.887-7.102-2.668-9.137-3.848-1.957-1.133-4.453-3.617-7.675-7.633-3.903-4.863-6.45-9.09-7.32-12.156-.49-1.711-.872-5.617-.876-8.965-.004-2.96-.332-4.309-1.23-5.039-.504-.41-.79-.441-2.492-.281-3.094.285-3.364.277-3.364-.117 0-.473 1.008-.938 2.727-1.258 2.7-.5 4.34.34 4.945 2.535.188.684.461 3.351.606 5.93.144 2.578.422 5.37.62 6.21.774 3.266 3.298 7.586 7.532 12.895 3.289 4.121 5.316 6.055 7.617 7.258 2.465 1.289 6.313 2.812 8.832 3.5 2.98.812 7.953.734 15.324-.238 3.106-.414 6.95-.875 8.536-1.028 1.585-.152 2.937-.336 3.003-.406.067-.07-.636-.059-1.562.027-4.063.387-7.691.438-11.29.164-4.991-.382-11.952-1.136-14.577-1.578-5.383-.91-10.547-3.62-14.38-7.558-3.968-4.075-6.331-8.809-7.866-15.762-.59-2.66-.692-3.64-.684-6.61.008-3.851.274-4.91 1.43-5.667.605-.395.762-.395 3.086.007 1.347.235 4.015.477 5.933.54l3.489.117 1.793-.922c2.546-1.313 2.793-1.73 2.703-4.61-.121-3.984-1.239-8.335-2.973-11.578-1.105-2.074-1.84-2.953-2.312-2.773-.934.36-6.786.969-9.31.969-2.667 0-2.987-.051-4.237-.66-1.457-.715-2.375-1.797-3.055-3.594-.309-.82-.395-2-.406-5.719l-.016-4.688-1.586-3.242.504-1.039c.766-1.582.66-2.285-.582-3.879l-1.082-1.394v-5.207l-1.742-1.004c-3.438-1.98-4.363-2.695-4.942-3.828-.941-1.832-.504-3.266 1.891-6.25 1.676-2.086 3.828-6.29 4.535-8.867.383-1.387.543-3.063.735-7.692.132-3.254.293-6.43.355-7.058.059-.625.023-1.141-.086-1.141-.45 0-2.914 2.914-3.586 4.238-1.43 2.828-1.496 4.672-.515 13.914.464 4.375-.223 5.11-5.38 5.739-1.925.234-2.984.476-3.285.75-.273.246-.55 1.027-.718 2.023-.332 1.98-.887 2.934-2.157 3.738l-.972.614v2.02c0 1.968-.02 2.034-.754 2.651-.418.352-1.254.891-1.863 1.204-2.102 1.074-2.301 1.433-2.887 5.175-.496 3.203-.969 4.496-2.098 5.75-1.054 1.176-1.754 1.489-4.074 1.828-1.352.196-5.05-.437-8.312-1.425-7.57-2.297-11.32-5.309-14.38-11.563-1.577-3.219-3.566-5.902-6.597-8.898-2.887-2.856-5.48-4.64-9.59-6.606-3.605-1.726-5.887-2.46-12.555-4.054-7.488-1.786-7.488-1.786-12.742-1.79-7.027-.003-8.101.395-9.633 3.575-1.039 2.16-1.078 3.394-.105 3.281 1.066-.121 4.594.406 8.535 1.277 2.117.47 6.645 1.453 10.067 2.184 6.046 1.297 13.296 3.187 17.94 4.687 5.942 1.914 13.274 6.407 14.58 8.93.335.649.335.758.003 1.09-.418.418-.145.562-7.969-4.191-4.812-2.922-8.094-4.383-14.484-6.446-10.84-3.504-14.953-4.383-24.313-5.187-1.636-.14-3.46-.422-4.058-.621-.645-.22-1.41-.309-1.883-.223-1.379.262-3.64 1.984-5.023 3.832-1.579 2.113-5.657 8.879-5.657 9.39 0 .075.164.133.364.133.195 0 2.71.747 5.59 1.665 5.16 1.64 5.3 1.671 10.874 2.296 3.11.348 7.493.95 9.739 1.34 2.25.39 7.656 1.309 12.02 2.04 4.366.73 10.37 1.808 13.343 2.398a593.64 593.64 0 0011.707 2.148c7.176 1.227 9.82 1.832 12.144 2.778 1.86.757 6.122 3.453 8.97 5.675 5.323 4.153 6.898 5.367 8.773 6.774 3.316 2.488 6.07 4.922 7.86 6.949 2.745 3.117 5.878 9.086 7.737 14.742 1.121 3.414 1.243 4.7 1.504 15.977.219 9.425.2 11.453-.144 15.746-.528 6.566-.77 7.566-2.461 10.031-.746 1.09-1.602 2.211-1.903 2.496l-.546.512-1.625-.649c-.895-.359-1.899-.84-2.235-1.074-1.187-.816-1.191-.812-.836.52 1.168 4.433 1.324 9.523.387 12.695-.695 2.363-1.145 3.113-1.867 3.113-.828 0-1.64-.953-3.223-3.777-.723-1.293-2.121-3.54-3.101-4.984-1.907-2.813-3-4.97-3.965-7.832-.692-2.051-.43-1.903-4.598-2.625-3.476-.606-9.828-1.102-13.582-1.063-5.312.05-6.277.781-4.832 3.652 1.594 3.157 4.547 5.598 11.441 9.47 10.93 6.132 13.106 7.519 13.106 8.35 0 .716-.676.782-4.863.477-3.942-.289-8.852-.183-13.051.27-2.43.262-5.168 1.07-5.168 1.523 0 .164.242.524.543.793 2.183 2 5.887 2.18 16.39.797 5.829-.766 7.434-.863 8.383-.504 1.485.563.973 1.738-3.074 7.106-1.695 2.246-3.39 4.734-3.766 5.53-1.074 2.27-.855 4.235.637 5.712 1.352 1.34 3.813.558 5.746-1.828 1.098-1.356 1.418-2.035 2.625-5.606 1.067-3.148 1.723-4.418 3.078-5.965.926-1.054 2.465-1.886 3.11-1.68.703.223.797 1.075.383 3.536-.204 1.226-.543 4.121-.754 6.433-.528 5.797-.953 8.266-1.832 10.692-1.09 3.012-2.246 4.59-5.098 6.945-1.348 1.113-2.828 2.422-3.29 2.906l-.843.88.602.452c1.191.899 2.425 1.047 7.363.88 4.223-.141 4.687-.118 4.828.245.082.22-.027 1.274-.25 2.34-.223 1.07-.402 2.598-.402 3.395.004 2.219.691 2.906 3.488 3.476.793.16 1.645.47 1.895.688.562.488 1.109 1.742 1.109 2.543 0 .875-.527.558-1.09-.652-.492-1.06-.668-1.153-3.406-1.852-1.242-.316-2.43-1.281-2.867-2.328-.438-1.047-.414-3.09.054-5.156.211-.93.348-1.72.301-1.758-.047-.04-.95.027-2.008.152-1.058.121-3.168.188-4.687.145-2.38-.067-2.93-.16-3.953-.676-.657-.328-1.41-.899-1.676-1.266-.477-.656-.477-.68-.031-1.508.25-.464 1.797-1.984 3.437-3.382 1.645-1.399 3.324-3.02 3.735-3.606 1.761-2.496 2.578-5.45 3.285-11.879.28-2.574.734-6.015 1-7.648.27-1.63.43-3.024.36-3.094-.188-.187-1.192.512-2.052 1.43-1.02 1.09-2.039 3.097-2.66 5.234-1.238 4.274-3.324 7.344-5.836 8.602-3.137 1.562-5.949-.625-5.949-4.633 0-1.234.148-1.793.836-3.156.46-.91 1.25-2.196 1.758-2.856 4.097-5.332 5.597-7.41 5.515-7.652-.168-.516-2.543-.434-8.68.308-9.09 1.094-12.792.961-15.386-.558-1.203-.707-1.594-1.235-1.594-2.172 0-1.266 2.746-2.121 8.2-2.559 3.59-.285 12.527-.195 13.574.141 1.027.332-1.04-1.11-3.723-2.598-11.273-6.238-14.926-8.582-17.207-11.047-1.484-1.601-3.246-4.57-3.246-5.468 0-.887.562-1.957 1.203-2.29 1.855-.96 5.816-1.109 13.043-.492 3.73.317 8.77 1.118 9.367 1.485.11.07.121-.344.027-.914-.093-.57-.175-1.867-.183-2.875-.024-2.926.86-3.418 4.262-2.367 1.91.59 3.918 2.03 5.699 4.097 2.332 2.703 3.902 4.094 5.57 4.934.899.453 1.781.82 1.969.82.46 0 1.941-1.672 2.566-2.898 1.43-2.801 1.852-9.426 1.461-23.008-.152-5.402-.387-10.793-.52-11.973-.683-6.086-4.492-14.898-8.187-18.941-2.898-3.164-16.523-14.219-20.144-16.34-.801-.469-1.918-.977-2.485-1.125-.566-.145-2.383-.688-4.039-1.203-3.445-1.074-9.512-2.574-13.996-3.461-3.226-.64-7.77-1.16-13.766-1.582-9.527-.664-16.964-2.117-30.054-5.871-2.906-.832-6.043-1.59-6.969-1.684-3.66-.36-7.855-1.105-8.727-1.55-.503-.258-1.042-.747-1.199-1.087-.258-.562-.414-.62-1.636-.62-.86 0-2.125.257-3.489.714-3.472 1.164-5.293 2.203-11.156 6.371-6.523 4.64-13.496 8.703-23.945 13.95-4.047 2.03-8.36 4.363-9.582 5.183-7.172 4.797-9.442 9.195-11.41 22.098-.86 5.629-1.094 8.777-1.243 16.707-.199 10.687-1.074 19.73-2.746 28.422-1.355 7.035-1.422 9.472-.46 17.007.55 4.333.59 8.524.1 11.094-.198 1.04-.796 3.403-1.327 5.254-2.66 9.25-2.797 14.418-.57 21.672 1.89 6.156 1.882 6.125 1.874 10.418-.007 3.426-.113 4.555-.796 8.293-.739 4.031-.786 4.59-.676 8.172.09 3.039.265 4.582.84 7.332.832 3.965 1.277 6.914 1.984 13.101.871 7.653 1.64 12.079 2.375 13.684.68 1.484 5.227 7.84 7.66 10.703 1.656 1.945 3.79 5.184 4.727 7.172.386.82.781 1.492.87 1.492.09 0 .24-.554.329-1.234.262-1.957 1.414-6.176 3.14-11.504 1.88-5.781 2.551-8.45 3.368-13.348.535-3.195.601-4.297.601-9.847-.004-8.293-.343-14.309-1.078-18.993-.879-5.601-2.855-15.8-4.23-21.836a600.402 600.402 0 01-1.926-8.773c-.398-1.937-1.309-5.848-2.02-8.691-2.918-11.688-3.675-17.02-3.976-28.004-.11-3.969-.313-7.739-.453-8.387-.953-4.379-1.586-16.555-1.242-23.887.367-7.91.863-11.379 2.453-17.125.8-2.89 1.254-3.644 2.257-3.75.954-.101 1.465.426 1.813 1.871.383 1.586.18 3.418-.836 7.551-1.934 7.89-2.262 11.668-2.324 26.778l-.043 11.18.773 4.206c.938 5.098 3.442 16.043 5.059 22.114 2.992 11.234 6.265 25.238 7.101 30.41 1.043 6.425 1.305 9.101 1.586 16.148.414 10.59.145 16.223-1.25 25.918-1.242 8.602-1.714 10.645-4.668 20.07-.847 2.711-1.816 6.063-2.148 7.454-1.11 4.62-2.055 12.613-2.059 17.367 0 1.453-.074 1.863-.343 1.863-.66 0-.93-2.457-.746-6.73.097-2.184.168-4.508.156-5.168a16.11 16.11 0 01.219-2.512l.234-1.309-1.238-1.937c-2.547-3.992-3.36-5.125-5.47-7.64-2.823-3.368-6.175-8.079-7.14-10.04-1.289-2.621-2.219-6.012-3.344-12.168-1.195-6.523-1.8-10.789-1.8-12.629 0-.668-.227-2.91-.504-4.976-.688-5.133-.559-10.348.37-14.817.778-3.746 1.083-9.367.634-11.656-.157-.793-.762-3.016-1.348-4.934-1.539-5.058-1.887-7.109-1.875-11.054.016-3.72.652-7.57 2.02-12.172 1.515-5.094 1.738-6.363 1.738-9.946.004-2.128-.188-4.757-.516-7.16-.87-6.343-.715-9.93.774-17.84 1.328-7.042 2.218-16.8 2.422-26.511.16-7.824.562-12.543 1.585-18.738 1.887-11.41 4.02-15.723 10.024-20.25 2.164-1.63 4.031-2.672 11.48-6.415 4.895-2.457 10.196-5.171 11.782-6.03 5.433-2.938 13.535-7.954 15.027-9.305.977-.883 4.348-2.942 6.27-3.829 2.234-1.027 3.96-1.527 6.09-1.765 1.644-.18 1.66-.188 1.968-1.078.43-1.243 3.793-6.989 5.05-8.63 1.454-1.89 3.212-3.406 4.735-4.077l1.305-.575-.016-1.203c-.011-.879.2-1.672.782-2.926 1.445-3.125 3.07-4.113 7.175-4.37l2.543-.16 1.653-2.16c1.867-2.45 4.687-7.802 6.37-12.095 1.18-3.011 1.66-4.554 2.595-8.34.55-2.234.789-3.664 2.05-12.378.555-3.856.582-6.528.114-12.5-.817-10.473-.301-13.59 3.492-21.157 3.582-7.136 7.18-10.93 13.097-13.812 5.473-2.66 11.27-3.965 18.477-4.153 4.7-.125 11.441.223 15.184.786 2.859.43 5.785 1.367 8.293 2.656 2.644 1.36 3.484 2.074 5.68 4.832 1.964 2.469 3.788 3.848 6.464 4.887 5.86 2.28 8.723 3.73 9.766 4.949.215.254.992 1.433 1.73 2.62 2.649 4.29 4.477 5.802 8.715 7.216 4.672 1.562 4.656 1.554 5.063 2.336.37.718.351 1.761-.075 4.226l-.136.797 1.37-.875c2.157-1.379 8.782-4.547 10.989-5.258 1.105-.355 2.762-.808 3.687-1.007 2.317-.504 8.575-.704 11.61-.372 3.262.356 8.945 1.485 12.152 2.41 1.418.41 2.985.747 3.48.747 1.63 0 3.657-.703 7.958-2.754 4.773-2.274 5.382-2.477 8.086-2.688 2.304-.18 3.738.09 6.714 1.27 3.34 1.324 4.797 2.328 8.145 5.597 3.293 3.223 7.523 8.52 12.293 15.399 2.969 4.281 4.152 6.508 5.3 9.941 1.56 4.672 2.481 12.485 2.204 18.664-.152 3.297-.531 4.895-1.684 7.07-2.144 4.055-9.828 9.133-11.414 7.548-.953-.957.278-3.442 4.297-8.657 2.57-3.336 3.074-4.718 3.707-10.187.77-6.633.574-9.188-.98-12.887-.543-1.293-3.387-6.52-4.563-8.387-.297-.472-1.098-1.968-1.777-3.324-2.809-5.594-5.223-9-9.383-13.238-3.086-3.145-4.223-3.695-8.781-4.262-3.606-.45-8.383-.558-9.703-.222-1.22.308-.86-.344.468-.856 2.028-.777 10.559-.293 13.625.773.692.243 1.262.395 1.262.34 0-.183-3.238-1.722-5.05-2.398-1.47-.55-2.18-.672-3.844-.664-2.633.012-3.45.25-7.875 2.262-2.012.917-4.5 1.906-5.528 2.195l-1.867.527 2.043 1.383c3.328 2.25 5.242 3.996 9.492 8.652 7.262 7.957 8.578 10.227 10.25 17.672 1.301 5.778 2.16 7.719 5.559 12.543 3.226 4.586 3.992 6.762 4.203 11.988.187 4.73-.219 6.954-2.098 11.489-.293.699-.168.996 3.07 7.332 2.196 4.297 3.946 8.105 5.012 10.914 1.102 2.902 1.973 4.785 2.664 5.77 4.5 6.374 6.66 11.124 10.664 23.449 1.352 4.168 3.375 9.953 4.493 12.863 1.117 2.906 3.168 8.316 4.554 12.02 1.387 3.699 2.989 7.863 3.559 9.253 1.023 2.493 9.629 21.243 12.746 27.762 4.086 8.543 6.039 13.36 8.457 20.848.71 2.21 2.863 7.918 4.781 12.683 1.918 4.766 4.309 11.121 5.309 14.117 1.004 3 2.09 6.055 2.418 6.79 1.57 3.515 4.449 10.574 6.574 16.117a1383.42 1383.42 0 0010.754 27.16c3.812 9.355 6.293 16.953 8.21 25.121 2.825 12.035 3.294 15.46 2.27 16.492-1.218 1.215-2.984-.262-4.757-3.973-2.36-4.945-3.356-7.93-8.192-24.539-1.383-4.757-3.066-10.437-3.742-12.62-.672-2.18-2.45-8.778-3.953-14.66-3.375-13.223-4.629-17.61-6.047-21.153-1.879-4.695-8.016-18.742-11.555-26.445-4.472-9.739-4.601-10.036-7.16-16.708-2.05-5.351-8.437-21.203-12.738-31.609-1.008-2.445-2.844-7.367-4.078-10.937-3.754-10.856-5.711-16.258-8.61-23.797-1.527-3.965-3.492-9.285-4.363-11.82-2.09-6.07-4.375-11.544-8.652-20.712-1.93-4.144-3.508-7.605-3.508-7.699 0-.09-.344-.578-.762-1.082-.527-.644-.668-.972-.472-1.097.488-.301-1.715-5.813-4.895-12.23l-2.937-5.934-.672 1.32c-1.563 3.097-4.18 6.277-9.387 11.418-4.324 4.265-5.164 5.469-5.793 8.281-.34 1.531-.559 1.961-1.504 2.98-2.496 2.68-5.715 3.043-7.726.872l-.844-.914.187 2.562c.453 6.125 2.297 10.848 7.067 18.094 3.214 4.879 6.464 7.851 13.39 12.234 7.008 4.438 9.668 6.41 12.793 9.496 4.39 4.332 7.578 10.27 11.23 20.914 3.051 8.895 5.2 17.012 6.426 24.278.422 2.511 1.036 5.324 1.364 6.25 1.926 5.476 4.023 11.949 4.75 14.664.46 1.719 1.332 4.96 1.941 7.21 1.25 4.641 2.676 11.684 4.453 21.993.672 3.902 1.59 9.039 2.035 11.418 1.254 6.66 1.817 11.117 2.805 22.238.395 4.434.125 21.781-.383 24.637-.96 5.418-2.101 7.2-6.027 9.402-.578.324-.555.742.277 4.903 1.782 8.949 6.125 24.273 8.524 30.09.387.937.703 1.85.703 2.03 0 .563-.43.364-1.09-.503zm50.042-25.489c-2.117-9.12-3.652-14.886-5.453-20.527-1.824-5.7-2.813-8.27-7.324-19.016a437.065 437.065 0 01-3.727-9.253c-2.976-7.676-3.566-9.153-3.582-8.95-.023.286 3.75 15.293 4.7 18.684.46 1.652 1.581 5.387 2.491 8.293.91 2.91 2.262 7.453 3.008 10.098 1.29 4.578 2.442 8.37 4.828 15.863 1.426 4.488 3.57 8.906 4.817 9.937l.937.774.07-1.149c.044-.695-.261-2.57-.765-4.754zm-197.91-2.62c.71-1.071 2.183-3.516 3.281-5.434 2.352-4.114 4.996-8.36 5.984-9.606.387-.488 2.036-1.82 3.66-2.953 2.926-2.047 5.844-4.465 5.637-4.672-.308-.308-4.504 2.375-5.668 3.625-.32.344-.714.625-.875.625-.73 0-7.683 8.211-10.214 12.059-2.235 3.394-3.832 6.855-3.832 8.289 0 .535.05.582.367.32.207-.172.953-1.183 1.66-2.254zm-2.059-3.5c1.27-1.653 3.5-4.426 4.957-6.165a1252.12 1252.12 0 004.672-5.61c1.113-1.343 2.64-3.007 3.39-3.69 1.466-1.344 5.638-3.934 7.516-4.672l1.153-.45-3.785-1.398c-2.774-1.023-3.817-1.313-3.895-1.086-.187.57-1.32 1.461-4.723 3.73-1.851 1.231-4.394 3.141-5.652 4.235-2.582 2.25-4.133 3.414-5.887 4.414-.996.566-5.109 4.078-6.972 5.95-.813.816 1.496-.571 6.73-4.04 2.645-1.75 6.215-4.098 7.934-5.21 1.722-1.118 4.629-3.145 6.465-4.505 3.367-2.496 4.687-3.383 5.015-3.386.102 0 .184.199.184.449 0 .484-3.176 3.504-8.418 8.004-4.074 3.5-10.242 9.785-12.207 12.437-.824 1.11-1.496 2.121-1.496 2.25 0 .281 1.781-1.113 3.605-2.82.73-.684 1.54-1.395 1.801-1.586.473-.344.473-.34.012.375-1.145 1.785-2.637 4.418-3.051 5.383-.66 1.531-.137 1.015 2.652-2.61zm-12.226-7.231c4.965-1.36 6.855-2.387 9.742-5.305l2.394-2.414-2.043 1.238c-1.125.68-4.27 2.356-6.992 3.727-6.207 3.129-6.98 3.816-3.101 2.754zm11.898-5.52c.574-.398 2.078-1.68 3.336-2.847 1.262-1.168 3.133-2.7 4.164-3.403 1.945-1.324 2.887-2.093 1.633-1.332-1.379.836-5.426 3.774-6.797 4.93-3.555 3.004-4.644 4.242-2.336 2.652zm13.332-11.062c.008-.13-1.508-.762-1.539-.645-.008.035-.773.848-1.7 1.809L178.45 316l2.453-1.39c1.352-.766 2.461-1.45 2.465-1.52zm44.301-7.516c2.039-1.98 3.375-6.523 2.477-8.418-1.168-2.457-4.75-4.355-10.536-5.578l-2.613-.555-1.242.504c-1.48.598-3.441 1.84-4.227 2.672-.78.836-.539 1.586.75 2.309.567.32 1.54 1.05 2.157 1.629 1.308 1.222 1.703 2.476 1.476 4.675-.129 1.235-.086 1.403.5 1.989l.64.64 3.2-.168 3.2-.171.82.746c1.199 1.09 2.07 1.02 3.398-.274zM5.145 304.88c-.075-.192-.133-.137-.145.144-.008.254.047.395.129.317.078-.082.086-.29.016-.461zm27.02-15.34c-.142-3.504-.368-7.344-.505-8.535-.73-6.496-2.66-15.668-6.281-29.926-3.36-13.238-4.031-15.96-4.918-19.953-.773-3.484-.945-4.023-1.008-3.137-.113 1.547.617 8.278 1.29 11.95.32 1.738 1.187 5.687 1.921 8.773a669.747 669.747 0 011.953 8.375c.336 1.523 1.242 5.578 2.016 9.016 3.543 15.785 5.297 26.859 5.566 35.093.031.926.094.118.137-1.8.047-1.918-.031-6.352-.172-9.856zm174.491-27.523c-.117-1.192-.238-5.051-.273-8.582-.031-3.528-.133-6.489-.219-6.579-.254-.25-1.113 1.317-1.637 2.985-.922 2.957-.418 7.957 1.22 12.066.284.723.62 1.57.741 1.887.356.914.39.531.168-1.777zm129.242-17.442c-1.527-3.762-3.785-9.812-5.015-13.449-3.14-9.258-4.059-11.508-8.656-21.152a967.075 967.075 0 01-5.891-12.688c-1.758-3.87-3.238-6.996-3.29-6.95-.097.102 2.735 7.313 4.13 10.505.492 1.12 2.62 6.262 4.734 11.418a1368.14 1368.14 0 018.461 21.031c1.285 3.254 8.106 18.324 8.234 18.195.04-.039-1.18-3.148-2.707-6.91zM173.004 220.29c.851-2.629.957-6.2.297-10.059-.278-1.64-.703-3.316-.942-3.722l-.43-.742-3.714-.028c-2.043-.015-4.074-.144-4.516-.289-.773-.254-.8-.242-.668.293.418 1.656 2.133 5.13 3.668 7.422.961 1.434 2.516 4.066 3.461 5.852.95 1.804 1.836 3.203 1.988 3.152.153-.05.54-.895.856-1.879zm-2.063-15.559l.907-.167-2.23-2.329c-1.77-1.843-2.552-2.476-3.794-3.047-2.012-.93-3.715-1.203-3.933-.636-.188.5.254 4.586.562 5.164.203.375 1.375.719 3.613 1.055 1.047.156 3.934.132 4.875-.04zM18.195 191.21c.52-4.187.989-6.57 2.207-11.284.668-2.578 1.274-5.453 1.344-6.39.195-2.571-.496-4.169-1.355-3.134-.286.344-1.47 4.942-1.922 7.48-.836 4.634-1.328 14.138-1.047 20.192l.176 3.848.156-4.223c.09-2.32.285-5.242.441-6.488zm241.293 3.477c1.965-.632 6.567-2.613 7.227-3.105.246-.184-1.121.262-3.04.988-4.054 1.547-7.038 2.746-7.21 2.907-.176.168 1.098-.165 3.023-.79zm16.903-8.468c1.105-.739 2.785-2.086 3.726-2.992l1.711-1.645-2.262 1.14c-2.593 1.305-5.37 3.31-7.113 5.13l-1.203 1.257 1.563-.773c.859-.426 2.468-1.375 3.578-2.117zm18.293-45.742c-1.461-3.973-5.407-12.188-5.707-11.887-.043.043.933 2.226 2.171 4.855 1.239 2.625 2.672 5.77 3.184 6.989.516 1.222.973 2.183 1.016 2.14.043-.047-.254-.988-.664-2.097zm-143.618-8.356c-.695-.77-3.59-1.941-6.312-2.559-3.238-.73-10.649-1.894-10.844-1.703-.078.079.067.145.32.145.891 0 10.356 2.394 13.684 3.46 1.852.595 3.41 1.087 3.461 1.095.055.007-.082-.192-.309-.438zm-17.636-4.516a.884.884 0 00-.602 0c-.168.067-.031.122.3.122.329 0 .466-.055.302-.122zm-1.203-.242a.933.933 0 00-.602 0c-.164.067-.031.121.3.121.333 0 .466-.054.302-.12zm-1.329-.226c-.078-.078-.285-.09-.46-.02-.192.078-.133.133.144.145.254.011.398-.047.316-.125zm124.555-.196c.36-.187 1.05-.754 1.543-1.261.738-.762.957-1.235 1.27-2.727.66-3.18 1.246-4.078 5.168-7.937 6.609-6.496 8.824-9.32 11.203-14.262 1.957-4.07 2.355-5.781 2.355-10.129 0-5.379-.719-7.586-3.937-12.14-3.383-4.782-4.5-7.239-5.637-12.38-1.629-7.378-2.844-9.64-8.719-16.226-9.156-10.27-12.168-12.094-24.082-14.586-4.101-.86-4.402-.887-9.406-.902-6.781-.02-9.027.476-14.906 3.289-1.653.789-3.274 1.539-3.598 1.664-.328.125-2.262 1.222-4.3 2.437-6.098 3.633-7.145 4.973-9.657 12.336-1.137 3.332-2.758 9.188-2.59 9.356.043.043.828-.133 1.75-.391 1.903-.527 5.211-.617 7.469-.2 4.137.763 9.254 4.458 13.469 9.735 2.05 2.57 2.511 3.051 5.98 6.227 3.024 2.77 4.793 4.906 6.914 8.36 3.215 5.234 7.324 8.347 11.008 8.347.879 0 1.672-.274 3.629-1.262 2.332-1.176 2.617-1.262 4.184-1.242 3.171.031 5.43 1.383 7.027 4.207 1.5 2.644 1.547 4.562.293 12.36-1.051 6.534-1.25 8.706-1.153 12.374.102 3.617.329 4.301 1.672 4.989.774.402 2.254.382 3.051-.036zm-129.66-.773c-3.625-.727-17.34-3.18-26.684-4.773-3.859-.657-9.062-1.36-9.18-1.243-.046.047 1.352.473 3.106.953 12.406 3.391 16.563 4.145 28.07 5.11 2.579.219 5.34.476 6.133.582 3.008.387 2.504.164-1.445-.629zm36.078-.824c.438-.422.906-1.051 1.043-1.399.281-.707 1.098-4.007 1.332-5.367.379-2.203 1.676-3.973 3.621-4.945 1.488-.746 1.754-1.172 1.844-2.977l.082-1.605-.844-.38c-.98-.444-3.793-2.905-3.574-3.128.082-.086 1.277.445 2.66 1.176l2.508 1.328.762-.785c.605-.625.84-1.172 1.148-2.7.215-1.054.543-2.16.73-2.457.555-.87 1.747-1.343 3.34-1.32 2.184.031 4.961-.586 5.5-1.219.383-.453.43-.793.313-2.332-.078-.992-.324-2.558-.55-3.484-.29-1.191-.419-2.777-.43-5.41-.024-3.52.011-3.809.613-5.207.926-2.16 1.933-3.504 3.804-5.067l1.653-1.382.023-2.528c.067-6.66 1.23-12.316 4.153-20.191 1.527-4.117 3.304-7.602 4.636-9.082l1.04-1.156-1.688.43c-3.664.929-5.32.82-11.012-.712-4.187-1.129-8.406-.777-11.07.918-1.758 1.117-7.406 7.055-9.258 9.723-4.004 5.781-8.852 9.406-11.918 8.918-2.254-.36-4.156-2.047-5.035-4.465-.488-1.336-.492-1.34-1.402-1.25-.633.059-1.45-.144-2.665-.66-4.37-1.86-8.714-1.465-11.488 1.043-1.37 1.234-1.949 2.766-2.242 5.93-.297 3.14-.05 5.195.906 7.617 1.543 3.902 3.383 5.176 8.25 5.71 1.82.2 2.645.47 2.645.864 0 .203-.703.246-2.582.152-2.871-.14-4.317-.574-6.168-1.847-1.54-1.059-2.38-2.297-3.29-4.848l-.773-2.148-.547 1.343c-.812 2.008-1.68 3.176-2.941 3.973-2.39 1.52-5.715 2.039-9.688 1.52-2.183-.286-9.5-1.708-10.496-2.04-.199-.066-.59.762-1.148 2.422-1.324 3.95-4.309 9.801-6.563 12.864l-1.945 2.64 2.938.156c2.84.153 5.828.696 9.062 1.653.86.25 2.996.781 4.746 1.176 1.75.394 4.184 1.113 5.41 1.601 3.141 1.242 7.614 3.555 9.32 4.809.794.586 1.489 1.062 1.548 1.062.054 0-.418-1.11-1.059-2.46-1.902-4.048-2.898-7.274-1.945-6.298.12.125.808 1.547 1.53 3.165 1.935 4.332 3.774 7.43 6 10.085 2.575 3.079 3.735 4.903 5.134 8.094 1.336 3.043 2.379 4.324 5.015 6.145 2.243 1.55 5.063 2.886 8.47 4.02 3.198 1.062 4.605 1.28 7.495 1.171 2.16-.086 2.29-.121 3.047-.86zm-85.601-8.375c-1.06-.367-2.305-.739-2.766-.832l-.84-.164.492.492c.496.496 2.965 1.164 4.313 1.164.511 0 .156-.192-1.2-.66zm58.78.336c0-.203-1.859-1.813-3.187-2.754-2.36-1.672-5.82-3.594-8.46-4.7-2.438-1.019-10.122-3.496-10.782-3.472-.16.004 1.496.648 3.676 1.433 5.914 2.13 10.34 4.418 17.914 9.282.508.328.84.41.84.21zm153.204-24.223c3.691-2.64 5.773-5.832 6.191-9.488.305-2.692-.101-11.035-.707-14.38-1.347-7.48-2.816-10.417-10.168-20.355-1.988-2.691-2.574-3.316-1.457-1.562.36.558 1.367 2.371 2.242 4.023.872 1.653 2.696 4.914 4.047 7.246 4.055 6.993 4.774 9.29 4.5 14.391-.308 5.727-.953 9.535-1.992 11.742-.332.707-1.543 2.547-2.691 4.086-2.262 3.04-3.864 5.524-3.864 5.988 0 .48 2.196-.476 3.899-1.691zm-165.59-18.66c.79-.285 1.8-.863 2.246-1.293 2.25-2.156 3.469-7.078 3.344-13.516-.05-2.586.004-3 .496-4 .703-1.43 2.598-3.203 4.203-3.937 2.934-1.344 6.484-1.746 8.711-.996 2.39.808 5.629 3.82 5.64 5.25.016 1.636 1.762 4.508 3.282 5.394 3.418 2.004 7.992-.918 13.094-8.367 1.824-2.66 6.566-7.84 8.449-9.227 3.703-2.726 7.902-3.062 14.613-1.171 1.653.464 3.602.902 4.328.972 1.762.176 7.34-.87 8.72-1.633 1.194-.66 1.55-1.5 1.78-4.187.172-2.059.403-1.863-3.41-2.863-1.32-.348-3.105-.973-3.965-1.387-2.168-1.047-4.992-3.938-6.73-6.887-.844-1.43-1.672-2.504-2.285-2.96-1.262-.946-4.2-2.313-7.332-3.419-4.2-1.484-6.078-2.843-8.868-6.422-1.492-1.914-2.492-2.742-4.597-3.8-4.356-2.196-7.559-2.809-17.551-3.364-5.5-.304-8.45-.097-13.715.961-11.097 2.23-17.02 6.637-21.808 16.227-3.586 7.18-4.098 10.379-3.305 20.555.586 7.52.508 8.808-1.078 17.789-.41 2.312-1.067 5.535-1.457 7.156-.39 1.625-.711 3.156-.711 3.398 0 .461 1.289.77 7.574 1.805 1.188.195 2.434.406 2.766.469.328.062 1.843.082 3.363.043 2.086-.055 3.121-.2 4.203-.59zm9.68-18.492c2.867-1.84 7.336-1.942 11.094-.25 1.742.78 2.914.906 2.914.304 0-.632-2.73-3.109-4.247-3.851-1.187-.586-1.68-.688-3.207-.668-4.941.062-9.378 3.023-9.378 6.262v.894l.835-.976c.461-.54 1.356-1.31 1.989-1.715zm146-14.063c0-.043-.297-.34-.66-.66l-.664-.582.585.66c.543.617.739.774.739.582zm68.879 305.028c-1.508-.477-2.243-.93-4.68-2.887-2.813-2.262-4.23-2.86-6.86-2.883-2.374-.023-3.64.496-5.503 2.254-1.157 1.094-1.457 1.25-2.825 1.465-3.238.511-6.882 1.242-8.406 1.683-1.8.524-3.187.61-3.047.184.215-.645 5.348-1.941 11.211-2.836 1.336-.203 1.676-.371 2.715-1.34 1.73-1.617 3.5-2.36 5.606-2.344 3 .024 4.543.711 8.543 3.793 3.296 2.54 5.05 2.797 9.18 1.336 3.792-1.34 3.804-1.347 3.804-2.36 0-1.175-.895-4.464-2.27-8.35-1.132-3.196-5.41-16.77-8.07-25.602-.816-2.707-2.492-8.008-3.723-11.778-1.234-3.765-3.285-10.421-4.562-14.78-2.75-9.419-5.719-18.833-8.207-26.028-3.61-10.43-9.473-29.492-13.586-44.164-5.035-17.965-10.031-32.735-15.973-47.235-1.543-3.77-3.754-9.34-4.91-12.382a254.458 254.458 0 00-4.566-11.043 426.42 426.42 0 01-4.34-10.098c-1.031-2.52-2.473-6.004-3.2-7.742-.726-1.742-1.261-3.23-1.183-3.309.281-.277.54-.129.54.317 0 .625 6.218 15.722 8.753 21.254 1.14 2.488 2.95 6.761 4.027 9.496 1.075 2.734 2.926 7.351 4.114 10.261 6.812 16.668 11.656 30.371 15.761 44.59 7.707 26.672 9.348 32.047 14.461 47.356 5.04 15.097 6.336 19.172 9.364 29.476 1.328 4.512 3.488 11.488 4.8 15.504 1.317 4.016 2.895 8.977 3.508 11.027 1.957 6.524 5.133 16.504 7.371 23.137 2.512 7.442 3.266 10.578 2.739 11.38-.22.335-1.29.862-3.055 1.503-4.219 1.531-5.625 1.746-7.531 1.145zm-191.684-26.852c-1.445-.348-3.82-2.043-5.129-3.664-.61-.758-1.738-2.59-2.504-4.07-1.332-2.57-4.16-7.223-6.61-10.872-1.265-1.882-4.085-7.585-5.648-11.417-.566-1.387-1.785-4.852-2.71-7.692-1.446-4.441-1.961-6.543-3.641-14.906-1.078-5.352-2.55-12.113-3.27-15.024-2.527-10.222-3.804-18.898-4.66-31.609-.89-13.312-.87-17.887.113-23.316 1.137-6.305 4.348-11.426 5.688-9.075.437.774.36 7.059-.133 10.586-.637 4.551-1 12.836-.988 22.528.012 8.097.082 9.66.68 15.383.746 7.132 1.562 12.41 3.18 20.554 2.718 13.711 6.308 25.074 12.073 38.219 6.254 14.27 8.59 18.785 10.723 20.75 1.824 1.68 2.797 2.05 5.707 2.16 4.5.172 9.965-1.36 16.297-4.562 2.04-1.036 3.852-1.883 4.023-1.883.59 0 .325.683-.539 1.394-2.578 2.125-8.308 4.746-13.086 5.989-2.582.668-7.77.957-9.566.527zm-13.98-21.07c-3.653-8-6.465-15.43-8.786-23.215-.714-2.403-1.308-4.25-1.316-4.11-.035.653 2.941 11.832 3.836 14.407 1.234 3.562 3.363 8.789 4.5 11.047.781 1.554 3.14 5.418 3.309 5.418.039 0-.657-1.598-1.543-3.547zm-15.153-52.328c-.62-4.086-1.355-11.961-1.703-18.282-.363-6.695.281-22.3 1.215-29.304.285-2.125.477-4.954.477-6.95v-3.363l-.5.453c-.707.637-2.266 4.012-2.723 5.883-.793 3.266-1.094 6.547-1.098 11.887 0 5.27.606 15.777 1.328 23.074.54 5.39 3.078 20.312 3.403 19.984.054-.054-.121-1.578-.399-3.382zM308.48 309.66c-1.574-1.367-5.02-3.488-5.265-3.242-.059.059 1.09.953 2.547 1.988 4.203 2.98 3.894 3.172-.555.34-2.215-1.414-3.238-1.89-5.684-2.656-2.742-.86-3.09-.914-4.328-.703-.738.129-2.699.297-4.351.379-2.934.14-6.883.593-13.942 1.59-3.175.449-5.347.792-11.3 1.8-2.961.5-10.122.707-11.856.344-1.09-.227-1.379-.379-1.316-.691.066-.356.562-.403 4.398-.418 4.59-.016 7.824-.313 11.852-1.075 1.36-.257 2.855-.468 3.324-.468.812 0 .84-.032.695-.7-.242-1.093.293-4.328 1.465-8.886.59-2.297 1.016-4.235.941-4.309-.07-.07-.128-.012-.128.137 0 .633-3.008 4.68-4.614 6.2-3.843 3.644-8.086 4.687-9.101 2.237-.39-.941-.028-2.308 1.468-5.543.657-1.414 1.348-3.199 1.543-3.964.5-1.973.79-5.012.625-6.567-.132-1.258-.175-1.324-.859-1.39-1.3-.118-1.758-.286-2.508-.915-.547-.46-.738-.527-.738-.261 0 .61-1.203 1.843-1.793 1.843-1.328 0-2.648-1.968-3.828-5.718-.504-1.598-.629-2.477-.629-4.387 0-2.129-.055-2.422-.484-2.691-.653-.407-.606-.903.086-.903 1.125 0 1.44.742 1.617 3.797.136 2.336.293 3.145.922 4.774 1.78 4.593 2.91 4.796 3.382.605.207-1.86.602-2.57 1.286-2.309.441.168.488.407.414 2.043-.04.887.074 1.25.59 1.864.773.918 1.44.968 3.511.273 1.906-.64 3.04-1.375 4.262-2.765 1.262-1.438 1.285-2.098.16-4.813-1.059-2.559-1.148-4.219-.262-4.8.493-.321.805-.34 2.04-.118 1.968.356 2.69.688 6.75 3.066 4.91 2.88 6.066 3.204 7.89 2.235 1.25-.668 1.602-.977 2.184-1.934.62-1.02.636-1.742.062-3-.95-2.086-3.644-3.765-6.742-4.203-2.399-.344-3.055-.703-4.813-2.668-1.136-1.27-1.91-1.879-3.109-2.457-1.48-.715-1.617-.848-1.91-1.851-.652-2.235-.93-2.645-1.785-2.637-.434 0-1.598.222-2.59.488-.992.266-2.469.492-3.281.508-2.153.043-2.868-.45-4-2.754-1.059-2.145-1.516-2.398-2.98-1.652-1.794.914-3.5 3.187-4.177 5.566-.464 1.629-.793 1.785-.629.297.168-1.527 1.055-3.375 2.375-4.945l.973-1.16-1.172.59c-1.71.859-2.254.995-2.254.57 0-.38 2.891-2.145 4.97-3.036 1.444-.617 2.214-1.335 1.839-1.71-.297-.297-2.852-.692-4.535-.696-2.446-.012-5.63 1.16-7.488 2.75-1.907 1.633-2.372.969-1.41-2.008a67.21 67.21 0 014.69-11.086c2.22-4.14 5.087-10.207 5.641-11.921.461-1.43.555-3.383.184-3.754-.746-.743-3.504 1.687-5.785 5.093-1.57 2.348-4.414 7.82-5.55 10.688-1.11 2.785-1.86 6.066-2.282 9.984-.383 3.516-.645 4.282-1.336 3.852-.977-.61.058-7.281 2.152-13.82.707-2.211 1.457-5.48 1.457-6.36 0-.754-.566-.586-1.594.469-2.312 2.379-4.105 6.59-5.019 11.789-.473 2.668-.469 8.617 0 11.29.437 2.483.437 2.401.027 2.401-.215 0-.53-.71-.879-1.98-.675-2.445-.918-7.996-.484-11.047.645-4.566 2.266-9.117 4.211-11.844 2.238-3.14 4.7-3.765 4.77-1.215.015.465.054.848.093.848.04 0 .356-.562.703-1.254 2.856-5.633 6.805-10.043 8.996-10.043 1.946 0 2.426 1.98 1.325 5.457-.328 1.032-2.235 5.172-4.239 9.207-3.136 6.309-6.191 13.336-5.914 13.614.047.046.672-.23 1.387-.618 2.14-1.148 3.902-1.558 6.594-1.535 3.789.035 5.41.649 5.41 2.047 0 .656-.961 1.875-1.477 1.875-.511 0-.132.402.575.61.644.19.914.507 1.527 1.773.406.848.988 1.742 1.289 1.984.758.614 2.57.57 5.48-.136 1.31-.317 2.66-.52 3.004-.454.946.18 1.641 1.086 2.09 2.735.406 1.473.422 1.492 1.688 1.965.984.367 1.742.945 3.25 2.476 1.082 1.098 2.23 2.047 2.547 2.11.32.058 1.375.23 2.34.375 4.21.64 7.5 3.629 7.5 6.812 0 3.524-3.895 6.05-7.7 4.992-.465-.129-2.52-1.187-4.566-2.355-4.067-2.313-5.11-2.79-6.703-3.055l-1.059-.176.137.848c.078.465.488 1.637.918 2.61 1.105 2.507 1.152 3.609.222 5.199-.894 1.527-3.023 3.18-5.058 3.918-1.39.507-1.41.53-1.242 1.27.09.413.156 1.944.144 3.398-.023 3.183-.406 4.746-2.074 8.53-1.941 4.391-1.836 5.466.523 5.24 1.528-.15 3.485-1.298 5.418-3.192 1.614-1.578 4.442-5.688 4.961-7.215.23-.664.332-2.219.332-5.047 0-3.879.024-4.086.465-4.086.54 0 .914 1.203 1.367 4.367.372 2.625.059 4.95-1.488 11.04-1.203 4.73-1.8 8.991-1.258 8.991.453 0 2.356-1.52 4.184-3.343 2.418-2.41 3.148-3.836 3.293-6.446.125-2.324-.086-3.293-1.531-6.941-.586-1.484-1.067-2.93-1.067-3.219 0-.972.735-.398 1.317 1.031 1.793 4.426 6.043 9.29 9.625 11.012 1.347.653 2.523.899 2.523.535 0-.086-.34-1.011-.758-2.054-.898-2.25-1.219-2.547-5.453-5.067-4.25-2.527-5.195-3.242-4.851-3.652.226-.277.484-.254 1.593.125 3.817 1.316 10.172 1.305 11.766-.02.445-.37.441-1.27-.008-2.136-.781-1.516-5.074-3.864-10.586-5.793-4.543-1.59-7.812-3.461-7.812-4.465 0-.461.152-.426 1.039.238 1.195.899 2.886 1.668 6.656 3.024 6.434 2.316 10.629 4.746 11.664 6.753.598 1.149.461 2.258-.36 2.95-.722.61-3.378 1.363-4.796 1.363h-.727l1.196 2.39c.656 1.313 1.312 2.462 1.46 2.551.407.254 1.415 2.555 1.418 3.239 0 .992 1.594 3.285 2.747 3.96.562.333 2.52 1.087 4.347 1.676 4.074 1.32 6.203 2.54 8.356 4.782.89.933 1.62 1.78 1.62 1.882 0 .477-.73.06-2.32-1.32zm-27.71-3.898c1.996-.207 4.19-.489 4.87-.625.68-.133 3.184-.336 5.567-.45 5.238-.25 5.516-.324 4.254-1.14-.93-.602-2.453-2.567-2.453-3.16 0-.227-.184-.278-.621-.168-2.02.508-6.07-2.024-9.16-5.723l-.98-1.176.25 1.266c.331 1.672-.06 4.172-.93 5.969-.454.937-1.38 2.07-2.965 3.636-1.266 1.25-2.114 2.2-1.883 2.11.23-.086 2.05-.328 4.05-.54zm9.113-12.746c0-.07-.262-.649-.586-1.282l-.582-1.156-1.98-.277c-1.09-.156-2.012-.25-2.048-.215-.085.086 4.762 3.027 5.016 3.043.098.008.18-.043.18-.113zm-63.11-8.356c-.98-.98-1.543-2.617-1.09-3.168.532-.637.86-.414.86.582 0 1.188.836 2.176 1.844 2.176.375 0 1.246-.285 1.933-.633l1.246-.629 1.168.657c1.036.582 1.368.644 2.895.566 1.559-.082 1.93-.207 3.906-1.344 1.676-.96 2.547-1.305 3.754-1.472.863-.125 1.883-.387 2.266-.586 1.715-.899 4.18-3.579 4.18-4.547 0-.258-.38-1.328-.844-2.38-.461-1.054-.84-2.167-.84-2.472 0-.308.285-1.195.633-1.973 1.25-2.777.761-5.312-1.375-7.144-1.356-1.16-2.782-1.602-5.184-1.602-1.848 0-2.05-.046-2.781-.683-1.227-1.067-1.715-1.238-3.516-1.238-2.82 0-5.691 1.128-6.851 2.695-.434.586-.454.754-.184 1.648.262.88.246 1.047-.14 1.473-.243.27-.872.703-1.4.973-.53.265-1.726 1.011-2.66 1.656-1.843 1.27-2.027 1.344-2.027.832 0-.399 1.707-1.953 3.641-3.309 1.316-.925 1.352-.98 1.23-1.883-.171-1.296.055-2.003.926-2.875 1.485-1.484 4.73-2.636 7.446-2.648 1.48-.004 3.27.559 4.039 1.273.543.508.933.606 2.894.723 1.875.113 2.524.266 3.774.879 3.78 1.863 5.12 5.668 3.355 9.531-.785 1.711-.777 2.04.102 3.899 1.293 2.73.918 4.047-1.871 6.554-1.524 1.372-2.52 1.856-4.446 2.164-1.14.18-2.035.563-3.765 1.606-2.196 1.328-2.332 1.375-4.207 1.45-1.696.07-2.079.003-3.059-.524l-1.121-.602-1.406.578c-1.875.774-2.38.742-3.325-.203zm-18.132-42.48c-3.465-1.91-7.457-5.543-8.555-7.785-1.52-3.106-.402-7.555 2.21-8.82.97-.47 1.477-.544 3.466-.509l2.336.04.168-1.254c.324-2.395 1.484-3.774 3.78-4.497 1.333-.421 2.388.032 4.321 1.844.95.895 1.813 1.516 2.047 1.469.219-.043 1.184-1.05 2.145-2.238 3.492-4.332 6.64-6.895 10.039-8.172 2.175-.82 3.785-.813 4.441.015 1.215 1.547.887 4.247-1.332 11.016-1.844 5.613-2.113 7.453-1.293 8.754.484.773.781.941 3.211 1.836 2.133.781 2.063 2.113-.227 4.203-2.218 2.027-5.507 2.727-8.628 1.836-2.254-.645-3.098-1.32-3.98-3.195-.423-.899-.985-1.868-1.25-2.16-.696-.766-2.712-1.11-5.798-.981-2.375.098-2.672.16-3.07.656-.54.664-.578 1.594-.078 1.785.199.079 1.414.309 2.699.516 2.523.406 3.426.816 3.426 1.563 0 .523-.285.597-.934.25-.234-.125-1.39-.352-2.57-.504-2.719-.352-4.117-.934-4.332-1.797-.223-.875.254-2.324 1.004-3.078.797-.793 1.976-.973 5.613-.84 2.434.086 3.008.183 4.012.699 1.023.523 1.281.82 2.023 2.324 1.164 2.352 1.711 2.864 3.672 3.461 2.05.621 3.914.492 5.82-.41 1.153-.547 3-2.266 3-2.789 0-.106-.586-.363-1.304-.57-1.512-.442-2.649-1.157-3.36-2.118-.422-.566-.504-1.02-.5-2.765.008-1.953.117-2.406 1.774-7.25 1.441-4.223 1.789-5.524 1.89-7.11.157-2.511-.074-2.992-1.453-2.98-1.242.008-3.668 1.016-5.59 2.32-1.656 1.13-5.035 4.575-6.593 6.727-1.22 1.68-2.157 2.351-2.957 2.113-.297-.09-1.188-.785-1.98-1.55-.794-.766-1.68-1.512-1.97-1.657-.824-.422-1.855-.316-2.722.274-1.219.828-1.707 1.66-1.89 3.21-.095.778-.25 1.551-.352 1.715-.13.207-.926.301-2.575.301-2.73 0-4.054.399-4.8 1.445-.676.954-1.278 3.489-1.098 4.625.441 2.766 3.316 5.86 9.215 9.926.523.36.73.836.36.828-.099-.004-.767-.328-1.481-.722zm-5.414-19.176c-.157-.492.046-2.125.816-6.625.633-3.668.633-5.328.012-6.348-.262-.43-.64-.781-.844-.781-.938 0-2.113 3.066-2.879 7.523-.637 3.7-1.055 4.547-1.992 4.047-1.246-.668-2.2-3.257-3.192-8.656-.402-2.195-1.093-5.398-1.539-7.117-1.754-6.774-2.843-8.246-5.082-6.879-.96.586-1.554 1.871-1.867 4.043-.219 1.508-.18 2.14.281 4.574.739 3.887.989 6.059.989 8.598.004 2.629-.395 3.644-2.008 5.125-2.813 2.582-5.828 2.594-7.152.027-.922-1.785-1.157-5.683-.454-7.531.91-2.39 3.668-2.024 6.891.914 1.523 1.394 1.633 2.082.152 1-2.523-1.844-3.46-2.363-4.476-2.477-.961-.109-1.106-.058-1.504.551-.348.528-.441 1.153-.445 2.973-.008 3.586 1.004 5.547 2.863 5.547.988 0 3.137-1.305 4.078-2.477.625-.781.746-1.164.828-2.574.11-1.941-.289-5.672-.941-8.86-.77-3.75-.489-7.3.738-9.28.645-1.044 2.246-1.891 3.578-1.891.969 0 1.176.11 1.969 1.004 1.492 1.68 3.117 6.953 4.55 14.777.669 3.637 1.301 5.937 1.895 6.863.14.215.348-.441.61-1.926.8-4.539 1.425-6.41 2.687-8.066 1.047-1.371 2.45-1.012 3.496.89.559 1.024.328 4.903-.566 9.356-.746 3.719-1.156 4.734-1.492 3.676zm0 0"/></g></svg>