<svg xmlns="http://www.w3.org/2000/svg" width="500" viewBox="0 0 375 375" height="500" version="1.0"><defs><clipPath id="a"><path d="M23 2.91h331v369H23zm0 0"/></clipPath></defs><g clip-path="url(#a)"><path fill="#fff" d="M189.027 346.781c-.289-1.804-1-.25-1.3-1.886-.184-1.016.03-7.649.199-8.399l4.75 23.004c-1.012.21-4.301-3.336-4.66-3.934-.895-1.511-.555-5.808.48-7.175-.203-.45-1.152-.43-.828-1.403.375-1.12.559.059 1.36-.207zm-99.636-192.89c.027.058 1.296 1.68 2.343 1.422.032-1.016-1.953-1.56-2.343-1.422zm-37.852-49.832l-2.762-3.188c-.078.172-.515-.277.164 1.055.434.847 1.54 2.101 2.598 2.133zm73.902-71.668c.782-.11 3.309-1.801 3.989-2.243-.59-.296-1.543.375-2.188.672-.734.344-1.656.77-1.8 1.57zm129.172 107.304c1.672.97 4.746-4.472 3.828-5.48-.503.87-1.343 3.07-2.472 4.433-.68.82-.727.54-1.356 1.047zm-24.398 25.407c-.438-.915-1.563-2.235-2.23-2.922-.528-.54-2.215-2.082-2.9-2.184.122.441 1.977 2.188 2.485 2.793.59.703 1.711 2.79 2.645 2.313zM125.633 97.398c.285-.617.234-.187.031-.789-.258-.742-.14-.257-.262-1.113-.168-1.195-.922-2.781-1.226-3.816l-.606-2.094c-.117.164-.101-.035-.246.387-.324.941.438 2.293.797 3.644.254.95.875 3.094 1.512 3.781zm148.02-22.05c1.468-2.082 1.269-5.98 0-7.805-.528.918.562 3.863.163 6.144-.144.817-.636.88-.164 1.66zm28.75-.407c.413-1.082-1.95-7.093-2.973-7.582.312 1.825 1.3 4.07 1.949 5.868.3.828.234 1.289 1.023 1.714zM106.456 214.88c-.184-.785-1.062-1.266-1.598-1.918-.597-.73-1-1.547-1.472-2.281-.39-.606-.36-.543-.637-1.23a49.62 49.62 0 00-.273-.684c-.176-.383-.243-.391-.332-.582-.301-.649-.536-2.625-.75-3.004l-.137.226c-.047.117-.11.27-.133.399-.203 1.074.238 1.644.395 2.222l1.085 2.903c.54 1.043 2.711 3.578 3.852 3.949zm211.91-115.293c.528-.727.758-1.89 1.235-2.66.734-1.192 2.859-3.02 4.125-3.774.93-.554 1.796-.918 2.652-1.418-.11-.109.258-.582-1.406.188-2.301 1.066-4.45 2.262-5.828 4.52-.442.722-1.247 2.456-.778 3.144zm-88.215 98.07c2.446-.304 5.375-6.156 5.137-8.058-.738.254-2.027 4.336-3.598 6.097-.336.371-1.421 1.676-1.539 1.961zm-99.59-21.64c-.351-.512-2.433-3.547-2.98-3.11.023.133-.344-.324-.008.442.086.203.18.28.313.43 1.62 1.867 3.383 6.382 4.863 6.6-.57-1.327-1.395-3.206-2.188-4.362zm171.352-66.707c1.094.605 1.582.171 2.606-.063 1.132-.266 1.664-.058 2.906-.457 1.46-.465 3.422-1.184 3.71-2.883-.124.035-2.015 1.246-4.245 1.918-1.356.41-3.883.88-4.977 1.485zm-7.187 111.668c.918.27 2.28-.778 3.09-1.211l6.464-2.965c.617-.235 2.985-1.012 3.34-1.258-.703-.684-.86-.148-1.695.082-2.469.691-10.578 4.23-11.2 5.352zm-60.032-82.805c.766-1.149-3.34-4.45-4.246-5.125-.812-.61-1.004-1.543-1.996-1.254.55 1.867 4.625 5.281 6.242 6.379zm-30.879 79.75c1.157.922 4.707-.11 5.942-.777 1.344-.73 3.504-2.083 4.148-3.348-.82.07-1.5.734-2.312 1.234-.758.469-1.692.813-2.438 1.153-2.558 1.168-2.777.89-4.105 1.32-.375.125-.918.277-1.235.418zm25.715 3.59c1.637-.094 2.953-1.367 4.465-1.914 1.34-.48 4.34-.41 5.035-1.258-.71-.528-4.265-.313-5.804.297-.934.37-3.418 2.031-3.696 2.875zm-86.66-93.575c.484-.882.078-2.48.164-3.542.258-3.153 2.8-8.727 2.8-8.73-.8.265-2.745 4.355-3.148 5.507-.468 1.348-1.496 6.047.184 6.766zm4.379 64.06c.527-.415.715-3.099.71-3.735-.01-2.098.47-11.864-.163-13.13-.254.169-.176-.26-.328.555-.031.172-.012.891-.008 1.11.008.758.027 1.508-.043 2.258-.148 1.539-.242 2.742-.242 4.328-.004 1.625-.426 7.496.074 8.613zm-108.28-38.034c.601.836 4.828.781 6.082.683 1.18-.09 4.265-1.03 5.476-1.472 3.364-1.238 4.086-1.352 7.25-3.09l1.938-1.473c-1.02.172-3.555 1.637-4.672 2.14-1.465.657-3.457 1.337-5.035 1.759-.77.207-1.774.617-2.559.804-.879.215-5.168.934-5.976.825-.86-.121-1.664-.727-2.504-.176zm65.918 9.207c.883-.07 3.328-2.742 8.43-3.922 3.558-.82 8.347-.082 9.406-.715-.852-.808-6.57-.805-8.16-.633-3.086.332-9.145 3.653-9.676 5.27zm95.98-61.676c.403.328 5.008 1.258 6.305 1.68 2.203.719 3.805 1.5 5.93 2.34 1.742.691 6.246 3.21 7.98 4.418.7.488 1.762 1.53 2.578 1.484-.914-.64-1.3-1.14-2.285-1.79-2.691-1.776-4.527-3.21-7.598-4.776-.773-.395-2.09-.817-2.957-1.192l-4.652-1.512c-.453-.109-1.3-.332-1.68-.402-.957-.164-2.87-.734-3.62-.25zm-28.887 107.73c.391-.738.153-.43-.21-1.96-.829-3.45-3.391-5.164-1.356-10.47.52-1.35 1.254-2.038 1.547-3.589-.656.36-1.965 2.531-2.375 3.3-1.649 3.087-1.649 5.919.328 9.083.3.476 2.008 3.59 2.066 3.637zM134.465 69.724l.086-.391c-1.446-.004-2.45-.394-3.75-.789-1.13-.344-2.309-.711-3.422-1.121l-6.29-2.715c-1.765-.914-3.702-2.457-5.472-3.531-.738-.45-2.152-1.246-2.758-1.746-.375-.309-2.304-1.903-2.566-1.996.07 1.425 8.707 6.605 10.32 7.757 3.219 2.305 9.961 4.532 13.852 4.532zm50.11 208.16c.847.379 2.445.457 3.253.738-.504.379-1.84.242-2.465.234-1.082-.02-1.406-.214-2.343-.355-.844-.121-1.715.012-2.547-.04-1.309-.073-.95-.73-2.145-.25l.567.278c.996.407 1.18.465 2.144.461 1.426-.004 1.961.301 3.219.375.918.055 2.543-.113 3.328.067.742.168.273.421 1.324.324.778-.074.656-.418 1.516-.356.738.055.476.266 1.336.36 1.972.215 2.691.41 4.879.41 1.644-.004 5.66.25 6.859-.313-1.277.079-5.777-.093-7.223-.472-.968-.25-1.468.047-2.52-.29l-2.128-.491c-.492-.149-.613-.063-1.164-.153-1.262-.207-4.656-1.414-5.89-.527zM277.288 81.52c1.02.105 3.707-2.735 9.965 2.253 1.574 1.254 5.875 6.29 7.105 6.868-.629-1.48-5.27-7.125-6.683-8.235-2.11-1.652-2.211-2.054-4.961-2.527-2.246-.383-4.988.777-5.426 1.64zm-28.332 102.265c.211-.722.582-.715.75-1.613.125-.664.387-1.61.426-2.192.14-2.101-.11-2.94-.414-4.824-.828-5.14-10.606-16.941-13.102-18.437.957 1.691 3.23 3.808 4.43 5.543 1.394 2.008 2.941 3.851 4.242 5.91 3.488 5.512 4.11 9.555 3.668 15.613zm-17.18 167.219l1.149-1.04c-.094-.323-3.656-8.07-4.035-8.769-.387-.715-.625-1.453-1.043-2.152-.563-.945-1.051-1.05-1.516-1.676-.527-.707-1.625-3.75-2.41-3.785 0 .004 6.273 16.613 7.855 17.422zm29.828-198.781c.168 1.226 4.563 3.23 6.028 3.23 3.09-.008 5.133-1.082 8.14-1.707 2.903-.601 1.602-.137 3.91.113 1.192.13 3.415.133 4.489-.34 1.445-.64 5.02-2.472 5.52-4.035-.391.051-4.403 2.16-5.864 2.598-2.496.754-5.336.656-7.914.898-2.785.27-4.496 1.137-7.71 1.184-2.833.04-5.708-1.945-6.599-1.941zm-60.222 205.34c.66-.301.347-1.305 1.254-1.34-.153 2.078-2.121 2.261-.063 6.109.582.137 1.61-.934 1.79-.988-.067 1.43-1.337 3.949-.473 5.23.675-.09 1.062-1.578 1.441-2.297.7-1.324.688-1.636.082-3.007-.832-1.891-1.582-3.825-2.32-5.762-.465-1.219-4.035-11.656-4.133-11.735-.484.829 2.328 8.829 2.402 10.618.028.668-.258 2.671.02 3.171zm8.355-179.172c2.008.386 2.121-.543 3.614-1.141-.137.992-.329 1.582-1.125 2.176-3.555 2.64-5.977-.856-5.997-2.25-.042-3.84 7.922-4.805 7.215-.442-1.465-.441-1.05-1.425-3.285-1.234-1.758.152-1.387 1.984-.422 2.89zm-.57-6.149c-5.918 1.406-5.684 11.242 1.898 9.817 6.559-1.235 5.024-11.461-1.898-9.817zm-19.613-87.027l-2.871-14.012c.57-.121 7.171 1.05 7.996 1.274 2.746.746 25.808 1.156 26.441.039-.125-.09-20.64-.61-23.812-1.352-3.61-.844-6.786-.844-10.52-2.082-3.648-1.21-5.691-2.586-8.906-3.855.347 1.18 3.137 3.011 4.222 3.664 2.786 1.675 3.993.625 3.946 3.875-.043 2.511 2.265 10.152 3.504 12.449zm-30.028 41.258c2.97 2.972 17.602 1.761 26.098 5.945 2.125 1.043 5.484 4.316 6.21 4.617-.448-1.601-2.37-3.61-3.648-4.746-2.109-1.879-3.796-1.941-5.332-2.969l11.442-1.418c-.5-.394-7.317-.015-8.738-.015-4.286 0-25.508-1.7-26.032-1.414zm40.012 202.722c-.426-.53-.277-.57-.3-1.406-.02-.828.007-.418-.212-1.078-.554-1.684.184-5.996.809-6.934.36.606.27 3.946.156 4.817-.12.972-.363 1.054-.363 2.258.004.87.012 1.484-.09 2.343zm-25.5 17.118c.016.695 1.14.003.875 3.386-.047.551.254 4.508-1.242 3.086-.309-.293-1.582-2.77-2.094-3.543-1.266-1.918 1.645-20.89 2.129-23.687.633-3.696 6.707-34.64 7.797-35.035l.375.054-2.414 17.297 2.332-10.844c.238 2.715-2.2 13.18-1.82 16.625.394 3.614-.727 8.493-1.145 12.54-.3 2.917-.828-.77-.656 4.359l-.676-.871c-.7 2.566-1.746 9.187-1.977 12.101-.14 1.785-1.335 2.125-1.48 3.047l1.934 1.203zm47.566-16.735c-.285-1.906-4.882-11.46-5.988-13.976-2.082-4.73-3.683-9.899-5.281-14.829-.535-1.648-5.281-14.964-3.934-15.168 1.395-.207 5.067 12.579 5.75 14.278 3.743 9.32 7.082 19.738 11.82 28.574 2.395 4.457 4.438 8.805 7.048 13.215.855 1.441 3.074 5.285 3.539 6.71.668 2.032-2.243 5.286-3.903 5.438l-7.96-17 6.288 17.735c-1.261.757-2.457-4.028-2.832-5.004-2.687-6.965-4.699-10.985-7.687-17.664-2.2-4.918-10.016-19.32-9.113-24.067l-.606.297.2-1.629-.56.293c.829-2.5-3.726-14.035-4.722-17.187-.36-1.137-1.601-3.621-.047-3.735 1.383-.097 1.688 2.598 2.035 3.672.895 2.758 1.91 5.399 2.887 8.121 1.922 5.364 3.652 11.602 5.809 16.75.562 1.34 6.379 15.426 7.214 15.184zm-4.601 24.535c-1.219-.117-13.969-33.613-15.215-37.293-.715-2.113-9.523-29.113-9.148-30.18.757-2.156 3.46 8.419 3.941 8.298l-1.75-8.563c1.242.473 3.832 10.746 4.512 12.637 1.695 4.75 13.89 36.875 14.472 37.05.422-1.343-18.304-47.171-16.992-49.636 1.363-.23 3.16 6.992 3.606 8.3 1.004 2.958 2.246 5.915 3.27 8.938 1.878 5.531 4.292 12.246 6.6 17.586 1.298 3 14.438 33.621 14.423 33.684-3.13 2.37-7.27-11.051-8.153-11.875-.375.636.977 4.78 1.301 5.57.445 1.074 2.48 4.394.457 4.855l-2.808-6.273zm-13.652 14.703c-2.36-.613-3.829-10.312-4.801-11.234-.192.332.738 7.227 1.008 8.211 1.332 4.844-1.157 1.441-1.946-1.035-4.304-13.559-7.308-32.793-9.836-46.574-.59-3.22-4.808-32.594-3.699-32.997 5.11-1.847 5.117 10.16 5.617 12.93.399 2.211 2.192 15.113 2.766 15.899l.043-5.97c1.21 3.036 2.644 12.642 3.426 16.517 1.101 5.41 2.566 10.398 4.027 15.687 1.363 4.914 3.156 9.992 4.965 14.77.82 2.18 2.723 5.418 1.8 7.66-.644 1.59-1.796 5.851-3.37 6.136zm-35.168-33.312c-.442-.774-2.43.277-1.672-2.656.379-1.477.617-2.907.843-4.41.848-5.641 7.625-43.07 8.54-44.536 1.796-2.87-.278 6.961-.301 7.07-.352 1.489-2.242 7.423-1.54 8.454l1.977-6.957-3.207 18.097.387.075.84-3.43c.25 1.164-3.102 17.984-3.567 20.742-.34 2-3.039 20.496-3.144 20.582-1.02-.191-2.504-5.086-2.54-6.133-.171-5.168 2.68-3.996 3.555-5.394l-2.203-.383zm13.117-71.098c.453.016 5.426.664 5.851.762 3.223.738 15.246-.191 18.485-.633 1.84-.25 3.863-1.152 5.511-1.39 1.645-.239 1.114 2.332-1.773 2.988-1.422.32-11.488 1.75-11.363 1.941.414.324 6.097.14 7.082.145 1.363.008 5.797-.758 6.074-.664l-.113 2.632-11.106 1.317 7.883.21-8.215 1.614c1.18.7 7.48-.644 9.285-1.101 1.575-.399 1.45-1.047 2.391-1.125 1.05 2.062-.504 2.023-1.79 2.32-2.57.598-11.288 1.324-11.507 1.601.961.582 5.477.575 6.918.582 2.254.02 4.672-1.05 6.102-1.078l.21 3.442-5.273 1.492c1.313 1.488 6.3-1.547 6.777 1.008-.558 2.05-9.578 2.582-11.488 3.094-2.77.746-10.512.093-13.61-.211-3.862-.383-7.843-1.633-11.417-3.325-.735-.347-2.414-.894-1.348-1.945.457-.45 1.82.488 2.371.75.965.45 4.496 2.102 5.215 1.547l-6.976-3.406c1.898-.399 6.324 1.523 8.312.41-1.613-.438-7.96-.324-7.93-2.488.153-.024 3.098.648 3.828.757 1.122.16 3.418.258 4.239.453 1.086.258 7.851.84 8.387.454l-6.06-1.985 1.384-.465c-.004 0-3.047-.586-3.606-.75-2.039-.593-4.687-1.324-6.558-2.082-1.43-.578-2.082-.132-2.036-2.078 1.25.262 7.102 3.547 12.258 3.547l-8.465-3.105 8.735.875c-.13-.11-12.774-2.079-12.875-4.13.215-.09 4.336 1.122 5.02 1.286 1.863.45 4.308.308 5.96.637 2.262.445 10.434 1.359 12.383.558l-17.418-3zm4.66-8.027c.297.777 2.144 5.816 2.098 6.371l-3.145-.438c-.406-.558-3.144-8.683-2.312-10.308 1.02 1.89 2.222 7.168 3.332 8.547.757-1.012-3.266-8.91-2.067-10.832.32.738.684 2.504 1 3.441.356 1.035.719 2.235 1.094 3.219zm13.422 5.945c-.434-1.61.12-4.304-.215-5.984-.441-2.23-.074-3.711-.402-5.594-.246-1.426-.7-10.758-.114-11.422 1.22 4.594.883 7.649 1.399 11.828.152 1.215 1.957 11.078 1.933 11.254zm-85.309-3.164c-.511-1.37.785-8.078 1.098-9.851.664-3.813 2.937-4.727 6.871-3.926l-2.45 5.008c1.29.699 1.65-5.391 6.348-4.594l-1.539 5.848c1.364-.243 1.828-4.493 2.364-5.512 1.421-.168 1.93-.184 2.496.824.683-.777.468-.234.793-.137.687.211.504-.254 1.332-.261l-1.196 4.777 2.211-4.8c1.368.538.313 1.6 2.137.155.39 1.797-.207.508 1.45.032l-1.09 2.125 1.718-1.766c.207.32-.347 2.273 1.266.195.883.301-.235 1.41 1.297.399.472-.313.703-.75 1.25-.98-.09 2.835-10.528 6.03-12.844 6.624-4.602 1.184-10.254 1.688-13.512 5.84zm74.352-4.832c-.863-2.16-4.102-10.238-3.363-11.851l3.265 8.164-1.3-6 1.296 1.754 3.692 9.847-2.282-8.355.375-.121 4.754 14.906c-4.16 1.726-4.531-3.586-6.437-8.344zm15.347-7.734a.84.84 0 01-.062-.16c-.438-1.47-.633-3.207.258-4.606.582 1.527-.989 2.035.031 3.246.36-.879.648-1.887 1.16-2.664.387.578-1.176 3.906-1.387 4.184zm-5.289 15.644c-1.66-1.57-6.59-22.21-4.672-23.883l1.864 8.739.277-.016-.715-8.078.453-.055zm8.825-10.027c.433-2.106 4.27-12.852 5.75-13.629l-2.45 8.406 3.051-6.207-1.191 6.336 2.57-5.918c.176.39-2.476 7.98-2.797 9.254-.34 1.336-2.113 9.719-2.402 9.922l-4.727 1.484 1.657-10.421zm14.507-16.996c.446-.477.942-1.098 1.496-1.332.02.73-.304.89-.585 1.668-.368 1.02.21 1.023-.754 1.441-.297-.601-.203-1.031-.157-1.777zm-42.48 10.355c.875-2.41-1.512-12.132.348-13.285l.734 8.414c1.879-.164.133-6.394.941-8.031 2.926 2.27-.406 15.84-1.71 19.355-2.079 5.602-5.29 9.329-9.52 13.407-4.895 4.718-7.574 6.312-13.621 9.316-2.438 1.207-5.535 2.23-7.828 3.61-1.145.68-2.387 1.574-3.196 2.62-.316.403-2.187 3.11-2.25 3.137-1.132-.781-1.027-16.675-.984-19.039.266-15.164 7.582-17.754 13.906-27.512.496-.765 1.715-2.406 2.668-2.343 2.504.164 1.836-.137 4.078-.48 1.227-.184 8.485-1.278 9.024-.962.539 2.055-9.508 2.532-10.758 3.696l9.516-1.078c-1.989 3.343-9.434 2.921-11.364 4.792l9.832-1.968c-2.218 4.75-2.75 3.992-7.757 5.074-1.735.375-8.54 2.027-9.676 3.219l14.398-3.117c.078.546-2.168 4.105-2.59 4.84-5.23 1.128-4.062.035-10.601 2.577-1.34.52-7.649 3.75-7.715 5.29 2.777-2.016 4.355-3.364 7.598-4.485 2.472-.855 7.171-2.422 9.87-2.394-.12 1.586-4.093 6.914-5.257 8.484-.145.195-1.113 1.895-1.586 2.57-1.125 1.602-7.149 9.559-7.328 10.645l7.797-9.438c.84.696-.09 5.223-.325 6.239-.394 1.695-1.597 3.656-1.832 4.797 1.29-.61 2.32-4.137 2.696-5.606.566-2.258-.785-5.23.508-7 .722-.992 6.847-9.32 6.945-9.379 0 3.375.144 5.535-.348 8.875-.172 1.184-1.703 7.164-1.5 7.535 1.125-1.394 2.477-8.91 2.715-11.18.508-4.835-1.105-7.242 2.77-11.054l2.957 13.617c0-7.676-4.192-15.828-.215-18.398l2.484 13.02c.852-1.262-2.05-13.74-.808-15.66l3.226 15.495c.649-.836-4.148-17.3-1.469-17.691l1.414 9.734-.304-11.363.59-.063 2.07 11.465c1.234-.222-2.059-12.328.215-12.539zm43.187-6.539c-.421-1.554 2.457-6.426 4.04-7.043-.196 1.52-1.95 4.293-2.747 5.774-.324.61-.43 1.566-1.293 1.27zm-63.375-4.09c.176-.691 2.02-1.734 2.594-1.93 1.973-.66 4.293-.6 5.953-1.187.657-.23 1.364-.074 2.09-.129 1.098-.086 2.953-.687 3.903-.242-.418.7-.63.527-1.563.852-.926.316-1.031.144-1.977.183-1.046.043-.964.32-1.894.39-.395.032-.691-.015-1.09.056-.71.132-.293.156-.855.285-.938.215-.84.004-1.887.398l-3.484.957c-.665.133-1.051.395-1.79.367zm59.38-6.652l-.38-.89c.262.03.864.277 1.165.496-.157.605-1.524 1.94-2.004 2.062.187-.887.675-1.105 1.218-1.668zm25.406 6.629l-8.93-4.352 2.184.133-1.055-.91c1.312-1.617 5.277.727 6.222.07l-3.835-2.02 4.917.227-2.359-1.37c2.379-2.673 6.184 1.679 7.074 3.784.602 1.422-.148 2.653 1.02 5.168.851 1.84 1.289 2.711 1.27 4.809-.098 8.719-.126 13.828 2.433 22.203-7.184-3.875-14.102-8.191-21.238-12.105-4.028-2.207-7.867-2.996-8.192-8.387-.152-2.55 3.852-10.344 5.809-10.645l-3.637 9.286c.36-.364 2.258-4.473 2.961-5.598.04-.059 3.828-4.27 4.121-4.543l.758 1.758c-1.352 1.226-4.898 5.242-4.707 7.14.875-.55 2.281-4.992 5.074-6.168.278.329 4.875 11.075 5.992 13.098.852 1.547 6.61 10.91 7.82 10.988-.015-.464-5.39-8.277-6.1-9.515-1.876-3.262-3.74-7.207-4.806-10.797 1.235-.094 5.434 1.512 6.38 2.273 1.308 1.051 3.59 4.239 3.988 4.52.156-1.137-2.805-4.121-3.93-4.95-2.215-1.62-4.234-1.62-6.559-2.5l-1.078-4.367zm-166.79 8.492c.024-.176 4.805-6.61 5.364-7.367 1.98-2.676 3.262-4.98 4.988-7.781 2.852-4.633 3.438-7.942 5.043-5.813 1.691 2.235 7.75 3.031 8.66 4.13-1.37.737-10.074-.727-11.074 2.233.816.008 2.168-1.16 4.7-1.14 1.448.008 3.831-.195 5.179.098-1.567 1.949-13.152 7.199-14.746 10.425 1.363-.472 12.48-8.441 15.851-8.976l-2.543 4.722 1.614-1.832-.672 1.996 3.172-3.796c.117 1.05-2.239 5.453-2.899 6.66-.949 1.722-3.27 4.011-3.937 5.297 1.719-.04 6.625-8.536 8.465-9.61l-1.93 4.235.344.199 4.02-5.785.452.261-3.828 6.942c2.016-1.367 3.871-6.285 5.492-5.309l-4.75 7.883 6.149-7.738.484.324-3.887 7.09 5.211-5.422-2.629 4.934c1.68-.594 3.114-3.22 4.391-2.66-1.035 4.964-12.05 6.78-16.34 6.378-3.23-.304-6.836-1.281-9.984-1.261-1.875.011-3.785-.043-5.652-.004-1.13.02-3.926.734-4.707.687zm136.606-12.312c-.191-.512-.176-1.27-.402-2.067-.118-.414-.282-1.949-.891-3.992-.34-1.133-.781-.871-.715-1.594 1.27.703 1.918 1.676 2.438 3.07.504 1.376-.063 3.887-.43 4.583zm-91.492-8.094c1.254-.465 6.215-.191 8.101-.274 2.114-.09 1.559.618.786 2.22-.438.905-.856 1.91-1.375 2.75-2.368 3.8-6.43 6.648-11.137 5.468-2.043-.512-4.453-1.398-6.613-1.98-.895-.243-2.426-.622-2.961-1.372-.524-.742-.98-2.765.054-3.03 2.078-.536 4.106.331 7.492-.985 2.06-.801 3.551-2.02 5.653-2.797zm137.375-5.48c-.57-.766.031-2.407.625-2.727l.527.308c-.133.473-.844 2.172-1.152 2.418zm22.77 2.55c.14-.406 5.023-3.43 5.988-4.308 1.718-1.563 3.886-3.258 5.363-4.965 2.789-3.227 1.945-3.985 6.086-1.942 9.617 4.743 21.598 15.852 27.601 24.184-2.68.594-2.648-1.266-11.261 1.82-3.059 1.098-8.278.785-11.989 1.723-3.628.922-6.925 2.875-10.128 3.633-4.704 1.105-8.836-1.973-11.7-1.442-3.363.618-3.511-.312-5.93-.125-2.91.227-2.32 1.668-5.245-.039-2.61-1.527-6.125-4.625-8.067-5.644-4.426-2.324-4.328-2.215-7.894-5.805-1.555-1.562-3.922-8.723-3.227-10.105l2.555 9.011.41-.11-1.555-8.015c2.25.461 2.582 6.18 3.852 7.782l-1.371-6.598c3.035 1.074 3.828 8.367 4.992 10.828.902-1.004-1.27-8.227-2.11-9.582 4.153-.137 3.774 7.645 5.082 9.367l-1.277-8.219c2.637.243 4.18 7.793 5.098 8.274l-3.133-8.32c3.176 0 3.535 2.91 4.988 5.402l-1.625-5.133c2.36.586 2.645.375 3.586 3.047.195.543 1.719 4.691 1.785 4.781.754-1.394-2.355-7.086-2.336-7.586 4.258-1.129 6.493 8.543 8.04 11.059 1.269-1.55-3.786-9.813-4.18-11.129 4.476 1.203 6.453 9.543 7.64 9.914.032-.95-1.75-4.8-2.277-5.75-1.078-1.937-2.648-3.375-3.316-4.582h3.394c1.684 1.527 4.149 5.48 5.258 7.324.785 1.309 3.809 7.961 4.258 8.2.488-1.938-7.356-15.024-7.356-15.044 4.598.918 3.399.41 6.45 3.668 1.062 1.13 3.753 5.305 4.78 5.575l-6.187-8.47 33.93 6.474.117-.536-33.758-7.675 12.04-7.211c-.813-.52-7.094 3.187-8.317 3.898-3.45 2-4.586 3.621-9.055 2.371zm-131.548 6.262c1.665-.656 8.368-17.875 9.68-20.414l-4.152 11.406.367.149 3.652-8.676-1.09 4.234 2.743-4.828-1.918 5.715 2.468-4.176c.985.492-.046 1.79-.296 2.457-.567 1.512.515.387.765.5l-1.73 3.098 1.27-1.102-1.126 3.637 2.16-3.758-.628 3.016 1.226-1.239c-.086.989-2.543 5.211-3.23 6.157-1.012 1.383-4.036 4.234-4.461 5.066 2.902-1.062 7.816-7.805 9.218-10.308 1.282 6.792-11.574 16.91-16.941 19.906-5.523 3.086-8.484 3.426-14.398 4.59-2.809.554-10.29-1.07-12.743-1.118-1.421-.027-3.324.715-4.058.625l.98-5.793c2.18-.19 8.082-.253 9.977-2.636l1.539-.43.035 1.371 1.496-2.137-.383 2.145 1.625-1.621v1.543l2.051-1.985-.5 1.86 2.664-2.36-1.097 3.047.453.27 2.238-2.688.074 1.325 1.672-2.032-.336 1.98.965-1.003c.562.113.297 1.07 1.273-.441.403-.63.758-1.293 1.305-1.793l-.617 1.652 3.113-3.66-1.273 3.355 4.066-6.039-.484 2.262c2.18-.508 9.136-18.422 9.844-21.145.828.868-2.497 9.028-3.149 10.516-.754 1.707-4.39 8.531-4.309 9.5zm57.618-1.488c5.097 8.39-3.215 11.093-10.504 9.922-5.04-.813-12.649-4.473-17.18-7.004-4.734-2.641-11.476-6.145-12.117-12.078-.457-4.247-.063-5.864-2.79-9.454-2.538-3.336-3.667-4.39-2.359-9.02.72-2.542 2.532-6.03 4.184-8.097 1.426-1.785 1.84-.738 2.719.727.75 1.258 1.695 2.32 2.43 3.605 2.671 4.684 4.312 11.496 6.351 16.797.813 2.113.402 2.711-.734 4.461-1.168 1.797-.727 2.297.351.313 1.817-3.344 1.797.035 6.488 1.617 2.774.937 6.446 1.699 8.637 3.668 3.442 3.093 1.715 4.027 2.125 8.37l1.52-7.116c1.14-.149 4.261 2.062 5.332 2.855 4.57 3.375 2.863.684 5.547.434zm11.047-18.586c1.207-.453 6.386-1.332 7.406-.969.058 1.898-8.633 9.937-10.54 11.34-1.913 1.41-4.695 3.262-6.8 4.3-5.035 2.47-2.313 2.676-7.024-.277-3.566-2.238-11.109-5.625-15.132-7.039-4.676-1.637-3.828-1.144-5.325-5.742-.804-2.469-2.382-5.742-2.933-8.004.86.578 3.906 3.293 4.762 4.094.96.902 3.742 2.883 4.925 3.71 3.567 2.493 7.34 5.055 11.758 5.59 2.66.325 10.664-2.613 13.254-4.003 1.93-1.032 3.469-2.18 5.649-3zm29.53-2.227c1.415-2.273 1.634-4.469 3.782-7.351.965-1.293.465 1.964.465 3.988.012 5.531-4.629 14.402-8.93 18.59-3.738 3.644-8.949 7.258-14.262 7.933-3.382.43-6.226.39-9.48-.933-1.543-.63-6.352-2.867-6.527-4.52 1.101-1.41 5.609-3.37 7.52-3.504 2.421-.168 4.648-2.914 6.804-4.035 3.277-1.703 5.324-1.457 8.484-2.39 1.14-.336 2.766-.88 3.102-2.098.332-1.192 2-.895 3.101-1.88-.62-1.136-1.422-.82 1.215-2.323.93-.528 2.852-1.02 2.969-2.27l-2.574 1.293c.25-.972 2.633-1.574 3.164-2.414.879-1.39 1.363-2.039 2.453-3.148-.02 1.265-2.066 3.77-1.285 5.062zm-117.136-8.347c.074 2.664-3.25 9-5.156 10.968-2.246 2.32-7.43 4.39-10.567 5.215-4.074 1.074-8.07-2.078-10.46-5.031-3.106-3.84-3.692-9.738-1.09-11.102l3.144 8.61c1.203-.438-2.441-6.446-1.086-8.684.758 1.035 2.324 13.348 12.196 10.656 2.601-.707 5.289-2.84 7.398-4.445 2.172-1.648 4.133-4.992 5.621-6.188zm-44.203-.762l-1.902 13.808 2.355-8.136.39.086-2.831 15.14 2.902-9.422c.902 1.227-3.082 11.403-2.293 12.282l2.723-6.13c.84 1.11-1.614 5.817-2.578 6.977-1.465 1.766-3.313 3.848-5.274 5.059-4.367 2.695-10.871 5.281-16.035 4.004-6.934-1.719-8.461-2.383-14.594-6.04-1.375-.824-11.742-7.718-11.898-8.327.797-.372 4.031-.004 5.195-.16 12.164-1.637 12.563-6.098 17.2-9.41.038-.028 8.433-1.895 8.722-1.817l-.895 1.156 3.82-2.309-.144 1.11 5.434-3.04c-.524 3.973-3.188 7.153-6.598 9.419-1.351.898-4.058 2.066-5.676 2.437-1.46.332-7.074.453-7.293.63 1.852 1.581 7.829.253 9.868-.528 3.668-1.406 4.168-2.813 7.004-4.563-.63 3.184-6.055 7.391-8.876 8.493-2.746 1.07-3.73 1.402-6.64 2-1.11.226-7.277.21-7.434.316 1 1.059 8.125.851 9.887.422 1.418-.344 2.918-.465 4.36-1.043.855-.348 3.156-1.36 3.824-1.508l-5.645 5.617c3.008-.066 9.195-8.207 10.586-10.762 1.344-2.464 2.273-5.058 3.094-7.601.437-1.36.035-3.102 1.164-4.29.11-.116 2.867-2.136 2.922-2.16.02.114-2.696 12.532-2.985 13.735-2.011 8.395-3.851 9.414-4.734 12.086 3.383-1.531 6.789-16.18 6.953-16.297l.3 1.762c.231-.328 1.298-6.117 1.524-7.05.485-1.977-.894 1.241-.097-2.13.265-1.117.558-2.394 1.011-3.406l-.699 4.605.379.082 1.215-4.355c.312.656-.262 2.8-.477 3.562-.5 1.786.313 1.567.22 3.665-.06 1.37.116 2.535-.31 3.75-.347.976-.69 2.48-.23 3.558zm29.11-3.078c.003-.004.593-.868 1.468.183.25.305.523.867.496 1.258-.05.715-.883 2.047-1.504 2.242-.75.235-2.12-.648-2.117-1.644.004-.442.27-.957.496-1.328.653-1.075.453-.34 1.16-.711zm-3.56 3.703c-.585-1.203-1.562-6.84 2.044-6.875 1.011-.012 1.328.457 2.054 1.047-1.035.332-1.203-.13-2.082.578-2.668 2.14-1.37 4.07-2.015 5.25zm-63.6 1.476c1.628-.136 9.444 6.641 22.76.746 3.325-1.468 6.087-3.187 8.985-5.28 1.219-.88 7.38-5.645 8.215-5.727.098.789-.32.629-.508 1.105-.062.149.309 1.899-2.254 2.938-2.199.89-.3.136-2.101 1.468-.758.559-1.344 1.25-2.024 1.918-2.023 1.989-7.3 4.782-10.023 5.766-2.754.996-10.531 3.035-13.14 2.512-2.45-.489-3.684-.7-5.942-1.942-.895-.484-4.035-2.672-3.969-3.504zm141.019-9.867c.36.153 5.746 6.098 7.465 7.297 3.402 2.371 7.335.184 10.93-1.25 3.695-1.477 7.573-2.496 11.335-3.582 3.903-1.125 6.942-2.39 10.707-3.719-1.215 4.754-9.043 8.922-12.972 11.086-3.043 1.676-8.45 4.582-11.094 6.938-.617.547-2.473 2.746-2.903 3.007-1.574-.042-9.847-4.226-11.183-5.421-1.809-1.621-2.274-11.73-2.285-14.356zm65.96 24.16c2.118-1.453 9.747 4.793 10.97 3.801-1.903-1.351-12.548-5.844-12.536-7.703 1.43-1.117 8.903 5.465 11.29 6.184-.493-.91-10.157-6.891-9.801-8.457 1.566-.758 11.96 8.12 14.921 8.96l-11.902-9.3c3.43-2.676 8.387 3.035 11.106 4.828 1.867 1.23 10.296 6.07 12.015 5.105-1.55-1.105-6.98-2.504-9.84-4.48-1.183-.817-7.332-5.485-7.617-6.336 6.527-.957 6.125-.942 11.453 1.95 1.918 1.038 9.57 3.8 11.465 2.667-.078-.07-6.906-1.426-8.363-2.02-1.516-.62-5.801-2.398-6.434-3.707 5.793-1.425 15.602-1.62 22.172-5.351-.824-.453-5.812 1.469-7.305 1.793-2.683.574-5.355.91-8.12 1.309-2.376.343-5.571-.043-7.747.515-1.59.406-6.558 1.02-8.078 1.008.078-.582 6.113-7.29 7.008-8.113 1.101-1.016 3.05-2.657 4.262-3.426.984-.625 4.468-1.902 4.894-2.73-3.082.109-7.637 3.988-10.082 5.984-1.57 1.281-7.41 7.715-7.715 7.87l2.196-6.105c-.852.282-1.442 1.63-1.832 2.371-.786 1.477-1.094.125-1.727 1.81l1.137 1.358-1.23-.53c-.673 1.433.155 2.042-2.317 1.503-.32-2.402 6.515-9.527 7.156-11.398-.805.308-3.32 3.02-3.851 3.77-.63.89-1.04 1.304-1.735 2.023-1.933 1.984-.734.609-2.101.894l-.817 1.828c.242-2.39 2.324-4.71 3.82-6.332.422-.453 4.614-5.308 4.68-5.43l-8.906 7.274-.293-.258 5.637-6.37-.297-.313-3.594 2.73 4.941-5.05-3.738 2.347c.098-3.078 9.04-4.41 11.219-4.477 5.48-.168 8.578.516 13.613 2.446 3.094 1.183 7.77 3.539 10.082 5.87 5.375 5.419 10.59-1.081 6.883 4.825-4.55 7.262-8.918 11.398-14.844 17.27-2.504 2.484-7.25 4.785-10.738 5.207-2.031.242-5.602.617-7.543.398-2.559-.297-3.539.352-4.484-1.691-1.036.304-1.18 1.285-2.375.289l.976-1.72c2.399.067 2.778 2.454 4.25 2.45-.222-1.648-8.664-5.562-10.183-7.34zm-75.535-34.87c.657-2.387-1.023-5.24 1.672-6.626-.078 7.098 1.493 8.64 3.852 14.73.46 1.188 2.297 6.094 2.293 6.88-.004 3.218.836 5.578.879 8.195-1.203-.07-5.973-5.54-6.938-6.617-3.761-4.219-3.75-8.657-4.515-9.313-.914 6.403 6.304 13.242 10.804 16.922 9.532 7.797 17.223 8.094 18.813 9.11-1.332 1.28-7.192 2.136-8.922 1.66-3.535-.985-4.441-1.899-7.457-3.625-4.3-2.47-8.816-6.348-12.332-9.825-1.863-1.84-8.727-11.05-8.684-13.43.063-3.175 6.559-11.808 9.563-12.34zm-46.203 50.253c7.735-6.25 13.235-13.11 17.11-22.398 2.304-5.524 5.996-16.477 8.976-20.7.438-.613 1.66-2.37 2.375-2.527.793-.172.996 2.727.715 3.375l-.367-1.207c-1.266 2.594-.711.438-1.207 3.55-.149.938-.5 3.345-.828 4.099l.46-5.68c-1.62 1.168-7.538 22.262-8.8 25.66-1.395 3.75-3.922 7.703-7 10.285-2.043 1.719-8.875 5.996-11.434 5.543zm148.977-45.328c1.187-.145.734.016 1.715-.516.414-.222.996-.687 1.336-.793.496.707 1.984 3.27 1.5 3.985-.223-.047-3.133-1.176-3.414-1.324l1.16-.805c-.875-.133-1.051.2-1.817.52-.257-.704.075.152.043-.36-.101-1.727-.16.406-.523-.707zm-176.387 9.23c-3.695-7.14 10.754-13.992 11.117-9.234l-1.265-.668.57 1.137-.723.55.825.825c-2.672.562-4.262.484-6.485 2.594-1.039.984-1.386.785-2.332 2.175-.234.336-1.676 2.586-1.707 2.621zm173.051-9.792c.14-.75 3.707-1.778 4.586-2.743.531.52 1.133.899 1.43 1.547-1.125 1.106-1.434.906-2.723 1.363-.863.305-2.61.598-3.293-.167zm-39.078-.293c2.023.011.207 10.77-1.11 12.949-1.98 3.273-4.773 6.367-8.156 8.187-3.926 2.114-9.012 1.739-13.324 3.035-4.746 1.43-6.605 5.184-11.566 3.246-1.786-.695 8.078-5.39 8.937-5.89 3.379-1.953 7.11-3.715 10.078-6.274 2.965-2.55 5.512-5.574 7.278-9.07 1.632-3.234 1.222-2.262 3.804-4.453 1.985-1.691 2.125-3.363 2.969-5l.004 5.805zm-141 20.945c1.465 1.898 2.648 9.027 10.996 12.05 2.55.926 2.707.419 5.137.426 1.62.004 2.293 1.157 3.746 1.793 2.754 1.215 7.008 1.93 9.988 1.696 3.375-.266 7.086-2.051 9.574-2.27 1.016-.09-2.582 3.883-2.761 4.016-1.434 1.078-8.012 1.847-9.872 1.683-5.101-.445-4.832-.703-9.222 1.891-5.809 3.434-13.29 1.645-19.356-.422-4.468-1.531-4.144-2.191-5.332-6.527-.949-3.457-1.195-6.59-1.539-10.121-1.242-12.868 3.367-18.493 4.383-25.016.207-1.324-.363-4.691.477-5.289.93-.668 7.28 1.523 8.207 2.996.16 2.922-2.903 3.34-1.098 10.293.512 1.969-1.57 7.566-2.902 9.41-2.309 3.188-2.649 5.75-3.364 9.414-.355 1.828 1.246 8.715 2.801 9.899.078-.39-1.473-6.582-1.586-8.098-.222-2.941 1.195-5.629 1.723-7.824zm176.87-22.008c.935-.465 3.017-.953 4.103-1.277.816-.243 1.078-.34 1.917-.696.696-.293.977-.613 1.516.297-.437.375-2.957 1.563-3.57 1.754-2.781.856-1.274.504-3.14.195-.606-.101-.165.372-.825-.273zm-172 6.246c-.019-9.734 11.833-15.828 18.79-8.523.691.726 1.953 4.37 2.754 5.703 2.808 4.664 7.02 7.238 3.871 10.289-1.184 1.144-.813.844-2.137 1.664-.902.566-1.566 1.914-1.851 2.023-.219-.367.562-3.129.664-3.785.539-3.453-1.946-11.3-2.805-12.07-.621 1.351 3.926 11.086-1.703 18.422-5 6.515-8.898 5.816-12.953-.758-1.77-2.871-3.309-4.84-1.137-8.059 1.348-2.004 3.73-4.261 5.926-5.328 2.418-1.18 6.707 1.13 7.238 3.23.606 2.423-.797 7.317-2.23 8.989-.375-3.379 2.832-4.7-1.442-9.258-2.574-2.75-6.539-1.27-6.879 2.676-.445 5.137 4.715 16.398 9.961 7.387 2.797-4.817 3.434-14.485-1.16-18.551-3.078-2.727-5.55-2.129-8.894-.328-4.13 2.219-3.895 4.46-6.012 6.277zM55.06 196.695c.011-.007 4.671-1.148 5.566-1.48 4.977-1.852 9.137-5.215 12.227-9.57 2.503-3.528 7.066-8.883 11.043-10.762 1.918-.906 2.378.031 3.48 1.262l-.852.34 3.016 2.37-2.863-1.66 1.476 1.973c.672 2.168-5.386-3.418-7.027-.863 1.043.492 3.777-.446 5.523 1.797.961 1.23 2.024 3.175 2.817 4.687-1.715.574-2.41 2.121-4.746.977-1.078-.536-3.688-1.973-4.715-1.48l5.035 2.605c-2.008-.266-8.066-2.707-10.605-1.325.863.477 10.23.414 9.867 2.422l-5.739-1.035 3.981 1.984c-1.473 1.399-3.766-.898-4.941-.066l2.984 1.211-.012.445-3.222.387 1.011.79c-2.215 1.866-2.902.21-4.867.745l2.117 1.426-8.89.102 5.898.933c-.875 2.442-16.629 5.363-17.562 1.785zm26.808-23.062c-.613.61-2.414 1.695-3.246 2.183-.96.567-.781.754-1.375 1.258-.582.492-1.05.863-1.465.18-.543-.899.031-1.125.778-1.45l3.418-1.468c1.191-.461.539-.918 1.89-.703zm-7.137 1.117c-1.597.055-.136.703-2.304-.32-1.938-.914-1.77-.356-2.531-.758 1.109-.29 3.902-.121 5.207-.125.945 0 1.628.012 2.566.098.875.078 1.23-.208 2.289-.008-.36.234-.812.238-1.437.578-.61.332-.672.347-1.31.566a9.949 9.949 0 01-1.444.406c-1.625.313-.395.59-1.543.215.382-.882.152.352.507-.652zm128.465 6.168c.649-1.168-2.882-8.258 6.235-10.871 5.707-1.633 9.683 2.34 9.18 8.039-.606 6.863-3.57 7.113-9.196 8.66-3.156.867-4.293 1.063-7.703 1.098-3.79.035-4.563-.352-3.75-4.25.996-4.793.031-9.844 4.371-13.5 3.137-2.649 9.227-4.68 13.293-4.418 4.508.289 8.223 3.824 9.82 7.883.918 2.332 1.473 4.988-.53 6.906-.884.84-4.724 2.765-5.802 2.738-.078-2.476 3.047-3.695.61-9.578-1.47-3.55-3.34-4.805-7.059-5.309-2.492-.34-6.937 1.48-8.77 3.348-2.035 2.078-2.312 8.316-.699 9.254zm-92.265-7.527c.234-1.918 3.168-5.918 4.773-7.07 2.461-1.766 6.672.003 9.094 1.16 2.586 1.238 14.191 5.867 14.66 8.765l-1.258-.695 2.516 2.988-.29.399-3.804-2.286 4.285 3.68-.754.691c2.825 1.707.797 1.66-1.086 3.567-.527.535-3.379 3.855-3.515 3.91-2.64-.2-7.633-7.668-8.664-10.148-1.172-2.832-.782-3.766-2.856-6.52-.937-1.246-3.402-4.25-4.949-4.41l4.64 6.746c-1.812-.45-3.847-1.953-6.054-2.336-3.016-.52-4.633 1.125-6.738 1.559zm76.05-6.27c1.184-.25.872-2.238 1.856-2.887.242 1.34-.012.953-.242 1.914-.164.676-.059 1.454-.09 2.168-.918 1.012-2.094 2.059-3.066 3.114-1.348 1.453-1.22 3.632-1.598 4.414-.453-.883-.918-5.004.031-6.895l.363 1.055c.621-.684 1.008-1.852 1.575-2.715.484-.738.757-.734.98-1.113.258-.43.09-.895.79-1.094zm-49.753 39.926c-.133.047-5.165 5.523-6.883 6.582-2.543 1.57-2.516 1.125-5.086.871-1.254-.125-4.219-.863-4.934-1.7.867-1.027 8.477-2.116 12.2-11.835 1.07-2.79 6.023-14.54 8.84-15.082.41 8.058-2.77 16.656-2.856 18.762 2.074-1.48 4.441-11.95 4.523-15.641.145-6.332 1.992-12.106-.347-17.992-.72-1.809-5.258-6.028-7.125-6.09.054.766.789 1.879 1.257 2.578 1.094 1.629.278.746 1.758 1.61 1.086.628 2.88 3.449 2.692 4.367-.657.156-3.078-3.989-3.899-4.368-1.937-.898-3.656-2.097-4.43-4.293-1.886-5.382 4.938-5.98 9.415-.41 4.738 5.895 4.925 11.094 10.746 16.918 1.304 1.301 1.847 5.66 2.12 5.918l.282-2.262c1.57.977-3.938 13.676-4.809 15.56-2.273 4.917-4.84 10.019-10.613 11.398 2.477-2.375 3.934-3.5 6.3-6.305.856-1.016 4.84-6.813 4.263-7.762-.313.309-2.75 4.602-3.34 5.484-2.344 3.493-12.727 11.473-15.266 10.665zm7.984-42.453c1.887-.332 3.543-1.266 5.285-1.649 1.168-.257 4.078 1.375 4.121 2.215l-2.742-1.547 5.863 5.602-1.886-.68 4.714 4.211-2.648-1.152 3.129 3.426c-.664-.168-2.34-1.184-.602.746.489.539 1.125 1.351 1.344 2.074-.773-.219-2.578-3.875-4.094-3.293l3.004 3.617-2.597-2.02-1.086.579 1.34 2.3-3.188-3.007 1.363 2.57-3.047-2.578.844 2.55c-1.582-.062-7.89-11.917-9.117-13.964zm-94.867.164c.199-.172 1.945-.653 2.43-.863.714-.313 1.538-1.083 2.355-.899-2.125 2.137-.766 3.777-3.61 2.621-.628-.258-1.042-.238-1.175-.86zm249.117-.285c-1.8.656-7.457 3.578-7.774 3.511-.12-.351.856-2.62 1.133-2.828.047-.035 2.598-1.18 2.875-1.312-.828-.324-1.722.515-2.703.652-.277-.605-.715-1.336-.344-2.008.176.356-.03 1.203 1.329.508l-.989-.418c.797-.242 4.344-.273 5.207-.121.993.18.88.27 2.14.375l1.669.441c.453.168.133-.046.45.196-1.04.691-1.692.531-2.993 1.004zM189.6 167.66c-.578-.777.087-2.265.196-3.25.129-1.144.738-1.73 1.5-2.37.129.866.09.296-.117.858l-.993 3.77c-.039.656.176 1.027-.585.992zm99.231 1.223c-1.32 1.847-6.172 5.547-8.293 4.836 1.863-1.274 3.813-3.192 5.024-5.13 2.644-4.25 1.68-5.82 1.937-7.648 1.184-.234 2.89 2.43 3.125 3.41.297 1.254-1.055 3.5-1.793 4.532zm-33.586-9.762c1.652.594 1.098 5.84.004 6.559-.875-.625-.59-1.246-.59-2.399 0-1.011-.324-2.015.602-2.293-.465-.285-.59-.14-.563-.847.02-.5.207-.79.547-1.02zm4.488 2.637c.664-.028 3.743 2.707 6.329 2.265 1.94-.332 4.773-1.617 6.625-2.445 3.18-1.426 14.476-2.828 14.496-.976.05 4.687-2.551 8.843-6.75 10.976-2.754 1.399-12.153 4.3-14.497 2.965 1.598-.941 7.516-2.762 9.399-5.504-1.125.086-7.879 5.438-15.402 4.742l11-5.316-.16-.36-12.012 4.055 5.476-6.21-1.27.124c-.265-.469-.05-2.074-.96-.957-.285.348-1.39 3.324-3.195 4.563l1.046-1.973-.757.004 1.738-3.39-1.168 1.093zm-3.324 4.664c.098-1.168.723-2.52.652-3.582-.066-.985.051-1.078.125-1.938.09-.996-.226-.336-.355-1.285 1.137.047 1.957 2.45 1.73 3.512l-.703.168.672.516c-.52 1.261-.535 2.738-2.12 2.609zm-149.937 9.805c-.418-.145-2.106-1.57-3.024-2.024-1.035-.512-2.515-.969-3.64-1.25-1.184-.305-4.09-.207-4.43-.453-.656-.469-.957-3-.473-3.879 1.602-2.934 7.399-7.289 10.18-9.351 4.238-3.137 9.156-4.856 14.352-5.383 2.945-.301 14.078.742 15.152 4.175-1 1.051-3.656.954-3.95 4.262-.382 4.27 1.61 3.985 1.946 6.074-1.508.47-11.18-5.847-16.438-4.285-6.078 1.809-6.699 11.399-9.675 12.114zm146.703-12.368c-.344-.668-.14-5.925-.082-7.129l.738.465c-.531 1.868.684 6.27-.656 6.664zm-57.574 19.778c-4.125-9.465-8.145-22.719 4.55-27.54 15.102-5.73 15.278-6.265 28.582 3.27 8.082 5.797 16.723 16.426 4.532 23.625-4.536 2.684-9.614 4.14-14.625 5.653-4.965 1.496-10.368 3.968-14.946 5.265-5.523 1.563-9.058-3.539-12.05-7.422-2.708-3.52-6.891-9.797-4.633-14.32 2.047-4.102 3.226-1.512 3.476 1.457.274 3.172.996 5.102 2.297 7.969 2.735 6.035 4.488 8.629 11.715 7.644 5.043-.683 11.117-2.508 15.785-4.562 5.828-2.567 9.465-4.57 6.508-11.75-4.606-11.18-18.664-10.23-26.27-2.824.059-3.536 3.665-6.98 7.082-7.641 7.34-1.422 17.079.101 22.055 5.93 4.692 5.492 1.934 7.218 3.3 11.175 1.845-1.144.876-6.27.177-8.066-.735-1.887-2.688-4.637-4.352-5.8-8.578-5.985-12.965-4.45-14.613-5.462-2.395-2.593-5.074-3.613-8.656-2.925-2.528.48-7.04.496-8.786 2.89.497.145 13.055-5.437 15.973.008-1.367.422-4.285.172-6.262.82-4.484 1.457-5.18 3.04-7.187 6.918-.422.817-1.863 4.977-2.086 5.094l-1.836-6.34c-1.242 1.785 1.367 6.258 1.7 8.067.183.992-1.145 8.523-1.43 8.867zm39-32.035c4.175-.211 11.257 8.066 13.867 11.132 11.308 13.282 11.472 21.399.281 33.864-2.281 2.539-11.04 10.53-14.04 11.129-5.839 1.164-8.058-2.165-3.433-3.852 3.301-1.203 4.762-3.012 7.184-5.36 5.078-4.906 6.613-12.355 4.96-19.128-1.476-6.055-4.015-12.399-8.44-16.88-1.086-1.1-6.692-5.652-6.829-5.823-1.238-1.606 4.836-5.004 6.45-5.082zm-182.582 21.8c-.043-2.73 4.695-10.23 6.75-12.175 4.417-4.188 5.316-5.36 11.316-7.48 5.121-1.81 11.676-1.806 17-1.118 1.988.258 13.062 3.52 13.922 4.875-1.305 1.594-4.895-.05-6.602-.594-5.844-1.855-16.988-3.45-22.804-1.633-4.985 1.555-6.793 3.043-10.41 6.676-1.626 1.633-6.54 8.246-6.59 10.27.648.125 4.394-5.43 5.14-6.457.48-.66 5.543-5.516 6.106-5.614l-2.047 2.73 3.719-3.277-1.254 2.918 2.847-3.875-1.441 3.993c.922-.43 2.324-4.438 4.105-4.606l-2.476 4.914c1.543-1.035 2.879-5.246 5.047-5.387l-3.676 5.856 4.73-5.195.375.28-2.867 4.622 3.492-3.91c-.14.691-.394.855-.64 1.394-.703 1.528-.047.41.058.805.086.309-1.047 1.441-1.246 2.297l4.574-4.274-.695 1.645 2.832-2.012.313.301-2.918 3.774 6.172-4.325c-.122.383-4.098 5.453-4.707 5.938-.895.71-6.165 3.566-5.032 5.05l10.559-8.87-3.371 5.335 5.195-5.414c-.707 1.434-2.664 2.067-2.707 3.813l4.742-4.336-5.824 6.832 4.875-3.996.29.293-2.536 2.879 4.875-2.989-3.613 4.293 1.976-.71-.449 3.605c-1.734.227-2.922-.379-4.832-.348-1.578.028-7.938.809-9.57.801-1.692-.008-3.383 0-5.075 0-7.48 0-7.18.066-13.863 1.527-.469.098-3.703.883-3.765.88zm197.843-16.234c-.277 1.059.328.977.028 2.496-1.782-.226-1.774-3.96-2.168-5.418-.184-.68-.551-1.2-.344-1.621 1.129 1.066 2.3 2.29 3.473 3.414.894.856.953 1.027.906 2.3-.035.946.176 2.4-.25 3.157l-.832-2.285c-.348-1.11-.25-.988-.813-2.043zm-78.836 20.758c-1.703-9.055-3.297-15.649 5.371-21.914 7.243-5.239 12.954-8.395 22.207-6.555 1.942.387 3.73 1.086 5.391 2.145 1.164.742 2.328.855.32 1.503-.957.31-1.925.61-2.882.922-5.63 1.817-13.711 7.422-18.043 11.598-1.453 1.398-5.93 6.887-7.895 6.766-.172-.907 1.379-7.07 1.793-8.168.992-2.633 2.684-3.586 4.953-5 2.024-1.266 3.817-2.844 5.828-4.118.989-.625 6.567-3.09 6.696-3.277-3.102-.816-13.828 6.172-16.266 8.54-2.469 2.402-3.05 5.757-3.7 8.843-.445 2.105.204 3.785-.937 5.289-.379.5-2.535 3.238-2.836 3.426zm-65.023-24.113c-1.164.015-3.082-2.743-3.297-3.684.785.176.602.3.938.937.48.918 2.21 1.996 2.359 2.746zm-6.461-5.235c1.023.274 3.027 2.93 3.102 3.91-.793-.043-1.543-1.027-1.844-1.578-.399-.738-1.16-1.562-1.258-2.332zm-1.867 2.688c-1.004-.075-2.438-1.782-2.074-3.34.578.73 1.89 2.476 2.074 3.34zm2.582.37c-1.274.048-2.617-2.847-3.02-3.948 1.2.113 2.606 2.89 3.02 3.949zm202.375-.097c-2.692-3.578 9.18-5.328 10.879-5.7 4.664-1.01 10.398-.296 14.945.938 6.488 1.75 16.613 8.125 21.465 12.582-3.195 1.286-8.41 1.547-10.961 4.23-4.129 4.352-9.781-.605-11.566.802l7.535 1.687c-.239.52-7.547 6.363-8.746 7.281-4.543 3.493-7.594 2.684-12.707 2.938-2.372.117-3.918 2.414-5.922 1.984-4.352-.93-3.102-.285-6.84-.289-2.524-.004-10.55-2-12.375-3.574l8.715 1.644-6.715-3.175c2.082-1.258 11.09 2.023 11.832 1.703l-10.133-3.028c5.219-1.359 14.004 2.364 14.305 2.262-.867-1.508-11.45-4.035-11.864-4.387 2.786-.09 3.407-.03 6.055.38 1.172.18 4.824 1.546 5.414.902l-8.238-2.57c.621-2.22 11.2 2.449 12.14 1.874l-9.062-2.863c1.926-1.055 6.02-.394 8.094.13 1.918.483 6.289 2.835 6.824 2.894-.21-.852-3.937-2.72-4.992-3.184-2.219-.977-4.485-1.05-6.461-1.871 2.23-1.777 8.851-.195 11.281.809 1.469.605 8.426 4.253 8.977 4.19-.211-.788-6.29-3.804-7.465-4.417-3.246-1.676-5.656-1.84-8.992-3.016.863-.78 4.992-2.46 6.105-2.011 1.145.46 5.45 2.894 6.078 2.945l-5.48-3.531c1.87-.989 10.203-2.735 12.644-2.961 1.914-.18 14.657-.528 14.903-.668-1.375-.906-13.27-.781-15.532-.344-2.273.438-5.011.516-7.367 1.035-1.699.38-5.363 1.473-6.91 1.531 2.484-5.722 12.457-10.355 13.016-11.34-1.325-.617-8.551 4.958-9.864 6.282-2.761 2.785-5.183 7.015-9.691 6.691.488-1.488 2.098-4.476 2.996-6.074 2.125-3.746 3.277-4.34 3.86-5.3-4.208 2.1-6.372 8.667-8.797 12.175l-2.23-.555 4.948-9.578-5.863 8.02-.379-.219 4.227-9.465zm-210.559-1.242c-.46.25-.062.332-.86.07-.753-.25-1.007-.543-1.343-.91-.226-.246-.226-.227-.433-.5-.614-.809-1.348-1.512-1.668-2.496 1.253-.098 1.742.695 2.363 1.605.71 1.04 1.203 1.368 1.941 2.23zm-13.02-4.934c.704.242 3.673 3.242 3.91 3.825-1.655-.051-3.804-3.11-3.91-3.825zm163.981 7.567c-.558.03-3.879-2.532-4.773-3.067-.633-.375-3.075-3.941-3.258-4.59 2.371 1.293 4.383 2.098 7.258 2.43 2.832.328 3.867 1.89 4.773 4.727l-3.066-2.621c1.726 2.988 3.558 1.937 3.18 7.109l-6.649-7.348-.344.305zm-96.336-5.813c-.469-.824-1.574-.715-1.62-1.898l.73.3c-.106-.667-.313-.175-.243-1.18 1.055.837 1.059 2.052 1.352 2.556 1.14 1.949 1.375 1.324 1.414 2.3-.742-.28-1.203-1.328-1.633-2.078zm86.754 1.774a15.493 15.493 0 01-.512-1.606c-.379-1.668-1.46-3.898-1.484-4.305l1.988 1.555c-.152.461-.36.246-.445.649 1.29-.274 1.125.37 1.824 1.523.418.688 1.078 1.453 1.371 2.098l-1.11.05-.57-.812-.117.77zm-82.644 13.332c-1.434.304-4.395 1.183-5.418 1.324-1.309.176-2.446-2.102-3.711-3.164-1.059-.883-3.989-2.055-4.38-2.727-.976-1.68-1.245-2.535-2.507-4.457-1.938-2.949.887-7.082 3.11-9.203.952-.91 2.687-3.094 4.257-1.82.578.472.824 1.949.285 2.238-.523.281-1.066-.934-1.636-.969-.032 1.868 1.543 1.711 2.554 1.856.625.09 3.102 2.574 3.012 3l-2.402-1.742 2.804 3.285-1.761-.836c.129.777 2.597 1.84 2.84 2.726.53 1.95 1.78 2.703 1.734 3.133l-2.621-1.367 1.863 1.848-.602.75c.536.754 2.329 1.722 2.266 2.699-.027.344-.566 1.187-.574 1.281l1.457 1.215-1.11.07zm23.757-8.465c3.336-6.88 16.41-10.52 23.2-12.028 9.086-2.015 20.12.586 23.668 10.274-2.102-.176-4.086-3.207-8.477-2.441-1.648.285-2.68.82-4.195 1.464-1.492.633-2.309-.625-3.739-1.359-2.847-1.469-5.351-2.387-8.43-2.848-1.316-.195-4.12-.043-5.6-.05-1.47-.008-3.716.878-4.712.578l13.328-4.305c-.773-.945-11.824 3.129-13.605 3.797-6.645 2.488-10.012 6.36-11.438 6.918zm51.985-6.473c-.414-1.113-.715-4.781-.875-5.336-.246-.824-.258-1.988-.031-2.804.964 1.25 3.468 7.355 2.87 8.976l-.827-2.039c-.368.606-.188 2.434-.336 3.383-.266-.774-.532-1.45-.801-2.18zm4.437-2.765c.535 1.43 1.567 4.152.59 5.039-.766-.352-.629-1.399-.8-2.188-.298-1.398-.993-3.14-1.524-4.476-.27-.68-.84-1.473-.828-2.106 1.37.512 2.097 2.48 2.562 3.73zm-7.8-2.926c-.153-.797.835-2.602 1.37-2.867.247 1.359.036 3.222.075 4.656.035 1.199.93 2.832.187 3.902l-.972-4.469c-.004-.613.066-.921-.09-1.523-.363-.078.008-.293-.57.3zm-128.38-1.832c.551.074 4.313-2.13 6.06-2.54 2.362-.558 4.66-.66 7.284-1.359 3.84-1.02 3.22-.55 6.274 1.442 1.77 1.156 3.91 2.12 5.511 3.215l-.648.722 2.195.906c-1.187.434-8.62-2.527-10.25-1.668l11.133 3.27c-.445.313-4.027.098-4.707-.094-.672-.195-1.586-.558-2.172-.722-1.32-.371-1.441.3-1.785-.114-.172-.203.942-.351-.402-.406-.836-.031.37.266-.88.063-.343-.055-1.487-.653-1.98-.829-.933-.335-3.675-1.296-4.304-.691 5.523 1.79 10.062 5.106 15.886 6.57.754.188 6.137 1.055 6.215 1.102-3.027 2.758-15.242-3.055-19.02-4.242-2.269-.711-8.195-1.75-10.628-1.75-1.988 0-11.254.558-11.68-.461l8.656-3.617zm148.352-1.496c4.922 1.687 9.645 5.523 15.2 7.437 5.355 1.844 13.066 4.309 18.656 2.906 7.984-2.004 8.101-3.476 14.043-8.308 3.457-2.805 2.64-2.582 5.66 1.62 1.43 1.99 2.949 6.075 2.402 8.477-.933 4.106-2.762 3.59-6.363 4.946-2.45.922-6.559 2.039-9.133 2.078-2.262.035-8.258.457-10.234 1.094-2.352.757-5.954 3.007-8.305 2.609-2.313-.395-10.457-7.59-12.977-9.352-3.847-2.699-6.949-9.375-8.949-13.507zm29.024 8.785c.02-.063 5.543-3.469 6.238-3.985 1.656-1.226 4.324-3.37 5.484-5.03 1.418-2.036 3.149-3.716 4.54-5.977 2.038-3.317 1.624-4.938 2.753-7.465 2.883.308 3.074 6.261 2.715 8.422-.59 3.515-8.633 10.496-11.77 12.27-2.457 1.394-7.324 2.741-9.96 1.765zm-36.297-29.446c.125.067 13.86 17.946 10.808 19.532-.465.242-4.566-1.875-5.257-2.305-1.286-.797-2.934-2.664-3.786-3.914-1.379-2.02-1.918-3.48-1.89-5.941.011-1.207-.266-6.762.125-7.372zM78.37 130.156c.578-.183 3.242.582 4.082.653 1.68.148 9.79-1.797 11.79-2.657 2.097-.902 4.679-2.222 6.76-2.84 1.618-.48 6.188.786 7.462 1.688-3.188.797-7.375.98-10.176 2.578-1.36.777-2.652 1.754-3.965 2.39-1.281.626-3.656 1-4.379 1.989 5.512-.914 3.532-.34 7.97-2.887 1.237-.71 7.226-2.656 8.401-2.16-.09 1.453-9.011 6.336-10.586 7.094-5.226 2.516-7.64 4.226-14.03 3.758-1.282-1.223-3.618-8.106-3.329-9.606zm-52.566-6.02c5.293.88 4.52 2.212 11 .837 4.16-.88 6.918-1.657 11.238-1.914 4.066-.246 14.168-.59 17.996 1.023 1.398.59.543 4.383 2.238 4.082l-.808-2.437 1.511 2.925.387-1.425c3.64 4.543 3.172 9.902 5.031 12.21l-2.175-8.89c1.535-.41 1.527 2.098 1.554 2.512.793.25.266-1.079.805.937l1.547 7.266c.808 3.925 3.851 6.902 4.355 7.863-2.968-.855-6.48-.148-8.789-1.777-6.343-4.48-12.695-18.653-13.09-18.965-.238 1.43 3.844 9.418 4.934 11.148.816 1.297 4.203 5.707 5.383 6.832.539.512 1.957 1.11 2.187 1.575-.625.082-7.09-.965-8.25-1.13-2.609-.367-4.129-1.546-5.957-3.449-3.75-3.894-5.109-7-7.148-11.785-.7.828 2.523 6.848 3.406 8.203 1.067 1.625 5.645 6.153 5.676 6.215-3.313.012-14.043-4.574-17.234-6.691-1.957-1.297-5.266-3.403-6.813-5.012-.434-.453-6.203-5.598-6.254-5.617.797 2.285 7.492 8.844 9.688 10.258 2.054 1.32 3.875 2.746 6.09 3.863.976.492 6.539 2.812 6.699 3.144-7.559.985-18.852-4.398-19.242-4.39 1.14 2.344 10.921 4.953 13.457 4.941 1.816-.004 2.507.266 4.359.051 1.77-.203 1.91-.617 3.465-.129 2.199.684 5.55 1.2 7.383 1.852.097 1.37-2.805 2.273-3.614 3.347 1.5.762 3.664-3.289 7.75-2.586l-13.328 7.875c.89.637 6.91-2.906 8.153-3.68 2.203-1.37 5.156-4.53 8.058-3.702.32 2.238-5.32 4.78-7.023 5.867-1.297.824-7.266 4.375-7.66 5.418l5.183-2.153c-.016 1.43-4.195 3.688-5.484 4.344-3.668 1.867-3.164 1.516-6.434-.52-3.488-2.175-7.453-6.335-9.906-9.62-4.617-6.188-11.5-21.168-10.324-28.715zm134.257 34c.196.852 1.477 4.497 1.106 5.024l-1.008-2.906c-.765-.324.195.719-.91-.164-.777-.621-.281-.313-.773-.574-1.157-.606-2.72-6.465-3.016-7.825-.508-2.351-.602-13.25-.742-13.523-1.27 1.684-.551 13.05.117 15.95.394 1.718 1.523 4.843 2.441 6.44.457.794 3.23 5.208 3.282 5.5-4.547-3.562-7.551-12.09-7.688-17.613-.125-5.183.297-6.761 1.211-11.539.379-1.98 1.07-10.418 1.39-11.308l3.423.492c-3.825-1.59-5.118-2.07-7.711-5.445-1.891-2.461-.508-2.793 1.296-3.747 3.32-1.757 1.02.551 2.454 2.637 3.98 5.8 13.918 5.883 20.101 6.074 8.235.25 14.73-.539 22.16-4.222 3.7-1.832 5.578-3.535 9.98-3.254 4.903.312 3.938 7.137 1.884 7.644l.812-2.683c-.871-3.297-5.566-2.04-7.605-.578-.657.468-6.332 4.402-6.387 4.48 1.656 1.059 6.566-4.383 9.172-3.84 1.074 1.324 1.527 9.012.836 10.676-1.192 2.875-2.88 5.836-6.551 5.52-.613-2.899 2.191-10.497 1.793-11.524-1.211 1.652-2.863 8.14-3.215 10.242-.398 2.368-1.969 2.192-3.98 2.758-8.149 2.293-16.243 4.516-21.52 11.996-1.855-.324-1.117 1.637-2.2 3.055-.554-2.238 1.47-5.211 1.657-7.191l-2.168 3.25.379-1.625-3.43 6.488.426-7.563c-1.965.926-2.371 13.23-2.527 13.469l-.852-11.824-1.137 10.254c-.378-.465-1.93-7.703-1.917-9.68.007-1.465.367-10.773.148-11.074-.773 2.781-1.371 8.785-1.336 11.816.023 1.39.328 4.727.606 5.938zm134.258-44.62c2.637 1.914 5.746 5.875 7.567 8.597 1.984 2.973 4.539 7.125 6.062 10.317.906 1.898-.64 4.207-1.738 5.738-3.254 4.531-2.598 1.86-2.61 1.848l-1.374.816.546-2.836-2.214 2.672.597-3.844-2.039 3.156c-.523-1.312 2.93-7.476 2.133-8.453l-2.98 6.684c-.66-1.652-.512-2.91-2.633-2.106.047-1.683 1.386-3.992 1.238-6.761-.078-1.43.258-7.043-.527-7.168l-.59 3.316c-.254 0-3.067-3.074-3.477-3.566-.926-1.117-.804-5.399-1.535-5.246l-.09 3.257-4.836-4.328c-.601-2.957-.449-5.296 2.875-4.496 2.57.621 3.438.813 5.625 2.403zm-33.226 27.23c-1.23.387-2.11 2.61-3.656 1.691.273-.542 1.843-1.398 2.632-2.894.508-.965 1.52-3.285.793-4.078-1.472 5.828-4.308 6.672-9.48 3.922l.379-.742-2.45-.985 1.247-.836c-.133-.37-1.024-.277-.801-1.406.199-1.035.601-1.406.73-2.793.54-5.863-.379-7.242-1.02-11.664-.198-1.406-.527-4.606-.777-5.68-.484-2.097 1.25-2.566 2.649-1.832 2.398 1.262 3.426 7.852 9.27 11.602 6.23 4 14.859 4.504 21.94 5.879 2.579.504 3.423.797 1.673 3.132-.996 1.333-1.786 2.747-2.977 3.938-2.297 2.297-5.16 4.625-8.055 5.691.157-1.129 2.555-5.394 1.72-6.605-.013.012-2.079 4.55-2.895 5.766-.891 1.328-4.196 3.511-5.43 2.367.09-.438 1.223-.563 2.07-1.219 1.559-1.215 3.489-4.602 3.14-6.277-.073.035-2.007 4.234-3.894 5.71-1.394 1.094-6.996.165-7.914-.765zm-62.242-22.703c.648-1.645 2.742-3.957 3.918-5.348 2.082-2.453 3.097-2.914 6.187-1.71 2.121.82 9.059 6.382 9.742 8.488.965 2.96-4.617 6.152-1.246 14.535 1.2 2.972 2.938 3.68.59 5.976-.606.59-1.512 2.047-2.39 1.68-2.333-.98-1.063-1.43-.973-2.101-.868-.18-2.121 1.289-4.59-.434-.02-.617 3.508-4.555 2.52-6.832-1.423 1.574-2.235 6.797-6.493 6.656-.02-.32 4.504-8.043 5.18-8.914 1.621-2.09 4.867-7.605 3.387-10.254l-2.188 3.977c-.633-1.73.402-2.996-1.027-5.528-.38-.671-2.051-3.91-2.215-4.125l-.027 1.996-1.282-.73-.273-2.195-.54.035.122 2.265c-1.719.434-2.375.114-4.524.915-1.03.378-3.074 1.605-3.878 1.648zm-28.168-8.746c.515.41-.465 1.316 3.601.082 4.594-1.395 11.27-.383 10.625 2.879-1.918.418-8.922-.434-12.191.426-1.281.34-1.766.718-2.864-.38-.453-1.46-.292-2.12.829-3.007zm114.953 9.226c.004 0 6.402 4.985 2.023 9.368-2.906 2.91-8.324 1.105-11.887.433-6.793-1.281-15.859-3.39-19.359-9.957-1.672-3.144-3.434-7.703-7.598-6.433-1.52.464-4.105 2.687-4.562 2.257-1.715-1.605 1.566-3.546 2.68-4.093 3.363-1.664 8.234.394 10.804 2.808.887.836 6.047 7.688 5.98 8.551l-4.937-2.516c-.215 1.72 8.54 5.223 9.95 5.668 2.445.782 11.234 2.868 13.609 1.457l-5.863-.718c.89-.633 3.546-1.578 5.273-2.805 1.695-1.211 2.496-3.098 3.887-4.02zm-19.188-4.378c-1.047-.938-7.535-4.028-2.18-4.196 5.122-.16 11.235 9.403 8.45 12.059-.547-.414-.602-1.223-1-1.742-.934-1.2-.297.37-.715.496-1.684-1.918-1.531-3.914-4.555-6.617zm3.13 8.425c-1.638-.441-2.708-.816-3.923-2.18-.8-.894-1.754-2.656-2.543-3.472-.265-.27-5.113-6.473-5.113-6.473 1.223.23 4.906 4.106 6.531 5.246 1.125.786 2.14 2.04 2.88 3.125 1.933 2.856.573.235 2.167 3.754zM87.561 110.527c1.192.02.977.512 2.762-.011.887-.262 1.48-.145 2.551-.438l4.465-1.34c-.028.754-2.313 2.5-3.063 2.907a27.926 27.926 0 01-4.332 1.921c-.718-.504-2.21-2.343-2.382-3.039zm205.708-.82c.84-1.484 9.543-4.39 11.433-5.16 1.207-.488 4.227-3.3 5.004-2.715.36.27 3.836 4.203 3.89 4.438.774 3.34-7.44 6.074-9.773 6.78-2.512.766-4.015 2.18-5.844.188-1.66-1.804-3.746-2.539-4.71-3.531zm-43.024-4.73c-.91.57-1 3.53-3.43 3.8-2.066.223.004-3.898.52-4.664 2.055-3.043 7.52-3.937 10.863-3.32 7.422 1.36 15.551 2.426 19.54 9.766 1.464 2.695 2.757 9.636-.18 11.726-.657.465-2.075.793-2.86.7-.883-.102-.187-1.165-.035-1.81.895-3.8-3.867-11.722-9.379-12.433-2.754-.351-3.531 1.582-5.433.781-.758-.32-4.696-1.699-4.704-1.718 2.774-3.121 8.829-2.5 12.368-.735 5.097 2.543 7.918 7.996 8.402 8.176-1.285-6.598-11.117-12.46-19.07-10.418-2.621.672-4.664 3.5-6.297 2.633zm-111.5 6.05c1.352-2.879.961-7.398 2.445-9.379 1.715-2.285 1.422-1.8 2.102.77 1.336 5.059-2.25 8.61-4.52 12.598-2.015 3.543-2.093 5.55-3.5 8.359l-.066-4.992-1.238 8.777-1.508-4.472-.41.085 1.031 8.559-1.144.64-5.192-6.062-.332.242c.75 1.094 6.602 9.368 6.61 9.828l-9.563-5.097c.148 1.504 4.84 4.59 6.082 5.512l-14.328-2.11-.102.41 15.45 3.797c-1.282.785-7.836-.308-9.477-.719-1.766-.441-5.703-2.074-6.844-3.53.531-.61 3.961-2.325 5.762-4.388 3.945-4.523 8.52-14.601 11.308-18.73l.579.773.398-2.07.39.238.196-1.183.602.328 1.16-1.64.363 1.199c.918-1.399-.125-1.54 1.707-2.973.719-.563 1.566-1.805 2.594-1.8zm10.754 33.907c-1.242-1.48-2.168-3.692-3.68-5.407-1.257-1.43-3.285-2.976-4.336-4.484-3.476-4.996-4.039-7.988-1.968-14.05 2.312-6.778 9.93-17.942 17.75-18.005-1.188 2.211-2.836 1.223-5.625 9.098-1.309 3.703-1.23 1.996-3.278 4.062-1.71 1.73.149 4.473-.14 5.555l-1.328-1.316c-.004.05 2.132 5.215 2.37 6.32.528 2.434.708 5.18 1.012 7.543l.344-3.934c.363.618.227 3.172.18 4.036-.16 2.945-.942.421-1.227 2.902-.297 2.59-.094 5.2-.074 7.68zm3.438-31.368c-.208-1.949 1.703-6.277 3.085-7.785 2.606-2.84 3.497-2.863 7.008-3.89 1.39-.407 8.418-.97 10.117-.98 2.082-.016 3.317-.337 5.086-.415 1.602-.07 3.055 1.281 2.727 2.602-1.078.53-9.738.906-12.707 1.968-2.547.918-8 5.196-6.191 7.856.964-1.29-.024-2.613 2.562-4.375 5.047-3.434 11.48-2.602 17.406-3.442 3.621-.511 8.559-2.02 11.895-.699.508.203 8.512 4.504 8.91 4.785-.117.243-5.785 7.454-6.27 8-2.918 3.325-4.375 4.98-9.191 4.985.21-.387 2.285-3.031 2.773-3.7.926-1.277 2.07-2.035 3.375-2.8 1.34-.79 2.391-1.961 2.977-3.422.543-1.36-.758-3.746-1.707-3.797-.164 1.492 1.945 2.8-3.211 6.195-3.262 2.145-3.18 3.657-4.945 5.008-3.43.477-7.946-1.668-9.84-4.633l1.527-.476-.07-.442-3.324-.277c1.14-.883 7.418.184 9.12.188 1.677 0 6.907-.739 7.305-2.32l-3.867.98c-.96-1.895-.504-2.95-3.043-4.262-4.875-2.516-14.757-1.785-16.062 2.414-1.418 4.566 4.41 5.04 7.105 6.531 1.586.88 2.64 2.09 4.188 2.95.996.55 4.09 2.144 4.672 2.773l-16.95-.438c-.324-.101-2.894-5.074-3.261-5.746-.809 1.164 1.43 4.008 1.402 5.153-1.375.32-10.375-2.102-8.762-5.758.332-.754 1.399-1.336 1.727-2.063.328-.734 0-2.394.078-3.336.152-1.82 2.973-3.968 2.902-4.113-1.27-.719-3.64 3.653-3.82 5.508zm-53.88 9.657c-1.917 2.203-10.581 4.113-13.464 4.902-5.172 1.414-9.48-1.34-12.418-5.363-5.332-7.305-1.164-6.407 3.148-10.649 1.864-1.832 6.266-8.86 8.375-9.867-.113 2.586-.8 4.219.04 7.121.628 2.188 2.12 3.16 2.734 4.848l-2.313 1.523c-.035 4.598 10.496 5.528 10.977 6.93-1.043-.195-4.492.691-5.649.977-1.453.363-5.851-.106-6.097 0 3.18 3.91 10.93-2.415 14.668-.422zm-4.956-15.547c-1.961.886-8.91 2.383-8.008-1.582.375-1.66 3.754-5.754 5.492-5.88.14 1.31-1.406 2.302-.367 4.7 1.117 2.594 1.398 1.29 2.883 2.762zm192.41-2.88c3.586-2.667 3.347-4.753 8.84-5.847.558-.11 6.23-.496 7.046-.492 1.754.004 4.766.219 4.16 2.887-.906 1.965-9.757 3.097-10.523 2.62.219-.124 8.52-2.378 7.613-3.35-.148-.15-3.05 1.284-3.62 1.53-1.977.852-12.962 2.774-13.516 2.653zm-102.754-2.866c.308-1.504-2.067-1.864 2.187-2.5 5.852-.875 11.016-1.559 16.914-.203 6.211 1.425 11.989 4.113 17.625 6.992 2.696 1.379 5.387 2.82 7.942 4.441 3.527 2.235 4.879 2.86 4.789 7.344-.13 6.355.496 4.308-4.414 7.945-.992.735-5.961 4.895-6 5.766l7.465-5.86 2.722 1.497c-.586 1.003.758 4.015 1.535 4.293l-.765-2.688c.125.047 2.008 3.313 2.629 3.973 1.058 1.125 1.715 2.441 3.101 3.468 2.692 2 1.489 1.13 2.676 4.075.652 1.613 1.305 2.984 2.012 4.605-7.559.32-11.715-3.96-16.602-8.785-2.64-2.606-3.43-1.379-6.418-1.879-1.851-1.621-2.27-6.11-1.441-8.332 1.652-4.457 4.597-7.39-3.988-12.887-5.11-3.27-2.57-5.804-3.805-6.632l-.137 3.664c-2.906.18-2.469-4.27-3.87-5.645l.023 4.152-3.993-4.246 1.649 3.653c-2.489.593-.918-.836-2.614-1.715-.765-.395-2.117-.637-3.207-1.145-2.308-1.086-3.18-2.34-5.695-3.097-4.691-1.418-9.445.902-11.531.632-1.02-.132-1.766-1.652-1.309-2.546 1.215-.625 1.782 1.113 2.52 1.66zM68.633 121.727c-3.945-1.168-7.121-2.079-11.375-2.012-.395.008-5.613-.29-5.664-.313-.793-.343-2.621-2.836-3.164-3.636-1.86-2.723-2.578-7.653-2.551-10.887.016-2.102-.332-11.336.582-12.61.09.012 4.41 3.864 6.027 4.598 5.774 2.633 16.094.742 18.871 2.73.762.54 2.696 6.883 2.52 7.934l-1.238-.972-.504.703-2.278-5.25 1.946 8.101-1.875-.851.68 1.965c-1.985.406-1.372.117-2.391-1.543-1.281-2.09-3.489-7.91-4.348-8.106l3.16 9.082c-1.047-.09-7.691-3.695-8.883-4.613-.796-.617-7.3-5.832-7.43-5.871.434.808 4.856 5.203 5.731 5.875 2.45 1.886 4.73 3.004 6.922 4.511-.867.563-5.504 1.106-6.625.856-1.719-.379-5.086-1.813-5.71-1.898 1.077 2.09 6.16 2.566 8.671 2.527 1.531-.024 3.281-.906 4.77-.508.648.172 2.39 1.395 3.734 1.785-1.82 1.211-9.973 1.188-10.996 3.63l10.87-2.638c.368 1.692-6.76 3.215-8.413 4.454 1.152.554 6.223-2.211 7.543-1.125.472 1.132-2.172 1.968-2.742 2.355l3.535-.414zm188.36-22.668c.167-.414 3.023-2.754 3.765-2.98 5.765-1.74 10.066 1.773 14.316 5.5 2.446 2.14 4.617 4.745 7.656 6.257 2.567 1.277 2.997.8 2.305 4.125-.215 1.008-.515 4.937-1.23 5.312l-.82-1.738-.372 2.422-.898-2.633c-1.3-1.644-.332-.523-1.254-2.601-.531-1.188-1.066-2.36-1.856-3.395-8.277-10.906-18.44-8.613-21.613-10.27zm-161.391 7.086c.203-.551 3.53-4.63 4.207-5.305 1.77-1.762 3.882-3.492 6.578-2.656-.067 3.507-7.34 8.75-10.785 7.96zm135.414 1.91c-.563-.965.644-2.645 1.285-3.582.32-.47.62-1.086 1.02-1.621 1.261-1.704 4.62-5.665 6.429-6.332.102 1.554-3.996 3.855-4.988 5.156-.465.61-.602.902-1.13 1.492-.577.648-2.132 3.996-2.616 4.887zm-65.668-9.332c-.871.18-2.801.332-3.754.422-.465-.52-1.707-2.489-1.707-3.047.922-.149 1.922.804 2.734 1.277.7.402 2.238 1.012 2.727 1.348zm82.457 34.613c-.09-.074-2.22-4.406-2.621-5.063-2.735-4.468-7.844-9.433-9.227-14.418-1.633-5.898-.863-7.585 2.64-11.914 1.419-1.757 2.56-2.113 3.497-4.394 1.66-4.031.562-2.442 4.52-3.383 2.023-.48 14.382-.039 11.39 2.73-2.387 2.208-1.711 2.633-5.203 2.739-1.684.05-4.051 1.449-5.688 2.18-3.445 1.539-7.644 4.156-7.328 8.511.074.989.344 1.055.36 1.707.027.965-.274.442-.31 1.489-.065 1.746 3.274 7.546 3.974 7.671.683-1.722-4.008-6.914-3.399-8.363 1.348 1.926 4.617 6.98 5.465 9.137.715 1.836 3.555 9.805 1.93 11.37zm-17.356-29.168c1.164-3.316 6.805-8.906 9.29-8.617-.083.277-.755.676-1.122.945-1.187.883-2.687 1.906-3.777 3-.781.785-1.508 1.516-2.254 2.254-1.055 1.047-.746 1.41-2.137 2.418zm-81.89-8.277c-.387-.645-.16-1.422-.258-2.266-.113-.953-.426-1.016.504-1.438.707-.32 3.578-.402 4.394-.226 2.578.555 5.086 3.152 6.07 3.344-.64 1.238.665 1.715.376 3.511l-.47-.765-.417.89c-.57-1.617-1.238-3.796-2.465-4.757-.504 1.093.84 3.257.504 5.007-1.613-2.539-.375-1.496-1.324-2.906-.668-.992-.641-2.84-1.66-3-.258.477.523 2.348.12 3.383-.175-.094-.98-3.629-2.003-3.996-.82.613.406 3.488-.047 5.004-.442-.59-.387-4.078-1.656-4.758-.786.746.765 3.762-.086 4.906-.293-.922-.203-3.941-1.301-4.36zm-41.77-.075c-2.664.504-3.39-.129-6.234 1.461-3.575 1.993-6 7.97-7.27 8.114-2.031.23-1.832-4.004-.832-5.32.84-1.106 3.05-1.973 4.426-3.278 1.379-1.309 2.035-3.41 3.328-4.379 1.875-1.41 6.402-4.094 7.406-.656.625 2.144-.918 1.043-1.66 1.129l.77.933c-.942.301-1.723-.101-2.285.246-.692.422.742.293-1.036.754-.949.246-2.984.856-2.914 1.918 1.102-.644 5.278-1.652 6.301-.922zm-20.23 7.106c-1.172-5.016 8.957-15.23 13.394-16.938 3.762-1.453 9.168-1.097 11.629 2.512 3.613 5.297-2.644 10.102-2.797 10.129-.719-1.047 1.938-6.652-1.472-9.418-2.364-1.922-6.38.754-8.297 2.395-1.356 1.164-1.586 2.14-2.594 3.41-.59.742-2.625 1.82-3.55 2.468-2.087 1.47-4.458 4.286-6.313 5.442zm224.761-11.18c-.203-3.422 12.618-2.656 14.746-2.625 6.254.078 9.766-.472 15.727-1.832-.363 1.547-5.059 9.555-6.168 11.574-5.781 10.512-4.797 14.489-14.344 21.329-2.625 1.878-7.496 7.55-10.922 6.874l2.868-1.449c-1.696-.117-4.946 1.551-6.11-.699l7.86-2.621c-1.172-.371-8.2 2.227-8.7.777l9.864-3.547c-.563-.343-8.793 2.48-11.286.774 2.157-.399 10.668-2.383 11.532-3.828-.825.047-5.14 1.347-6.785 1.636-1.883.336-4.387 1.727-5.598-.601 1.742-.176.84.465 2.71-.246.993-.38 1.657-.309 2.763-.621 1.714-.496 3.507-.965 5.222-1.492 1.7-.516 3.43-1.196 5.125-1.692 1.207-.355 4.688-.844 5.473-1.25-1.055-.844-8.129 1.32-9.64 1.77-2.137.632-7.063 2.879-8.954 1.449 1.91-1.875 11.485-5.867 14.875-6.734 1.668-.426 4.3-.864 5.785-1.395-1.515-1.148-11.285 2.875-12.699 2.922.629-1.91 3.547-1.274.535-7.242l19.742-9.961-20.992 9.043c-1.383-2.266.442-1.305.086-2.88l-1.375.923 5.43-7.496-6.5 5.62-.34-.343.785-1.344-1.41.531 2.168-2.039-1.856.278 1.801-3.793zm-208.18 42.926c.063-.23 5.344-4.367 6.07-5.082 8.228-8.055 9.677-14.254 15.208-19.727 4.918-4.863 6.582-7.234 10.25-13.05 1.625-2.579 3.113-4.754 3.805-7.805.433-1.914.379-2.961 2.609-3.215.852-.094 4.344-.668 4.79-.207 1.026 1.07-2.22 10.746-7.614 15.012-5.738 4.535-8.086 4.531-11.617 11.656-2.192 4.418-4.922 11.617-8.227 15.074-3.406 3.563-2.863 2.801-7.383 4.309-1.078.36-7.625 3.054-7.89 3.035zm6.563-11.41c-1.543.847-15.125-3.89-17.445-4.75-5.992-2.215-4.684-1.645-.676-3.512 2.508-1.172 4.598-2.664 6.328-4.781 3.469-4.242 9.227-6.086 12.34-10.207 1.79-2.367 3.613-3.653 4.43-6.852 1.113-4.367-1.852-5.367-3.149-7.785 7.512.375 6.797 6.957 6.797 12.93 0 3.031-1.152 15.46-2.117 17.629-.016-.024-2.027-6.102-2.828-7.438-1.145-1.914-5.418-3.8-7.305-2.488.176.129 2.965.707 4.192 1.465 3.273 2.031 5.378 9.258 4.23 11.96l-3.313-2.484 2.442 4.157-2.84-1.528-.262.34 1.875 2.168c-.863-1.086-9.511-2.066-11.308-1.703zM105 83.028c1.473-2.27 11.063-3.239 13.637-2.708 2.543.524 4.617-.293 5.078 3.36.324 2.543.133 4.707 1.258 7.218 1.402 3.118 5.215 9.305 2.375 12.68-1.047 1.242-7.227 8.05-8.102 8.688-.266-4.829 2.652-11.137.543-21.024-.605-2.844-1.16-5.988-4.441-7.035-2.606-.84-9.137-.375-10.348-1.18zm-23.406 18.519c-.047-.227 1.969-6.844 2.23-7.688.602-1.96 2.047-5.097 3.438-6.687 3.125-3.578 9.851-6.856 14.242-4.52C100.246 84 92.73 85.437 86.52 94.078l-.403-.758c-.547 1.465-3.14 7.926-4.523 8.227zm81.129-18.457c0-1.059 1.21-4.215 1.953-4.695.21 1.125-.957 6.62-.543 7.46 1.078-1.71.402-4.152 1.285-5.804.14 1.222.078 1.183-.207 2.254-.34 1.277.387 3.191-1.473 5.597l-.336-.695c-.02-.039-.05-.082-.07-.129-.32-.707-.164-.629-.238-1.308-.13-1.153-.371-.868-.371-2.68zm2.582 4.187c-.2-.816 1.367-8.41 2.164-9.511.277 1.324-.746 4.324-.012 4.933.492-.789.3-3.058.84-3.86 1.23.813-.824 5.696-1.3 6.845-.505-1.149.874-1.899.007-2.68-.719 1.062-.684 3.555-1.7 4.273zm-47.371-9.5c.433-1.996 7.832-2.507 9.746-2.007 2.379.617 6.773 1.886 7.722 4.492 1.004 2.75 1.176 7.672-.007 10.351-.493 1.117-3.7 7.149-4.465 7.512-.02-.02-1.797-4.934-2.39-5.918-3.161-5.254-1.427-10.176-4.188-12.715-2.024-1.867-4.793-1.078-6.418-1.715zm18.41-1.07c-1.32-1.371-1.742-1.125-3.074-1.8.457-.657 1.367.171 2.152.23.898.062 1.758.117 2.648.183 1.38.106 4.196-.53 4.934-.465l-.184 3.825c-1.132 1.183-2.422.949-4.035.86-.762-.645-1.57-1.927-2.441-2.833zm-32.086-5.172c.191.352.453 1.274.719 1.8.918 1.83 2.71 4.349 2.664 5.286-.907-.367-1.211-.465-1.657-1.234l-1.546-3.883c-.172-.688-.532-1.254-.18-1.969zm180.3-3.469c1.774.993.942 2.465 4.493 3.555 2.742.84 6.156.055 4.258 2.375-1.262 1.547-4.266-.433-5.59-1.21-1.774-1.04-3-2.458-3.16-4.72zm-112.562-3.632c.621-.649.867.796 1.598 1.695.664.812.98 1.476 1.52 2.297.82-.41.066-1.403 1.327.484.454.676.977 1.328 1.391 2.004 3.012 4.938.965 3.57.797 3.621l1.586 3.547c-2.13-.469-11.16-10.582-8.219-13.648zm-22.973-7.168c1.594 2.41 1.356 10.246.676 13.058-.367 1.524-2.144 11.457-3.097 11.692-2.403.586-.727-11.59-.418-13.11.398-1.957 1.28-11.027 2.84-11.64zm135.536 10.8c-.84-.418-.805-2.222-1.051-3.105 1.648-.441 3.566.469 4.62 1.602.786.843 2.442 2.867 2.435 3.921-2.075.118-1-.777-2.16-1.582-.774.88.304.297-.298 1.207-1.851-1.375-2.757-3.015-3.613-3.18zm-176.211 4.871c-.57-1.59-1.446-2.3-1.442-4.492 0-1.715.297-3.132 1.457-4.355.457.879-.547 2.37.02 3.355l.75-2.578c.285.438.828 3.078.87 3.79.056 1.019-.347 2.952-.816 3.956l-.57-.531c-.738.711.09-.004-.27.856zm182.8-8.085c.063.164 2.364 2.546 1.954 5.609l-1.399-.012c-1.723-3.488-2.902-5.062-6.539-6.367-.652-.238-.848-.043-1.348-.324.954-.723 3.07-.785 4.18-.418.906.297 2.336 1.363 3.152 1.512zm-113.757 33c-5.442 1.453-5.582-4.02-5.618-7.63-.046-5.019 1.387-5.718-.039-11.562-1.3-5.308-6.402-11.95-3.832-14.344 1.075-1 3.555-1.742 4.957-1.37-.57.667-4.695 1.581-.8 8.284 1.515 2.61 3.289 4.606 5.52 6.684 2.573 2.395 9.648 11.43 9.444 14.961l-4.003-6.992 3.457 9.879-5.399-1.977.777 1.695c-1.347.043-3.851-2.07-4.933-3.199-1.629-1.703-2.063-3.664-2.961-4.797-.668 1.075 1.223 4.551 1.828 5.563.625 1.031 3.438 3.484 3.57 4.105l-5.972-3.906c-.024 1.438 2.972 3.586 4.004 4.606zm16.816-36.168c-.73.605-2.281.734-3.371 1.332-1.27.695-2.008.46-2.504-1.098-1.91-6.012 7.754-7.172 11.8-6.18 1.536.38 4.919 2.395 5.044 4.008-2.727.957-4.61-1.18-7.227-1.148-.695.011-2.976.476-3.765.617-1.707.305-2.243-1.305-2.946-.672zm37.297 9.691c1.27-1.184 2.516-3.996 1.535-5.668l-.41 1.719-4.399-4.117c-.492-2.782 2.63-2.309-5.652-6.536-6.598-3.37 1.277-1.847 3.945-.55 4.11 1.988 11.118 7.273 15.551 9.996 3.496 2.152 4.215 4.351 4.328 8.414.106 3.805-.25 7.094-2.632 10.137-1.56 1.984-12.149 9.597-14.563 10.656-.168-1.946 2.496-6.965 3.305-8.996.57-1.442-.492-.739.734-2.602 1.34-2.031 6.344-8.863 4.7-11.219-.739.797-.516 3.97-2.184 4.653 0-1.457-.098-6.45-1.38-6.82l-2.253 8.413-.488-.132 1.394-5.125-.375-.11-2.148 4.782c-.23-1.86-.473-5.524.992-6.895zm-18.809-11.957l-1.879-4.34c2.223-.562 9.395 2.852 11.73 4.004 1.817.898 4.606 1.586 3.4 3.887-.864 1.652-3 2.484-4.66 3.254-4.255 1.976-9.493.933-14 .21-2.47-.39-12.919-.64-14.282-1.433.695-2.629 18.402-3.742 19.691-5.582zm-62.914 29.008c-.074-.2-1.226-5.563-1.277-5.996-.258-2.235 1.941-9.364 2.332-12.086.348-2.403.27-4.285.543-6.57.726-6.133.262-5.415 5.613-8.852 1.156-.742 8.266-5.906 8.43-5.957l3.707 12.36-2.899-6.993 1.633 7.406-1.61-.422-1.343 3.434-.414-.8-.312 1.046-.559-.504c-.508 2.5 2.2 7.903.707 8.418l-3.875-8.867c-.508.879.719 3.812 1.004 4.98.488 1.993.5 3.696.86 5.567.488 2.543-.243 2.562-1.114 4.844-.488 1.273-1.121 5.027-1.246 5.148l-.219-2.055-.91 6.04-1.695-5.602.035 6.265c-1.504-.816-1.504-5.273-2.055-6.152l.008 5.863c-1.719-.336-1.016-4.257-2.27-4.757l-.14 4.535c-1.125.273-2.356-.164-2.496-1.36zm35.594-25.059c-2.719.446-11.695-12.793 9.953-12.832 3.586-.004 10.508-.262 12.906 2.746.68.852 2.434 3.98 2.91 5.032.84 1.847-3.87 1.566-4.87.312l.488-1.363c-3.473-2.461-8.723-3.79-12.91-2.867-2.059.457-4.168.648-5.797 2.277-2.16 2.16-1.508 4.465-2.223 5.371l-1.07-1.61zm105.773 1.485c-.324-.97-2.671-1.946-3.73-2.325-3.55-1.261-3.117.282-4.262.035l1.043-3.675c2.047-1.164 4.738 1.488 6.293 2.496 2.399 1.55 2.899 5.168 3.61 5.66.957-1.086-1.047-4.148-1.93-5.086-1.563-1.648-2.379-2.129-4.145-3.39-5.285-3.77-6.964 1.269-5.812 5.804 1.258 4.95-.324 7.332 5.027 10.02 4.164 2.086 5.504 3.523 9.074 5.953 4.145 2.82 2.063 3.824 1.114 3.535-.434-.129-3.188-3.07-3.825-3.645-3.718-3.375-4.617-4.027-9.382-5.636-3.555-1.2-4.828-5.977-5.7-9.313-.484-1.855-1.289-4.402-.07-6.137 1.695-2.418 4.508-1.886 5.055-2.347-1.653-1.32-6.922 1.094-8.348 1.71-.566-3.074-3.902-4.183-4.16-4.937 3.64-3.554 15.145.887 19.363 2.867 5.582 2.625 9.371 7.766 11.903 13.278 2.902 6.332 5.609 11.629 6.511 18.613.606 4.676-.64 6.406-4.836 7.39-2.933.692-7.144-2.421-10.52-.304l6.216.422c-.086.133-7.7 1.672-9.778 2.887-1.23.714-6.64 5.582-6.882 5.527l.996-1.692-2.387 1.153c-6.106-3.715-8.238-9.445-16.578-10.324l4.691-.524-4.918-1.3 2.836-3.766c-.988.5-2.777 2.457-3.508 3.402-3.285 4.223-2.789 1.621-3.168.793-1.37 1.223-1.453 1.777-3.222.895 1.14-.602 3.984-1.836 4.875-2.637.508-.457 3.023-3.79 2.941-3.902-.129-.051-7.25 5.964-10.07 4.964l.191-1.761-.98.617.137-1.914-.801.582c-.004-.106.332-3.05.37-3.516.098-1.191 1.247-2.215 1.243-3.36l-1.402 1.575c-1.184-1.766 6.656-8.254 7.675-10.074-2.601.355-7.05 7.512-9.238 9.394-1.078-7.761 7.953-11.242 8.356-13.164l-5.149 3.602c.02-2.594 10.348-11.578 11.063-12.512.566-.742 3.004-4.402 3.36-4.558 2.546.332 4.589 8.296 5.163 10.46.504 1.895 1.305 4.227.996 6.211-.398 2.622-1.922 4.875-2.008 5.645 2.735-1.418 2.692-4.34 3.704-6.363 3.949 5.703 3.34 3.3 9.105 5.953 3.262 1.5 5.445 4.601 7.984 7.055 1.641 1.585 6.582 6.238 8.688 6.316 4.101.152 2.652-8.692 1.297-10.676-.559.902 1.199 5.68-.649 8.008-1.257.512-6.18-3.238-6.691-4.285l2.672-.668c.543-2.77-2.828-3.621-4.07-5.485.468-1.53 3.972-5.914 2.164-8.187-.043.078-.715 5.812-3.29 7.39l-2.601-1.972c.574-1.43 3.504-1.29 1.777-5.727-.586-1.504-1.535-4.918-3.383-5.05zm-66.453-11.668a83.871 83.871 0 011.813-.688c.707-.234 1.215-.45 1.875-.777l3.144-1.98c.286 1.218.055 2.613.094 3.874.035 1.125.473 1.934.453 3.309-.699-.11-2.812-1.531-3.578-1.906-1.25-.602-2.582-1.168-3.8-1.832zM247.41 86.89c-.941-.996.547-6.258.703-7.903.262-2.664.133-6.945.66-9.14 1.325-5.5 12.903-11.868 14.528-14.559 1.453-2.422.273-5.719 4.637-4.434 3.32.98-.778 2.16-1.079 5.93-.14 1.73-2.593 4.36-4.222 4.965l.445-1.867c-.36.101-1.95 3.32-2.484 3.957-.957 1.137-2.133 2.539-3.172 3.586-1.29 1.297-2.051 2.14-3.11 3.648-.238.336-2.285 4.153-2.402 4.149l2.215-8.688-3.043 5.88c-.805-1.587 1.687-5.048 1.348-5.856-2.262 1.035-2.524 7.933-2.43 10.336.238 6.07.203 5.34-2.594 9.996zm-143.676-7.82c-.566.882-6.082.386-7.718.546-2.86.281-4.036 1.242-6.426 2.078-2.715.946-7.86-4.738-9.23-6.863-4.739-7.332-6.645-19.305-5.262-27.793 1.816-11.168 1.172-5.617 4.875-1.875 3.297 3.336 5.855 4.664 10.054 6.664 3.672 1.75 7.582 3.52 11.012 5.707 2.207 1.406 3.547 1.754 3.684 4.77.047 1.047-1.254 4.824-1.785 5.78l-.872-.76 2.059 8.905c-3.742 1.403-4.332-13.261-5.504-15.648l1.25 12.574c-.68-.148-4.43-3.808-4.66-4.879-.441-2.027-.05-8.183-.402-9.09l-.149 9.211c-2.816-.648-13.035-16.597-13.097-16.605-.27 1.645 4.972 8.969 6.167 10.59l5.829 6.96c1.84 1.81.437.762 0 1.493 2.347.691.379-.793 2.957 1.547.687.625 2.183 1.625 2.183 2.57-2.89.285-7.707-.426-10.457-1.219-5.504-1.582-5.797-3.074-7.969-4 .899 2.106 7.446 4.793 9.594 5.332 2.051.516 4.469.871 6.649.86 1.328-.004 5.414-.184 5.418 2.172l-12.239-.133c1.2 1.836 13.282.453 14.04 1.105zm98.98 14.605c-.425.644.2 2.168-1.171 2.344-1.203.16-1.785-1.11-2.148-1.051-2.352.386-3.422 1.004-6.235.23-2.476-.68-5.23-5.797-6.45-7.988-1.983-3.566-3.483-5.996-4.37-10.078-.883-4.04-1.762-6.903-4.137-10.356-2.851-4.136-4.39-5.445-3.453-11.004.7-4.175 3.977-5.656 7.559-6.941 6.105-2.191 18.668-2.527 23.793 1.996-5.883-.254-8.844-2.45-18.047-.344-11.547 2.641-7.407 9.489-8.137 10.594l-1.48-1.437c-1.38 2.195 6.988 6.074 8.671 6.55 4.516 1.278 9.211 1.73 13.848 1.954 5.684.27 23.762 2.609 27.98-.766l-3.324-.117c.535-3.899 8.89-.45 3.602 3.136-4.336 2.946-3.918 4.383-2.64 9.254 1.8 6.864.581 16.325-2.9 22.594-.831.176.575-.746-1.027-.125-.632.246-2.117 1.79-3.472-.773L216.73 101l-1.101-7.223-.39.028-.196 6.187c-2.05.18-1.86-4.344-2.238-6.008-.207-.93-1.586-5.77-2.059-6.132l1.484 10.41-8.91-2.16zm15.356-38.403c-7.558-2.836-5.93-.582-9.843-3.859-.711-.598-2.059-1.441-2.336-2.07 1.3-.25 1.105-.02 2.097.226.696.172 1.442 0 2.16.102 3.094.43 7.801 4 7.922 5.601zm-81.53-11.468c.097-2.051 4.386-3.344 5.96-3.504-.2.789-4.852 3.554-5.96 3.504zm-3.833 1.476c-5.512-3.414 4.5-10.644 11.063-8.46 6.023 2-3.708 2.382-5.004 2.89-4.77 1.867-3.84 4.059-6.059 5.57zm17.996 11.403c-1.41-1.383 2.852-5.891 3.945-6.934 1.665-1.59 4.63-3.8 6.524-5.125 1.148-.8 2.324-1.555 3.418-2.398.976-.754 1.62-3.364.457-4.082-.445.792.598 1.449-.914 2.492-.461.32-2.11 1.058-2.59 1.074-.832-1.453-1.04-2.191-2.125-3.672-1.344-1.832.223-1.71 2.477-1.879 2.355-.176 7.62.918 6.824 4.352-1.168 5.05-7.258 9.136-11.281 11.836-.833.55-6.52 4.547-6.735 4.336zM219.72 26.73c.84.422 2.097 4.036 2.48 5.274 1.02 3.316.301 3.238-.054 6.164-.247 1.988.566 3.96.445 6.625-.094 2.082-.649 4.52-.832 6.867l-2.7-.101.649-1.27-1.46.926 1.358-1.969-2.285 1.121.203-1.008-1.753.368-.25-.512 3.34-2.703-3.977 2.21-3.188-1.292 5.528-4.266c-1.516.05-5.801 4.496-8.426 3.559-.676-2.368 3.7-4.016 4.36-5.762l-3.946 2.918c-1.395-3.84 2.715-6.86 4.465-9.309 1.683-2.351 4.61-5.57 6.043-7.84zm-92.535 19.344c.093 1.957 6.332 1.711 8.148.88 1.5-.688 5.66-3.192 6.73-4.345 1.168-1.246 5.598-5.75 5.442-1.629-.106 2.82-3.129 4.528-5.367 5.641-6.145 3.04-10.586 4.524-17.086 1.18-4.004-2.059-3.399-3.145-1.078-6.559 1.097-1.613 3.828-4.351 5.394-5.496 3.946-2.871 11.422-5.394 16.25-5.746 4.946-.36 10.055 5.527 12.61 9.25 4.02 5.871-1.407 3.34-7.196 11.57-4.933 7.02-5.195 6.692-6.418 15.559l-20.898-6.395c1.156-3.945 16.164-7.289 20.293-7.84.62-.081 2.539-.703 3.691-.91 1.32-.234 2.98-.035 3.07-1.34-2.984.485-6.109.434-9.03 1.051-7.18 1.512-8.614 1.39-15.528 4.403-2.106.918-4.852-2.762-6.477-2.707l4.434 3.636-2.664.543c.422.477 1.781 1.032.52 1.973-.774.57-1.672-.027-2.422-.465-4.875-2.848-6.372-10.418 1.394-10.59.324-.008 5.68 3.473 9.703 3.63 5.059.194 6.453-.825 10.883-2.5 2.984-1.134 6.516-2.743 7.48-6.02 1.055-3.602-1.816-6.953-5.292-7.512-5.075-.82-11.563 1.098-14.211 5.836-.579 1.035-.664 1.707-.465 2.855.293 1.672.148.532-.73 1.332l.769.95zM239.48 60.875c.083-1.219 4.563-9.793 5.47-11.18 5.55-8.472 23.527-16.312 32.073-17.644.012.402-2.386 4.965-2.39 7.832-.008 3.12-.043 6.73-.442 9.836l-2.843.633c-2.442-1.844-6.727-3.754-8.7-.043-.957 1.796-.296 3.316-1.734 4.648-.46.426-3.215 2.246-3.773 2.418 1.293-2.645 3.847-6.977 5.476-9.547.738-1.164 5.836-8.617 5.922-8.851-2.363.324-12.371 17.293-12.601 17.261l-.317-12.574c-.766.973-.902 7.73-.719 9.398.246 2.262 1.067 6.364-2.093 7.223-2.746-1.988-1.329-10.367-2.11-11.867-.808 1.176-.437 5.41-.297 6.887.207 2.16 1.625 4.683 1.153 6.515l-1.032-.664-.593 1.2-3.325-10.544c-1.093 1.364 2.067 8.41 2.262 10.083-.937.492.098-.793-.902-.149-.809.524-.055.465-.625 1.328-.137-.625-.45-2.18-.52-2.246-1.925-1.828-1.168-6.187-2.445-8.27l.266 8.223-2.387-4.605c.008.722-.098 4.664.203 4.976zm-68.53-23.457c-1.692-3.89-4.305-3.73-4.204-4.652.11-1-.586-.758-1.367-1.508 3.508-.422 4.773-.668 8.207.523 3.187 1.102 1.832 3.89 1.836 6.614.004 3.03.094 6.207.012 9.218-.063 2.446-2.086 4.45-2.586 6.801l-1.828-.39 2.054-12.301-.449-.082-2.773 12.05c-1.114-1.699-2.036-6.257-.274-7.691l-.125 2.008c1.602-1.57 2.508-8.266 1.496-10.59zm-57.337 38.328c-.664-3.031 2.305-7.082-1.703-11.988-2.097-2.57-5.781-5.645-7.226-8.363-3.871-7.278 6.808-13.93 11.359-18.32 2.512-2.423 5.266-5.673 8.36-7.227 3.492-1.75 14.206-1.809 10.925.367-3.457 2.293-6.281 2.848-9.558 6.062-2.48 2.43-5.622 6.203-5.192 9.785-1.219.88-4.445.383-5.66 3.036-1.883 4.097.539 5.039.512 6.886-2.27.383-3.672-4.324-2.735-6.879.903-2.46 2.696-4.238 4.035-6.328-2.066.907-5.234 6.766-5.316 8.953-.234 6.31 12.211 10.247 17.121 11.778 1.54.48 10.672 2.93 11.149 3.254-.993.293-6.461-.934-7.758-1.254-1.063-.258-6.235-2.465-6.61-2.145 4.106 3.66 16.692 4.68 18.493 6.223.265 6.594-11.762 2.789-15.102 1.816-10.117-2.949-13.57 3.735-15.094 4.344zm24.918-46.48c.059-1.055 3.957-3.477 4.969-4 2.445-1.262 4.688-1.41 7.367-1.657 3.488-.316 11.77 1.47 11.785 6.145.012 3.117-1.433 4.7-4.53 4.687-2.06-.007-3.079-2.242-5.18-3.808-5.993-4.457-11.598-1.11-14.41-1.367zm81.188-2.536l-10.149 11.7c-.414-1.688.118-5.528-.129-7.543-.59-4.914-1.46-8.23-2.093-12.934-.153-1.133-.418-6.734-.567-6.941-1.265 2.297.262 10.02.656 12.687.278 1.848 1.665 11.785.481 12.961l-7.04-7.09c.349 1.16 4.052 5.028 5.153 6.2 1.074 1.148 2.25 1.703 1.953 3.417-.273 1.563-.32 3.387-.71 4.961-1.747-2-2.731-3.789-4.817-5.375-.86-.648-5.195-4.226-5.742-4.277.555 1.418 10.668 8.61 9.988 12.063-1.035 0-4.008-.473-5.082-.754-1.734-.446-2.371-1.867-3.969-2.164l.996 1.351-5.062-.594c-.977-6.21 1.351-16.062 4.316-21.636 1.36-2.547 8.465-15.285 10.125-16.07.664.581 1.735 4.343 2.465 5.632.922 1.625 1.906 3.43 2.95 4.95 1.062 1.554 6.156 8.148 6.277 9.456zM311.8 87.734c-3.653-9.882-6.996-23.925-16.278-31.195-5.543-4.336-10.968-4.984-17.437-6.402-2.215-.489-1.188-3.043-.996-4.63.234-1.972.012-3.702.11-5.624.218-4.281 2-5.215 3.413-8.45 1.989-4.538-5.12-1.683-6.87-1.206a95.474 95.474 0 00-8.942 2.906c-5.07 1.93-11.063 4.957-15.328 8.312-5.536 4.348-7.207 7.164-10.325 13.352-6.382 12.668-4.324-8.016-5.066-8.598-1.207-1.613-7.508 4.461-9.352 4.09-.347-1.762.805-5.094.801-7.379 0-2.5-.406-4.715-.386-7.531.02-3.106-2.547-9.43-4.348-12.129-2.25-3.375-4.52-6.363-6.7-9.832-1.152-1.836-1.921-3.492-2.718-5.504-.734-1.851-1.02-4.976-3.285-5.004-2.64 1.23-10.426 14.332-11.957 17.516-1.66 3.465-3.258 7.12-4.063 10.762-.472 2.14-.457 4.632-.867 6.46-.402 1.805.207 5.817-.398 6.97-.68.241-5.403.69-6.696.964-1.383.293-5 1.879-5.664 1.973-.262-1.739-.558-6.426-.566-8.223-.02-4.895 2.965-9.195-5.985-10.531-.984-.145-3.085-.613-3.925-.508-1.32.16-2.332 1.047-3.09-.59-3.66-7.871-18.742-7.762-25.18-2.844-3.941 3.012-2.183 1.305-6.383.989-8.535-.637-12.144 2.3-18.023 8.226-2.824 2.848-6.473 5.606-9.27 8.383-6.754 6.715-3.465 8.086-4.394 12.371-4.293-2.621-9.785-4.844-14.426-7.312-7.191-3.832-9.05-10.864-10.281-11.559-2.742.152-4.235 9.863-4.457 12.207-.477 5.031-.028 10.438.812 15.356 1.004 5.898 4.09 12.5 7.48 17.488.731 1.07 3.641 3.914 3.876 4.379-.008.086-3.13 6.117-3.57 7.394-.56 1.602-2.094 6.864-3.012 7.84-1.285-.433-3.77-2.918-6.934-3.984-2.953-.996-7.066-.746-10.3-.73-2.641.011-7.102-.298-9.098-2.028-1.7-1.469-4.309-4.871-6.746-3.914-1.66 1.078-2.055 19.144-.125 24.293.265.695 2.925 5.707 2.925 5.758-1.414.34-4.004.68-5.578.96-1.883.337-3.668.883-5.422 1.2-7.543 1.355-4.41.402-10.77-.746-5.823-1.055.165 17.11 1.24 19.86 2.663 6.85 4.976 10.722 9.284 16.605 1.778 2.43 4.465 4.32 6.66 6.304 1.399 1.266 7.434 4.64 7.793 5.153-.035 1.437-3.418 5.96.266 6.285 2.078.18 6.156-1.328 8.633-1.317 1.875.004 5.87 1.637 7.781 2.207 2.11.63 5.785 1.493 4.652 4.825-1.73 5.085-10.324 11.902-17.3 12.585-1.34.13-8.61.43-8.953.786-2.32 2.414 9.296 11.547 9.542 11.941-.949 2.203-7.902 4.746-10.19 4.953-2.313.207-4.419.668-6.895.395-1.446-.16-5.165-1.235-6.286-.68-1.46 1.691 3.172 3.992 4.399 4.867 1.969 1.403 3.93 2.824 5.902 4.235 3.895 2.78 8.235 5.87 12.535 7.953 7.895 3.824 16.602 5.097 24.805.906 2.246-1.145 4.488-3.227 6.063-4.012-.067 1.293-5.465 9.117-6.56 10.64-1.081 1.513-7.413 8.884-6.218 10.235.809.77 8.817-.883 10.766-.87 4.261.026 7.133.831 11.074 1.202 5.453.516 9.426 1.75 15.473-1.101.761-.356 3.363-2.012 3.8-2.02.012.406-4.464 17.871-2.57 19.668 1.953 1.277 4.734-2.973 6.965-4.164 5.629-3.004 16.113-3.262 21.73-7.402 1.032-.762 2.239-2.086 3.422-2.422-.476 3.113-4.386 6.066-4.53 18.46-.036 2.934.847 19.04 2.624 20.333 3.145.992 4.094-4.414 6.36-6.137 1.28-.973 6.796-3.336 8.613-4.168 12-5.496 11.281-7.668 15.527-9.976.078 2.27.54 3.832.555 6.152.02 3.27-1.23 3.621-1.246 5.273-.028 2.461 2.332 1.196 1.312 4.746-.515 1.793-.851 3.524-1.187 5.36-1.344 7.27-2.637 15.277-4.262 22.418-1.64 7.219-2.524 15.347-3.98 22.734-.668 3.383-2.172 8.2-.758 11.356.683 1.523 1.25 3.156 2.328 4.453 2.289 2.754 1.984 1.336 4.726 1.867 1.215.746 3.477 6.445 7.106 5.102 1.558-1.168 2.57-18.262 3.234-21.407.531-2.508 1.207-8.199 1.387-10.82.148-2.11 1.738-7.563 2.582-9.55 2.676 2.859-.219 39.284 1.434 41.382 6.27 7.957 7.039 4.441 8.64 5.625.953 1.34 1.055 5.91 2.649 7.121 1.414 1.067 5.804 2.516 7.437 2.031 2.191-.656 3.242-3.785 4.016-5.77 1.418-3.648 1.488-4.25.27-7.964-1.56-4.766-6.97-17.656-6.97-22.352l.5-9.437c4.454 8.387 8.391 22.61 11.797 29.23 1.063 2.067 2.336 2.336 4.399 1.551 2.691-1.023 2.246.078 4.59.809 6.34 1.98 17.379-4.094 13.468-11.266-3.207-5.883-6.379-11.832-9.398-17.816-8.297-16.446-10.434-22.77-13.695-40.98-.578-3.231-.164-2.895 1.484-5.16 1.395-1.911-.133-3.075-.668-4.825-.582-1.91-.219-10.64.371-12.746.875-3.121-.722-2.805-1.207-4.992-.285-1.286.617-4.122.91-5.563.426-2.11 1.973-8.875 4-9.601 2.102.226 4.504 4.664 7.414 6.187 3.043 1.59 5.946 2.793 8.922 4.61 5.399 3.3 11.492 6.859 17.13 9.718 6.444 3.27 3.987-1.668 2.8-5.05-2.7-7.7-.594-16.868-2.399-24.673-.875-3.808-2.835-6.714-3.648-9.71 1.98.964 5.277 4.671 7.602 6.347 2.718 1.957 5.687 3.555 8.464 5.434 3.743 2.52 5.266 3.304 9.805 4.062.735.121 5.902.63 6.414.532 4.07-.75 1.336-.75 5.317.226 8.882 2.176 13.906-2.113 22.546-3.773 1.938-.371 4.016-.133 6.364-.567 1.672-.308 3.523-1.207 5.25-1.699 1.515-.434 4.523-.863 6.047-.586 1.796.324 4.433 1.234 5.425-.418-.34-2.77-11.914-14.836-14.582-17.11-2.87-2.445-5.472-5-8.644-7.132-3.367-2.262-6.606-3.816-9.887-5.86.45-2.226 10.879-13.331 8.578-15.355-1.261-.719-6.68 3.824-10.297.332-1.421-1.375-2.515-1.82-3.816-2.945-.48-.418-1.809-4.09-1.84-4.781 1.793-2.844 5.395-1.817 8.18-1.774 3.84.055 6.176-.004 9.926-.547 1.378-.199 3.007-.761 4.445-1.031 1.66-.312 3.398.129 5.058-.215 2.477-.508 5.532-1.52 7.723-2.789 8.14-4.715 8.547-8.367 19.082-12.672 2.156-.879 7.23-1.172 8.16-2.351.977-3.922-17.707-13.996-21.23-15.586-3.379-1.524-11.977-3.246-15.531-2.574-2.715.515-5.149.644-7.918 1.289-1.57.367-6.157 2-7.23 1.949.202-1.2 5.038-4.664 6.296-6.453 4.238-6.04 1.828-8.407 2.149-8.957.105-.102 5.355-2.356 6.855-3.442 1.988-1.441 3.816-3.035 5.586-4.746 4.453-4.3 6.633-4.777 9.61-11.058 2.261-4.778 4.484-9.133 6.82-13.829.894-1.796 7.128-12.335 6.074-13.328-1.02-.457-6.012 1.215-7.574 1.457-7.164 1.106-10.817.903-18.008.899-3.18-.004-6.047 1.18-7.875 1.183zm0 0" fill-rule="evenodd"/></g></svg>