<svg xmlns="http://www.w3.org/2000/svg" width="500" viewBox="0 0 375 375" height="500" version="1.0"><defs><clipPath id="a"><path d="M190 19.895h113V155H190zm0 0"/></clipPath><clipPath id="b"><path d="M194 28.219h178.492v326.894H194zm0 0"/></clipPath><clipPath id="c"><path d="M2.809 110H24v16H2.809zm0 0"/></clipPath></defs><path fill="#fff" d="M201.066 285.895a429.715 429.715 0 01-9.718-4.157c-3.211-1.43-6.399-2.91-9.489-4.504a81.27 81.27 0 01-1.144-.609c-.387-.203-.754-.414-1.13-.621-.19-.106-.374-.211-.554-.32l-.547-.325c-.187-.109-.351-.222-.53-.336l-.524-.336a62.275 62.275 0 01-4.137-3.046c-1.332-1.079-2.637-2.188-3.867-3.38l-.465-.437-.453-.449-.91-.902-1.32-1.395-.426-.473-.856-.957-.82-.976-.414-.488-1.196-1.5-1.156-1.536-.363-.52-.746-1.038-.707-1.063-.36-.53-.34-.544-.68-1.078-.655-1.098-.325-.547-.312-.558-.625-1.113-.598-1.133-.297-.563-.285-.57-.566-1.145-.809-1.738-.254-.586-.511-1.168-.47-1.18c-.327-.777-.605-1.578-.894-2.37-.07-.2-.152-.395-.215-.602l-.593-1.809c-1.008-3.234-1.79-6.554-2.407-9.922-.625-3.367-1.039-6.796-1.382-10.246-.176-1.726-.305-3.46-.438-5.199l-.18-2.625c-.058-.887-.117-1.773-.187-2.66-.066-.887-.145-1.777-.219-2.664-.086-.883-.16-1.77-.254-2.652-.172-1.77-.379-3.536-.593-5.297a203.25 203.25 0 00-1.59-10.535c-.149-.872-.317-1.743-.477-2.614l-.254-1.304-.258-1.317-.132-.66-.067-.332c-.023-.11-.043-.215-.074-.336a27.634 27.634 0 00-1.273-4.023 21.213 21.213 0 00-1.239-2.567c-.117-.207-.242-.41-.367-.613-.133-.2-.258-.406-.398-.602a13.874 13.874 0 00-.883-1.164 12.066 12.066 0 00-2.164-2.015 9.614 9.614 0 00-2.672-1.371 9.87 9.87 0 00-2.93-.48c-.976-.02-1.926.089-2.84.26-1.832.337-3.52.907-5.191 1.317-1.703.426-3.422.828-5.14 1.242-.72.176-1.438.352-2.153.524.36-.3.719-.594 1.082-.88a51.731 51.731 0 012.84-2.1c.484-.333.976-.657 1.476-.965.5-.31 1.012-.602 1.532-.88.515-.28 1.05-.535 1.593-.757a9.662 9.662 0 011.688-.543 9.99 9.99 0 00-1.754.355c-.57.164-1.137.364-1.695.586-.555.223-1.106.465-1.645.719a41.11 41.11 0 00-1.605.809 54.99 54.99 0 00-3.11 1.808 66.51 66.51 0 00-1.511.973.063.063 0 01-.024.015l.008-.023.348-.844.691-1.68c.238-.558.484-1.117.738-1.675.996-2.235 2.035-4.496 2.754-6.938.356-1.23.602-2.472.809-3.695.215-1.227.39-2.434.62-3.605.114-.586.243-1.165.392-1.723l.113-.414c.039-.14.086-.274.129-.41.047-.133.086-.274.136-.407l.145-.398a15.824 15.824 0 013.688-5.61c.195-.199.41-.382.613-.574.21-.183.426-.363.64-.543l.332-.257c.11-.086.22-.172.336-.254.239-.164.465-.34.703-.5 1.891-1.29 3.957-2.32 6.118-3.118a32.76 32.76 0 013.293-1.015c.277-.07.558-.133.84-.203.277-.063.562-.121.843-.184.281-.058.563-.101.844-.156a8.55 8.55 0 01.422-.066l.41-.063c2.215-.313 4.469-.3 6.71-.008 2.243.293 4.47.875 6.642 1.664 2.171.79 4.289 1.793 6.335 2.95a57.681 57.681 0 015.95 3.855c.48.351.953.71 1.425 1.074.473.367.938.75 1.41 1.121.473.371.93.762 1.395 1.149l.696.574.683.594c3.66 3.136 7.106 6.543 10.395 10.113 3.297 3.57 6.386 7.348 9.382 11.23h.004c.07.094.2.121.305.067a.247.247 0 00.102-.332 91.573 91.573 0 00-3.77-6.36c-.66-1.043-1.367-2.058-2.066-3.078l-1.078-1.508-1.106-1.492-.277-.37-.29-.368-.57-.73a59.613 59.613 0 00-.574-.73l-.586-.724c-.394-.48-.785-.964-1.191-1.43l-.606-.706a18.855 18.855 0 00-.61-.703l-1.241-1.395-1.274-1.36a93.513 93.513 0 00-2.625-2.656l-.672-.652-.683-.64c-.457-.419-.91-.856-1.38-1.262-.468-.414-.933-.832-1.405-1.242a73.2 73.2 0 00-1.453-1.208 56.277 56.277 0 00-6.223-4.375 48.097 48.097 0 00-3.36-1.851 41.513 41.513 0 00-3.539-1.559 36.12 36.12 0 00-3.71-1.21 30.406 30.406 0 00-3.86-.778 26.444 26.444 0 00-7.945.117l-.492.09a9.802 9.802 0 00-.489.094c-.316.07-.632.137-.949.21-.316.087-.637.157-.945.243-.313.09-.63.176-.942.27a32.086 32.086 0 00-3.66 1.347c-2.386 1.047-4.652 2.39-6.683 4.035-.258.203-.504.426-.75.633-.125.106-.25.219-.371.328l-.368.34c-.234.234-.472.469-.703.707-.222.25-.457.488-.668.746a18.946 18.946 0 00-2.257 3.278 18.324 18.324 0 00-1.5 3.656l-.13.472c-.042.16-.078.32-.113.48-.039.157-.082.317-.11.477l-.097.481a29.712 29.712 0 00-.277 1.887c-.148 1.246-.246 2.472-.375 3.675-.129 1.204-.297 2.375-.566 3.516-.551 2.297-1.489 4.54-2.446 6.79-.238.562-.484 1.128-.719 1.698l-.695 1.72-.351.858-.04.106-.023.055-.023.062a2.328 2.328 0 00-.082.25c-.051.16-.098.317-.137.461-.086.297-.164.566-.254.809-.05.117-.098.226-.152.316a1.344 1.344 0 01-.145.2l-.016.011a.732.732 0 00.664 1.234c1.747-.34 3.473-.738 5.192-1.109 1.719-.36 3.445-.723 5.176-1.07 1.77-.367 3.46-.832 5.117-1.043a11.866 11.866 0 012.43-.082 7.52 7.52 0 012.242.523c.699.278 1.347.68 1.933 1.176a9.456 9.456 0 011.57 1.703c.231.32.442.645.641.996.106.168.192.352.293.524.09.18.184.359.27.543.344.73.644 1.484.89 2.27.25.78.461 1.577.63 2.394.085.402.163.828.23 1.207.015.093.027.207.043.312l.043.32.082.645.332 2.594c.101.87.21 1.738.308 2.61.813 6.952 1.489 13.905 1.805 20.874.047.871.078 1.742.11 2.613l.097 2.657c.078 1.773.172 3.554.297 5.34l.094 1.34.117 1.34c.074.89.176 1.784.273 2.679.043.445.102.894.157 1.34l.172 1.34.199 1.34c.07.449.133.898.215 1.343.601 3.567 1.418 7.125 2.535 10.606.574 1.738 1.187 3.46 1.902 5.148l.54 1.27.566 1.238.289.621.3.613.606 1.223.64 1.21.32.602 1.009 1.782.707 1.168.351.586 1.11 1.718.773 1.13.387.562.402.55.8 1.102.837 1.082.418.54 1.304 1.577.903 1.028.449.511.461.5.934 1 1.441 1.453.496.465.988.938 1.024.91.508.45.527.437 1.05.867c.352.285.712.566 1.071.84a59.757 59.757 0 006.793 4.512l.617.331c.203.11.41.23.613.329l.618.3c.207.102.41.204.613.293.414.188.824.391 1.238.563.414.18.824.36 1.238.531 1.653.692 3.317 1.32 4.989 1.926l1.254.45 1.257.433c.422.144.84.28 1.262.425.418.137.84.278 1.262.415 1.687.546 3.383 1.062 5.078 1.558a146.368 146.368 0 005.121 1.399.244.244 0 00.29-.141.245.245 0 00-.134-.316"/><g clip-path="url(#a)"><path fill="#fff" d="M199.828 145.969c2.856-2.961 5.688-5.93 8.57-8.82 2.883-2.895 5.813-5.723 8.848-8.395.383-.336.762-.672 1.145-.996l1.16-.992c.785-.68 1.578-1.344 2.355-2.028l1.164-1.035c.39-.34.778-.683 1.16-1.035l1.145-1.055c.387-.347.77-.699 1.145-1.058 3.027-2.844 5.964-5.801 8.75-8.907a110.083 110.083 0 007.816-9.773 108.43 108.43 0 006.605-10.625c1.996-3.656 3.79-7.406 5.446-11.203 1.652-3.8 3.172-7.652 4.558-11.543 1.39-3.89 2.657-7.82 3.785-11.797.297-.988.543-1.988.82-2.984.282-.996.52-2 .774-3l.192-.754c.066-.25.117-.5.18-.754l.35-1.508.18-.754c.06-.254.114-.504.169-.758l.328-1.515a182.006 182.006 0 002.214-12.22l.22-1.538.206-1.52c.137-.93.356-1.82.676-2.609.168-.39.36-.758.574-1.086a4.75 4.75 0 01.739-.855 4.07 4.07 0 01.894-.622 5.02 5.02 0 011.059-.394c.093-.027.191-.047.289-.07a3.34 3.34 0 01.297-.055c.097-.02.191-.027.285-.035.094-.008.187-.028.277-.024.36-.023.695.012 1.004.086.617.153 1.168.477 1.68 1 .508.516.957 1.211 1.336 1.989.379.777.683 1.64.937 2.53.13.446.242.9.344 1.36l.14.695.126.727c.043.242.085.484.125.73l.109.731c.078.484.129.977.191 1.465.227 1.96.356 3.933.383 5.922.059 3.972-.23 7.976-.668 11.996a2.477 2.477 0 00.54 1.828 2.484 2.484 0 003.488.363l.058-.05a20.493 20.493 0 012.492-1.727 17.88 17.88 0 011.32-.7c.442-.21.887-.39 1.32-.538a8.94 8.94 0 011.263-.329c.398-.07.77-.09 1.086-.066.316.027.574.09.789.188.21.093.39.218.574.414.023.023.05.047.074.066l.063.086c.046.059.097.105.136.18.043.066.094.132.133.203.043.07.086.144.121.219.043.074.074.16.117.242.032.086.067.164.102.254.062.18.121.375.172.574.105.406.18.86.238 1.34.027.246.05.492.074.754l.051.804a52.78 52.78 0 01.078 3.25c-.008.547-.02 1.094-.039 1.637l-.039.82c-.012.278-.02.547-.043.825-.043.546-.07 1.093-.129 1.64a38.89 38.89 0 01-.168 1.64l-.094.817c-.035.278-.078.543-.113.82l-.117.817-.133.812a68.51 68.51 0 01-.629 3.235c-.058.27-.12.531-.187.797l-.192.797c-.07.27-.144.527-.214.789-.075.265-.141.53-.223.793l-.234.777-.122.387-.128.382-.262.762c-.04.121-.09.258-.14.395l-.15.402-1.179 3.227c-.789 2.148-1.566 4.304-2.348 6.457l-.035.09a2.028 2.028 0 003.242 2.21 20.607 20.607 0 013.82-2.656 19.499 19.499 0 012.13-.992c.183-.07.363-.148.55-.211l.274-.098c.094-.035.176-.062.254-.086.328-.109.62-.175.828-.195a1.29 1.29 0 01.242-.004c.05.004.078.008.106.016.023.012.046.012.074.039.015.004.027.031.05.043.016.027.04.047.055.09.082.133.156.386.2.683.015.153.03.309.03.477.009.082 0 .168.005.254-.004.094-.004.168-.016.273l-.102 1.207c-.011.203-.043.403-.07.606l-.082.601c-.027.2-.047.407-.09.602l-.11.605c-.077.399-.144.805-.25 1.2-.355 1.601-.847 3.187-1.421 4.75-.281.785-.602 1.562-.918 2.335l-.508 1.157c-.164.383-.351.761-.527 1.144-1.438 3.055-3.106 6.031-4.8 8.996l.405.27c2.09-2.711 4.118-5.488 5.91-8.453a51.745 51.745 0 002.489-4.586c.742-1.582 1.43-3.207 1.953-4.906.535-1.696.953-3.438 1.191-5.227.024-.105.035-.242.047-.363.012-.13.024-.254.028-.387a6.337 6.337 0 00-.145-1.89 5.041 5.041 0 00-.063-.231c-.05-.156-.097-.309-.171-.473a3.641 3.641 0 00-1.477-1.722 3.558 3.558 0 00-1.086-.442 4.652 4.652 0 00-1.031-.113c-.645.004-1.2.113-1.692.234l-.363.094-.328.094c-.226.062-.445.136-.668.207-.601.195-1.2.418-1.785.668.105-.258.215-.516.32-.774l1.324-3.164.165-.398c.058-.133.109-.262.168-.406l.488-1.278.441-1.277a56.043 56.043 0 001.813-6.922l.172-.879c.05-.289.101-.586.148-.879.05-.293.102-.586.148-.879l.122-.882c.171-1.176.3-2.36.402-3.543.2-2.375.262-4.77.14-7.192l-.05-.91a29.948 29.948 0 00-.09-.953 14.937 14.937 0 00-.36-2.04c-.09-.35-.195-.706-.328-1.066-.062-.18-.14-.359-.214-.539-.082-.183-.16-.36-.254-.539a7.883 7.883 0 00-.293-.531c-.106-.172-.223-.344-.336-.512-.11-.172-.254-.34-.387-.504a10.99 10.99 0 00-.203-.246l-.23-.238a7.068 7.068 0 00-2.223-1.535 7.466 7.466 0 00-2.54-.59 9.813 9.813 0 00-2.331.156 13.29 13.29 0 00-2.047.57 17.46 17.46 0 00-2.227.989c.02-.375.031-.754.043-1.13a83.837 83.837 0 00-.035-6.343 60.931 60.931 0 00-.602-6.36c-.082-.53-.156-1.058-.253-1.581l-.145-.79a37.45 37.45 0 00-.16-.784l-.16-.79c-.063-.269-.13-.539-.196-.808a31.234 31.234 0 00-.46-1.613 18.52 18.52 0 00-1.344-3.188 13.908 13.908 0 00-.973-1.543 9.4 9.4 0 00-1.289-1.433 7.782 7.782 0 00-1.684-1.18 6.868 6.868 0 00-2.011-.676 6.92 6.92 0 00-2.063-.047c-.168.012-.324.043-.488.07-.164.028-.324.051-.473.09a6.54 6.54 0 00-.457.118 8.814 8.814 0 00-2.223.953 8.196 8.196 0 00-1.546 1.246 8.379 8.379 0 00-1.157 1.57 9.953 9.953 0 00-.746 1.695c-.375 1.149-.55 2.286-.632 3.395l-.094 1.547-.106 1.531c-.574 8.133-1.808 16.246-3.918 24.148-1.05 3.95-2.3 7.848-3.765 11.66a108.459 108.459 0 01-5.043 11.16 122.089 122.089 0 01-6.203 10.516 139.134 139.134 0 01-7.149 9.825 190.31 190.31 0 01-7.847 9.257 202.993 202.993 0 01-8.426 8.79c-.356.359-.723.71-1.086 1.062l-1.098 1.063c-.363.355-.738.699-1.11 1.05l-1.109 1.051c-.742.695-1.496 1.387-2.242 2.082l-1.14 1.055c-.387.355-.762.719-1.137 1.082a123.9 123.9 0 00-4.383 4.453 154.953 154.953 0 00-4.156 4.633c-.68.777-1.348 1.57-2.012 2.363-.664.79-1.324 1.586-1.973 2.383l-1.941 2.41a290.5 290.5 0 00-1.918 2.426c-2.55 3.238-5.027 6.539-7.379 9.93l.375.304c2.86-2.965 5.684-5.949 8.543-8.898"/></g><g clip-path="url(#b)"><path fill="#fff" d="M289.984 342.05c-.007.012-.011.028-.015.04h-.004l.023-.067c.004-.011-.004.024-.004.028zm-1.359.606c-.004-.004-.043-.023-.023-.011l.03.011h-.007zm-49.465-10.73l.012-.051c.012-.05.004-.004-.012.05zM372.488 77.492c-.004-.199-.004-.398-.023-.597a10.648 10.648 0 00-.41-2.426 8.359 8.359 0 00-1.082-2.332 7.65 7.65 0 00-1.825-1.88 9.07 9.07 0 00-2.257-1.187 12.185 12.185 0 00-2.38-.593c-1.59-.243-3.16-.235-4.695-.11a33.375 33.375 0 00-5.168.848l.364-.715a56.87 56.87 0 001.84-4.227 61.296 61.296 0 001.476-4.351c.113-.363.211-.734.32-1.106.098-.37.204-.742.297-1.113.047-.187.094-.375.14-.566l.067-.285.063-.282.262-1.043c.363-1.422.742-2.875 1.101-4.332a84.12 84.12 0 00.992-4.457 47.84 47.84 0 00.664-4.601c.141-1.563.168-3.157.067-4.75l-.035-.602c-.02-.2-.043-.398-.07-.601l-.067-.598-.02-.152c-.004-.047-.007-.098-.02-.153l-.05-.336a11 11 0 00-.332-1.328c-.066-.222-.152-.441-.234-.66-.094-.219-.18-.437-.29-.648a8.148 8.148 0 00-.753-1.254 7.28 7.28 0 00-1.02-1.13 7.01 7.01 0 00-1.297-.921 6.59 6.59 0 00-1.515-.586 6.75 6.75 0 00-1.602-.191 7.76 7.76 0 00-1.55.18 9.009 9.009 0 00-2.665 1.116c-1.554.957-2.808 2.239-3.808 3.606-1 1.371-1.762 2.832-2.399 4.285-.61 1.39-1.183 2.781-1.746 4.168-1.137 2.762-2.226 5.496-3.457 8.117a146.307 146.307 0 01-1.95 3.926 207.952 207.952 0 01-2.073 3.898 227.191 227.191 0 01-4.391 7.68l-4.574 7.66a375.99 375.99 0 01-4.664 7.555 184.619 184.619 0 01-4.906 7.344c-.43.593-.852 1.195-1.286 1.785l-.648.887c-.219.296-.438.59-.66.879-.875 1.167-1.801 2.312-2.711 3.464-.457.575-.938 1.13-1.403 1.696l-.703.847c-.234.285-.48.559-.714.836l-1.446 1.668-1.476 1.633-.743.816-.753.801-1.516 1.602-1.547 1.574c-.258.266-.512.531-.773.785l-.79.774c-8.39 8.257-17.683 15.609-27.523 22.14l-1.851 1.215c-.618.402-1.247.793-1.872 1.188l-.933.593c-.313.2-.63.387-.945.582l-1.887 1.157c-.633.382-1.274.754-1.906 1.132l-.954.567c-.32.183-.644.363-.964.547l-1.926 1.101-1.942 1.074-.972.532-.977.523-1.96 1.043-1.973 1.012-.989.504-.996.492-1.988.976-2.004.958c-.664.32-1.34.628-2.012.933-.675.309-1.343.621-2.02.926-1.355.594-2.706 1.203-4.073 1.77l-1.024.43c-.34.148-.683.292-1.027.429l-2.055.836c-.687.277-1.379.543-2.066.812l-2.082.817c-.7.273-1.403.543-2.098.836-.695.285-1.395.57-2.078.875a96.914 96.914 0 00-8.137 3.941c-1.32.738-2.633 1.48-3.91 2.293-.645.394-1.273.82-1.906 1.234l-.93.649c-.156.11-.312.215-.465.324l-.457.336-.457.34a9.78 9.78 0 00-.453.34l-.898.699c-.586.48-1.176.957-1.743 1.465a41.73 41.73 0 00-3.27 3.172c-2.058 2.234-3.858 4.738-5.187 7.484-.09.172-.164.348-.242.52-.078.175-.16.347-.234.523-.145.355-.297.703-.422 1.062a23.967 23.967 0 00-.7 2.18 21.534 21.534 0 00-.702 4.508 20.064 20.064 0 00.816 6.746c.113.36.234.723.371 1.074.14.356.281.7.465 1.051l.43-.219c-.145-.32-.27-.672-.387-1.011-.113-.348-.215-.7-.309-1.055a19.18 19.18 0 01-.41-2.153 20.203 20.203 0 01-.082-4.37 20.61 20.61 0 01.852-4.274 21.47 21.47 0 01.742-2.047c.133-.336.297-.66.445-.992.074-.168.16-.324.242-.488.082-.164.157-.328.25-.485 1.364-2.566 3.16-4.894 5.215-6.96a42.015 42.015 0 013.242-2.942c.563-.469 1.145-.91 1.727-1.356l.89-.644a9.68 9.68 0 01.45-.316l.906-.622c.149-.101.305-.199.461-.3l.922-.598c.625-.383 1.242-.777 1.883-1.14 1.257-.75 2.562-1.438 3.867-2.114a100.527 100.527 0 018.05-3.625c.684-.281 1.376-.539 2.063-.8.688-.27 1.383-.516 2.078-.766l2.106-.758 1.054-.38c.352-.128.707-.253 1.055-.39l2.106-.793c.347-.132.699-.27 1.046-.41l1.047-.41c1.399-.543 2.778-1.125 4.168-1.695 2.758-1.176 5.512-2.371 8.22-3.664l1.019-.477 3.035-1.476 2.011-1.016 1.004-.508.996-.523 1.997-1.047 1.976-1.082c.328-.18.66-.356.985-.54l.984-.554c.648-.375 1.305-.738 1.953-1.117 1.293-.766 2.598-1.508 3.875-2.301.64-.394 1.281-.781 1.922-1.18l1.906-1.207c10.121-6.48 19.707-13.86 28.39-22.234l.817-.785c.274-.262.535-.531.805-.797l1.601-1.598 2.352-2.445 2.3-2.504 1.497-1.7c.25-.28.504-.562.746-.85l1.46-1.731c.24-.29.493-.574.727-.871.942-1.18 1.903-2.348 2.817-3.555.234-.3.465-.602.687-.906l.68-.906c.45-.61.89-1.223 1.336-1.833a191.992 191.992 0 005.059-7.488 327.68 327.68 0 004.75-7.637c1.55-2.554 3.078-5.109 4.609-7.668a217.786 217.786 0 004.473-7.832 169.403 169.403 0 003.12-6.023 80.896 80.896 0 00.989-2.059c1.289-2.78 2.387-5.59 3.484-8.347.551-1.38 1.102-2.742 1.672-4.09.543-1.277 1.16-2.477 1.906-3.52.743-1.046 1.614-1.933 2.594-2.554a5.6 5.6 0 01.719-.387c.238-.11.477-.188.703-.25a3.42 3.42 0 01.664-.09c.215-.008.418.016.61.059.394.086.757.277 1.101.57.172.145.328.32.48.52.153.191.29.41.407.648.066.113.117.242.176.367.05.13.105.254.144.387.098.27.168.547.227.836l.039.215c.008.031.011.078.015.12l.02.13.066.508c.024.167.047.335.067.507l.039.516a26.59 26.59 0 01.015 4.168 44.174 44.174 0 01-.52 4.246 77.702 77.702 0 01-.858 4.285c-.317 1.442-.66 2.88-1 4.352l-.254 1.129-.051.265-.055.258c-.035.172-.074.348-.117.524-.074.347-.168.699-.25 1.046-.094.352-.176.704-.274 1.051a60.43 60.43 0 01-1.296 4.137 52.727 52.727 0 01-1.625 4.008 40.507 40.507 0 01-2 3.781l-.024.039c-.23.39-.289.875-.11 1.332.31.79 1.223 1.16 2.016.856l.18-.067.242-.086.493-.172a22.87 22.87 0 011-.32 37.32 37.32 0 012.03-.566 31.255 31.255 0 014.114-.746c1.371-.145 2.742-.18 4.043-.012 1.305.16 2.535.535 3.504 1.207.484.336.902.738 1.238 1.215a5.63 5.63 0 01.793 1.601 8.24 8.24 0 01.363 1.875c.02.16.028.324.032.496.004.164.02.328.011.496-.003.336-.003.668-.035 1.008-.09 1.364-.34 2.739-.683 4.106a41.383 41.383 0 01-1.274 4.062c-.12.336-.242.672-.375 1.008l-.394 1c-.133.332-.278.656-.414.984l-.211.489-.051.117-.05.11-.122.245a180.792 180.792 0 01-1.957 3.887 190.439 190.439 0 01-4.16 7.652c-1.45 2.516-2.953 4.996-4.563 7.399a68.985 68.985 0 01-2.511 3.52c-.875 1.144-1.79 2.25-2.774 3.261l-.004.008a.802.802 0 00-.191.793c.125.414.57.64.992.543a6.68 6.68 0 01.422-.094c.152-.039.312-.066.465-.098.312-.062.629-.113.941-.164a28.26 28.26 0 011.895-.238c1.27-.11 2.539-.133 3.77 0 .613.066 1.218.18 1.792.348.574.164 1.11.402 1.574.71l.09.055.246.188.23.207a.867.867 0 01.067.07l.14.149c.044.046.083.101.126.156.09.098.148.219.226.328.274.46.434.992.497 1.559.062.562.023 1.156-.07 1.754-.04.296-.114.597-.184.894-.086.3-.16.598-.262.895-.387 1.183-.922 2.343-1.527 3.472a40.891 40.891 0 01-1.98 3.309 70.463 70.463 0 01-2.224 3.164c-.097.133-.195.242-.293.367l-.312.379-1.871 2.27-2.508 3.019a836.244 836.244 0 01-5.043 6.008 439.443 439.443 0 01-5.11 5.945c-.425.496-.863.985-1.292 1.473l-.649.73-1.316 1.442-.664.707-.332.351-.164.18-.168.164-.676.668-.012.008a.863.863 0 00-.203.336c-.129.43.11.883.54 1.015.054.012.14.043.214.07l.23.083c.153.054.31.117.461.18.305.128.61.269.91.417a14.67 14.67 0 011.735.996c.559.368 1.086.77 1.582 1.208.496.437.953.91 1.367 1.417a10.502 10.502 0 011.887 3.383c.203.614.351 1.246.441 1.89.086.645.121 1.298.106 1.954a13.34 13.34 0 01-.192 1.965l-.035.246-.05.246c-.036.164-.063.328-.102.492-.082.32-.156.645-.25.969a24.48 24.48 0 01-.645 1.914c-.25.625-.515 1.25-.808 1.86-1.168 2.44-2.66 4.738-4.301 6.933a84.653 84.653 0 01-2.281 2.414c-.785.8-1.586 1.59-2.399 2.367a88.957 88.957 0 01-5.03 4.457 66.324 66.324 0 01-2.642 2.051 45.35 45.35 0 01-2.738 1.879c-.465.305-.937.578-1.41.86-.477.265-.953.535-1.438.773a21.73 21.73 0 01-2.953 1.254 1.314 1.314 0 00-.714.582c-.344.59-.145 1.351.414 1.738l.023.016.09.062.11.078c.073.051.148.106.218.164.148.11.297.23.438.348.289.242.562.496.824.758a9.47 9.47 0 011.36 1.687c.366.59.632 1.207.757 1.82.121.61.098 1.208-.07 1.794-.164.586-.485 1.156-.895 1.695a9.724 9.724 0 01-1.512 1.516c-1.148.933-2.5 1.722-3.906 2.417a.717.717 0 00-.094.051l-.093.059-.196.125c-.07.043-.152.094-.226.137-.153.09-.309.18-.469.27l-.238.132-.243.125c-.167.086-.328.172-.496.254l-.5.246-.25.117-.253.113c-.34.149-.676.301-1.024.438-.344.137-.687.281-1.039.402l-.793.285c-.086.028-.176.055-.266.086l-1.066.332-1.082.293c-.356.106-.723.172-1.086.258-.367.078-.727.172-1.098.227l-1.097.191c-.184.04-.367.05-.555.074l-.555.07c-.734.11-1.48.141-2.222.2-.371.035-.743.023-1.118.035l-1.113.023a1.747 1.747 0 00-1.508.915c-.37.671-.226 1.515.313 2.062l.11.11.12.124.243.254c.16.172.32.352.472.535.313.36.617.73.903 1.11a18.293 18.293 0 011.527 2.351c.43.805.77 1.63.957 2.426.195.797.219 1.559.062 2.219-.16.656-.492 1.242-1.015 1.777a5.769 5.769 0 01-.903.746c-.335.235-.703.45-1.097.641-.192.105-.403.188-.602.281l-.695.285-1.387.575c-.23.097-.465.18-.699.27l-.703.257-.707.262c-.235.086-.465.18-.707.254a74.434 74.434 0 01-11.625 2.949c-.488.094-.988.156-1.485.23l-1.484.211-1.492.164c-.5.051-.992.117-1.492.149l-1.5.113c-.25.012-.5.04-.75.05l-2.25.095c-.5.015-1 .011-1.5.015l-1.125.012c-.125 0-.25-.008-.375-.008l-2.25-.059-.75-.042-1.496-.086c-.25-.012-.497-.043-.75-.063l-1.493-.14c-.25-.024-.496-.04-.746-.079l-1.484-.187-.746-.09-.738-.113c-3.926-.606-7.809-1.614-11.641-2.84a129.256 129.256 0 01-5.727-2.004l-1.425-.535c-.47-.184-.934-.363-1.395-.555-.465-.184-.918-.383-1.379-.574-.453-.2-.914-.399-1.363-.61a58.263 58.263 0 01-2.676-1.296 49.178 49.178 0 01-5.082-2.988 42.767 42.767 0 01-2.34-1.712c-.012-.007-.031-.027-.043-.035a2.353 2.353 0 00-3.304.426 2.352 2.352 0 00-.41 2.055c.175.64.492 1.254.718 1.87.7 1.895 1.192 3.856 1.875 5.755.188.52.387 1.039.574 1.558.063.164.121.332.184.5l1.168 3.172.586 1.582.293.793.305.79c.41 1.05.824 2.1 1.242 3.148.847 2.09 1.722 4.172 2.625 6.242a204.1 204.1 0 005.832 12.254 174.905 174.905 0 006.73 11.82c4.817 7.703 10.344 15.016 16.645 21.629.394.41.785.824 1.187 1.23l1.207 1.215 1.227 1.2c.41.402.828.785 1.242 1.18a116.028 116.028 0 005.145 4.538 132.672 132.672 0 005.39 4.223 152.72 152.72 0 005.586 3.926c1.89 1.265 3.809 2.48 5.742 3.672a200.212 200.212 0 005.88 3.421 219.902 219.902 0 005.98 3.211c.5.258 1.007.512 1.511.77l.758.383.758.375a198.832 198.832 0 006.125 2.926l1.55.699.778.344c.25.109.488.218.73.328.95.433 1.84.89 2.614 1.402.387.25.742.52 1.047.793.156.137.293.277.422.414.12.137.242.277.332.414.105.137.175.27.25.402.058.133.12.258.156.391.047.125.062.254.086.39.004.067.012.133.015.204-.007.07.004.137-.003.215l-.004.109c-.004.008-.004.02-.004.027l-.008.051c0 .05-.023.098-.027.145-.032.101-.059.207-.121.316l-.02.04-.023.042-.051.082c-.04.055-.067.117-.117.168a2.417 2.417 0 01-.297.336 3.42 3.42 0 01-.793.563c-.067.039-.153.074-.235.113-.086.035-.171.07-.261.105a5.665 5.665 0 01-.567.172c-.793.203-1.73.277-2.758.281a42.386 42.386 0 01-6.312-.468 48.338 48.338 0 01-6.234-1.395c-.258-.066-.512-.152-.766-.23l-.762-.243-.762-.257a24.807 24.807 0 01-.757-.266l-.75-.281c-.254-.09-.5-.196-.75-.293-.25-.102-.5-.195-.746-.301l-.739-.316-.367-.16-.367-.165-.73-.332-.165-.074c-.09-.039-.175-.078-.273-.11a3.517 3.517 0 00-1.75-.133 3.569 3.569 0 00-1.098.4 3.56 3.56 0 00-.91.745 3.377 3.377 0 00-.61 1.008l-.05.137-.043.125-.027.09-.059.18c-.074.25-.16.5-.242.75-.09.25-.172.503-.266.753l-.133.372-.054.144-.074.16a9.62 9.62 0 01-1.36 2.34 6.064 6.064 0 01-1.87 1.559c-.696.36-1.462.543-2.29.566-.05.004-.105.008-.152.008l-.16-.008-.317-.012c-.105.004-.226-.02-.34-.03l-.343-.044c-.235-.02-.461-.078-.696-.125-.117-.023-.23-.039-.344-.066l-.347-.094c-.227-.066-.461-.121-.688-.207l-.34-.117c-.109-.04-.226-.078-.335-.125l-.668-.281-.653-.329a15.139 15.139 0 01-2.43-1.609l-.55-.477-.52-.507c-.09-.082-.164-.176-.246-.262l-.242-.27c-.168-.175-.309-.37-.453-.558a11.164 11.164 0 01-1.445-2.418l-.024-.055a1.997 1.997 0 00-1.351-1.14c-1.075-.274-2.168.406-2.45 1.476a37.658 37.658 0 01-1.16 3.695c-.453 1.204-.98 2.36-1.61 3.41-.62 1.047-1.355 1.985-2.183 2.676a5.79 5.79 0 01-1.305.825c-.46.203-.937.336-1.414.382-.953.106-2.015-.113-3.035-.586a9.363 9.363 0 01-1.484-.867c-.117-.09-.238-.172-.352-.261-.117-.094-.23-.184-.343-.278l-.332-.293-.348-.336c-.93-.879-1.777-1.855-2.586-2.879-.805-1.015-1.54-2.117-2.242-3.238-1.403-2.25-2.63-4.664-3.844-7.113-.61-1.227-1.215-2.465-1.84-3.707l-.469-.93-.058-.117c.004.012-.035-.067-.067-.117-.03-.055-.066-.106-.101-.16a1.86 1.86 0 00-3.063.098c-.07.109-.129.23-.172.35-.042.106-.085.286-.078.259l-.02.097c-.066.274-.152.57-.25.875-.097.309-.206.606-.327.996a11.577 11.577 0 01-.664 1.688 5.808 5.808 0 01-.903 1.367c-.168.195-.347.34-.527.48-.047.036-.098.06-.145.086-.043.028-.086.067-.136.086-.047.024-.094.043-.145.067l-.07.039-.074.02-.149.054c-.047.02-.101.02-.156.035l-.152.035c-.047.004-.094.016-.141.012-.195.016-.41 0-.648-.05a4.527 4.527 0 01-.739-.231 7.297 7.297 0 01-.793-.383l-.41-.234c-.14-.082-.277-.153-.41-.243l-.406-.257-.2-.13c-.066-.046-.128-.093-.195-.14a23.41 23.41 0 01-2.984-2.504c-1.88-1.847-3.547-3.965-5.11-6.172-.789-1.101-1.52-2.25-2.27-3.382l-.136-.211-.133-.22-1.332-2.171-.507-.883c-.336-.59-.684-1.18-1.012-1.773l-.961-1.801c-.332-.598-.621-1.211-.93-1.82l-.453-.914c-.074-.153-.156-.305-.226-.457l-.215-.465-.864-1.856c-.28-.62-.547-1.25-.82-1.87l-.41-.938-.387-.95c-.254-.632-.515-1.261-.765-1.902-.48-1.277-.98-2.547-1.422-3.844l-.34-.965-.172-.484-.16-.488-.64-1.95c-.212-.648-.407-1.304-.606-1.96l-.301-.985-.844-2.96-.527-1.985a186.185 186.185 0 01-1.875-8.012c-.563-2.687-1.059-5.383-1.41-8.105l-.48.05c.23 2.75.62 5.489 1.081 8.204.114.68.235 1.36.36 2.039l.379 2.031c.12.684.273 1.355.41 2.031.14.676.273 1.352.43 2.024l.46 2.023c.16.668.328 1.336.493 2.008l.253 1.008.27 1c.18.664.351 1.336.543 2 .387 1.324.762 2.66 1.191 3.976.407 1.32.871 2.625 1.317 3.938.23.652.476 1.3.715 1.949l.363.977.383.964c.257.641.507 1.29.777 1.93l.82 1.91.207.48c.067.16.145.317.215.473l.438.946c.293.629.57 1.265.89 1.883l.926 1.867c.32.62.656 1.226.98 1.843l.493.918 1.304 2.262.13.227.14.222c.73 1.184 1.45 2.38 2.23 3.536 1.551 2.324 3.235 4.601 5.235 6.664a25.515 25.515 0 003.258 2.875c.074.058.144.113.222.168l.227.156.46.308c.15.11.313.2.473.297l.48.285c.321.196.673.375 1.052.54.375.167.777.312 1.215.414.437.105.91.164 1.406.14.12 0 .246-.015.37-.023l.352-.059c.118-.027.239-.039.352-.074l.34-.11.172-.054.168-.067.324-.148c.11-.047.207-.113.309-.172.101-.058.203-.117.296-.18.38-.265.73-.558 1.028-.875.605-.628 1.058-1.324 1.425-2.02.223-.429.418-.858.59-1.296l.93 1.992c1.168 2.504 2.387 5.031 3.844 7.485.734 1.222 1.504 2.433 2.383 3.59.87 1.156 1.804 2.28 2.855 3.312l.387.39c.144.137.293.27.437.403.149.129.297.254.45.379.152.125.308.242.468.363.633.473 1.317.899 2.051 1.25.73.356 1.52.645 2.352.828a8.777 8.777 0 002.609.18l.332-.035.332-.051.332-.059.32-.082c.11-.027.215-.05.32-.086l.317-.101c.211-.063.414-.152.617-.235a9.49 9.49 0 002.2-1.324 12.454 12.454 0 001.738-1.715c.512-.609.96-1.246 1.367-1.89a25.186 25.186 0 001.941-3.903c.04.043.075.086.114.125l.308.364c.106.117.207.242.324.351l.668.672.707.63c1.926 1.628 4.16 2.89 6.637 3.593l.461.133c.156.039.317.066.473.101.316.067.633.149.957.184l.484.07c.164.02.317.05.496.055l.782.047c.082 0 .175-.004.261-.008 1.406-.016 2.871-.332 4.176-.985 1.3-.656 2.414-1.59 3.297-2.64a14.207 14.207 0 002.058-3.399l.098-.222c.043-.102.07-.172.098-.246l.16-.414.305-.825a.332.332 0 01.02-.066l.218.102.398.18a56.027 56.027 0 006.54 2.468 52.66 52.66 0 006.835 1.605 47.51 47.51 0 007.043.602c1.207.004 2.52-.055 3.899-.383a9.911 9.911 0 002.086-.746c.71-.351 1.36-.8 1.949-1.348.293-.277.574-.574.824-.91.133-.156.25-.34.367-.511.059-.094.11-.188.168-.278l.078-.14.075-.149c.207-.379.363-.805.492-1.242.05-.223.11-.445.14-.676l.028-.172.012-.086.007-.078.024-.304c.02-.204.012-.418.015-.625-.003-.211-.023-.418-.039-.63a7.397 7.397 0 00-.71-2.418 8.33 8.33 0 00-.61-1.03 9.72 9.72 0 00-.71-.899 12.04 12.04 0 00-.767-.766 13.658 13.658 0 00-1.609-1.25c-1.086-.73-2.187-1.3-3.266-1.808a74.71 74.71 0 01-.796-.363l-.758-.344-1.5-.692c-1-.46-2-.937-2.988-1.421-.993-.481-1.981-.973-2.97-1.473l-.738-.375-.738-.38c-.488-.257-.98-.507-1.469-.765a225.754 225.754 0 01-5.82-3.168 184.243 184.243 0 01-5.691-3.359 171.682 171.682 0 01-5.547-3.57 158.288 158.288 0 01-5.371-3.805 133.961 133.961 0 01-5.164-4.055 115.652 115.652 0 01-9.559-8.957 129.8 129.8 0 01-4.402-4.867 129.524 129.524 0 01-4.137-5.101c-2.684-3.465-5.18-7.086-7.539-10.793a168.14 168.14 0 01-6.602-11.43 210.646 210.646 0 01-5.78-11.914 240.1 240.1 0 01-2.614-6.094 319.39 319.39 0 01-1.25-3.074l-.305-.778-.297-.777-.582-1.55-1.18-3.11c-.359-.95-.726-1.898-1.062-2.86.75.419 1.504.825 2.27 1.208.953.476 1.914.937 2.886 1.367.485.219.973.422 1.461.633.489.203.977.41 1.473.601.492.196.988.383 1.48.57l1.465.54c1.965.71 3.942 1.39 5.95 2.015 4.011 1.242 8.124 2.281 12.347 2.89l.79.114.788.09 1.574.184c.262.035.532.05.79.074l.793.062.789.067c.265.02.527.047.793.054l2.378.118.79.011 1.585.024c.133 0 .262.007.395.004l.398-.008.793-.012c.528-.012 1.055-.016 1.586-.039l1.582-.082.793-.04c.266-.015.524-.046.79-.065l1.577-.141c.528-.035 1.051-.113 1.579-.176l1.57-.191 1.566-.25c.524-.082 1.047-.153 1.563-.262a76.92 76.92 0 0012.23-3.297c.25-.082.496-.187.743-.281l1.48-.574c.242-.094.488-.188.73-.293l1.457-.63.727-.316c.266-.125.531-.242.793-.386a12.55 12.55 0 001.543-.942 9.988 9.988 0 001.437-1.25 7.477 7.477 0 001.91-3.566 8.015 8.015 0 00.153-2.012 8.898 8.898 0 00-.297-1.883c-.305-1.199-.793-2.273-1.355-3.27a20.403 20.403 0 00-1.668-2.507c.418-.043.832-.09 1.246-.16l.605-.09c.203-.027.406-.05.61-.098l1.203-.234c.402-.07.797-.18 1.195-.274.395-.101.797-.187 1.188-.308l1.175-.344 1.16-.394c.098-.036.196-.067.29-.098l.289-.113.574-.22c.383-.144.758-.308 1.133-.468.379-.156.746-.336 1.12-.508l.278-.132.277-.141.547-.277c.184-.098.367-.2.547-.297l.27-.153.27-.16a8.65 8.65 0 00.542-.324c.09-.055.176-.11.27-.176.074-.047.14-.086.218-.144 1.493-.786 2.961-1.676 4.313-2.828a12.107 12.107 0 001.926-2.036c.57-.78 1.062-1.675 1.324-2.695a6.61 6.61 0 00.047-3.101c-.223-1.008-.66-1.91-1.176-2.708a12.278 12.278 0 00-1.785-2.12 18.742 18.742 0 00-.293-.274c.387-.184.77-.379 1.148-.582.524-.274 1.028-.574 1.54-.871.496-.309.996-.617 1.476-.946a49.63 49.63 0 002.836-2.03 66.258 66.258 0 002.691-2.184 91.144 91.144 0 005.067-4.672 102.127 102.127 0 003.578-3.719c.387-.43.765-.848 1.152-1.297l.012-.012a.295.295 0 00.043-.054 56.686 56.686 0 002.375-3.574 37.81 37.81 0 002.035-3.81 29.74 29.74 0 00.836-2.007c.246-.687.48-1.379.664-2.086.102-.355.18-.715.262-1.07.039-.184.066-.363.101-.543l.051-.274.04-.273a15 15 0 00.183-2.219 13.952 13.952 0 00-.149-2.242 12.52 12.52 0 00-.543-2.195 12.285 12.285 0 00-2.234-3.903 14.073 14.073 0 00-1.574-1.59 15.887 15.887 0 00-1.774-1.328 17.535 17.535 0 00-2.777-1.464l.16-.176.34-.363.672-.73.66-.74.656-.734.645-.742c.433-.492.867-.988 1.293-1.484a572.56 572.56 0 005.09-5.996c1.683-2.004 3.359-4.016 5.03-6.031l2.5-3.028 1.25-1.515.622-.762.312-.38c.106-.128.223-.265.317-.398a72.144 72.144 0 002.293-3.253 42.372 42.372 0 002.05-3.422c.633-1.18 1.208-2.403 1.637-3.7.114-.324.203-.66.297-.992.078-.336.164-.672.211-1.02a8.057 8.057 0 00.086-2.152c-.074-.734-.285-1.488-.68-2.16a5.046 5.046 0 00-1.578-1.644 7.125 7.125 0 00-1.976-.914 12.268 12.268 0 00-2.059-.422c-1.367-.156-2.73-.14-4.074-.031a32.05 32.05 0 00-1.613.175c.449-.527.886-1.066 1.312-1.605a73.9 73.9 0 002.617-3.57 134.992 134.992 0 004.743-7.434 213.78 213.78 0 004.343-7.648 167.51 167.51 0 002.063-3.891l.12-.242.075-.14.059-.13.226-.512c.153-.343.313-.683.461-1.027l.43-1.023c.144-.344.277-.692.414-1.035a44.6 44.6 0 001.437-4.254c.403-1.457.72-2.954.856-4.504.043-.387.05-.782.07-1.172.008-.2-.004-.399-.004-.598"/></g><path fill="#fff" d="M136.453 154.605c8.98 1.008 7.973-5.242 7.973-5.242-7.473-.304-7.973 5.242-7.973 5.242m-7.969 49.293c0 .016.004-.011.004-.023l.004-.05.012-.114.016-.242c.007-.168.02-.34.02-.516a23.714 23.714 0 00-.11-3.21 31.938 31.938 0 00-.684-4.313 35.345 35.345 0 00-1.238-4.211 37.31 37.31 0 00-1.762-4.035 37.753 37.753 0 00-4.95-7.34 42.3 42.3 0 00-3.085-3.235c-.273-.25-.543-.507-.824-.754l-.848-.742-.867-.715c-.29-.242-.59-.464-.883-.699a50.287 50.287 0 00-3.703-2.597c-.316-.207-.64-.399-.961-.602l-.484-.293-.493-.289c-.328-.188-.652-.383-.984-.563l-1-.546a65.28 65.28 0 00-4.105-2c-.696-.32-1.403-.606-2.106-.907-.351-.144-.71-.277-1.066-.422-.356-.136-.711-.28-1.07-.41l-1.079-.394-.543-.196-.543-.183-1.093-.371c-.364-.121-.73-.23-1.098-.344-.367-.113-.73-.234-1.102-.344l-1.105-.32-2.254-.656-2.27-.668-.285-.082-.28-.094-.563-.184-2.247-.738c-.375-.129-.753-.242-1.12-.383l-2.223-.808-1.11-.41c-.37-.137-.734-.293-1.101-.438l-2.196-.879c-.367-.148-.722-.308-1.085-.465l-1.082-.48-1.083-.477-.539-.238c-.18-.078-.359-.168-.535-.25-1.422-.691-2.851-1.348-4.242-2.094l-1.047-.543c-.347-.183-.699-.36-1.039-.558l-2.062-1.157c-2.723-1.582-5.403-3.242-7.965-5.066-2.57-1.816-5.074-3.719-7.453-5.777-4.77-4.09-9.157-8.621-12.985-13.582a81.921 81.921 0 01-5.3-7.743l-.305-.503c-.102-.168-.195-.34-.293-.508l-.586-1.02-.559-1.031c-.09-.172-.183-.344-.277-.512l-.262-.523a50.99 50.99 0 01-1.96-4.254c.628 1.43 1.34 2.82 2.097 4.18l.281.511c.094.172.196.34.293.508l.59 1.008.613.992c.102.168.203.332.309.496l.32.488a80.123 80.123 0 005.524 7.52c3.96 4.8 8.453 9.14 13.293 13.016 2.41 1.953 4.941 3.75 7.53 5.449 2.583 1.715 5.27 3.258 7.997 4.726l2.059 1.067c.34.183.695.344 1.039.512l1.05.503c1.383.688 2.813 1.286 4.223 1.915.18.074.352.156.535.23l.535.215 1.075.43 1.078.437c.36.14.715.29 1.082.414l2.18.797c.363.129.722.266 1.085.394l1.102.36 2.207.722c.363.125.738.227 1.11.336l1.109.325 1.113.328.555.164.277.078.281.074 2.246.578 2.262.582 1.152.293c.383.098.766.207 1.149.313.383.105.766.207 1.148.32l1.137.344.57.172.567.187 1.136.367c.38.125.75.266 1.13.395.374.137.75.262 1.12.406.747.281 1.497.559 2.235.867a68.397 68.397 0 014.379 1.961l1.074.54c.36.183.707.374 1.062.566l.532.285.527.297c.348.2.7.394 1.043.601a57.328 57.328 0 014.055 2.653c.324.238.656.472.976.719l.961.746.946.77c.312.257.617.53.921.796a46.583 46.583 0 013.5 3.418 42.27 42.27 0 015.758 7.973 41.076 41.076 0 012.13 4.468 39.65 39.65 0 011.558 4.715c.422 1.606.742 3.238.949 4.899.101.832.18 1.664.219 2.511a23.061 23.061 0 01.023 1.938l-.012.34-.007.18-.004.093-.012.121-4.934-.508M22.352 109.035c12.011-1.117-2.227-20.805-2.227-20.805s-7.035 21.665 2.227 20.805"/><path fill="#fff" d="M40.387 123.75c14.797 2.902 4.691-25.719 4.691-25.719s-16.098 23.477-4.691 25.719m20.601 18.04c15.563-2.005-3.851-26.927-3.851-26.927s-8.145 28.473 3.851 26.926m19.321 11.203c15.464.113-.176-26.808-.176-26.808s-11.746 26.722.176 26.808m-4.243 13.715c-5.527-14.203-24.53 9.922-24.53 9.922s28.796 1.027 24.53-9.922m-20.378-8.969c-.88-14.941-25.934 1.883-25.934 1.883s26.613 9.64 25.933-1.883m-17.585-12.933c5.945-16.047-28.016-9.922-28.016-9.922s23.434 22.293 28.016 9.922"/><g clip-path="url(#c)"><path fill="#fff" d="M22.223 124.008c7.66-11.035-19.352-13.016-19.352-13.016s13.45 21.528 19.352 13.016"/></g></svg>