<svg xmlns="http://www.w3.org/2000/svg" width="100" viewBox="0 0 75 63.75" height="85" version="1.0"><defs><clipPath id="a"><path d="M1.328 3.266h72.465V30H1.328zm0 0"/></clipPath><clipPath id="b"><path d="M7 19h61v41.043H7zm0 0"/></clipPath></defs><g clip-path="url(#a)"><path fill="#fff" d="M30.86 6.8h13.305c6.452-.148 12.796.41 17.495 2.544 4.695 2.129 7.836 5.586 8.57 12.12v2.77c0 .305-.039.348-.226.528-.184.172-.598.41-1.192.578-1.19.336-2.996.39-4.464.273h-.133c-3.477 0-4.66-.531-5.254-1.101-.598-.567-.961-1.774-1.898-3.649L55.23 17.22c-.906-1.817-2.183-3.098-3.628-3.832-1.442-.735-2.97-.934-4.418-.934H27.84c-1.445 0-2.977.2-4.418.934-1.438.734-2.719 2.015-3.625 3.832l-1.832 3.644c-.942 1.875-1.305 3.082-1.899 3.649-.593.566-1.777 1.101-5.25 1.101h-.144c-1.465.117-3.266.063-4.457-.273-.594-.172-1.008-.406-1.195-.578-.184-.18-.227-.223-.227-.528v-2.77c.734-6.534 3.879-9.991 8.57-12.124C18.066 7.21 24.406 6.652 30.86 6.8zm.042-3.413c-6.675-.149-13.449.34-18.965 2.851C6.407 8.75 2.22 13.547 1.371 21.11a2.799 2.799 0 01-.016.188v2.937c0 1.172.536 2.29 1.297 3.008.766.719 1.684 1.113 2.625 1.38 1.848.519 3.868.526 5.586.394 3.793-.008 6.094-.618 7.586-2.032 1.496-1.433 1.828-3.07 2.59-4.59l1.828-3.656c.645-1.289 1.336-1.918 2.121-2.316.782-.402 1.73-.555 2.852-.555h19.344c1.125 0 2.07.153 2.855.555.781.398 1.477 1.027 2.121 2.316l1.832 3.657c.762 1.52 1.086 3.156 2.586 4.59 1.488 1.413 3.79 2.023 7.586 2.03 1.711.133 3.738.13 5.582-.394.942-.266 1.863-.66 2.621-1.379a4.2 4.2 0 001.297-3.008v-2.937c0-.063-.004-.121-.012-.188-.843-7.566-5.03-12.359-10.562-14.87-5.52-2.512-12.293-3-18.965-2.852zm0 0"/></g><g clip-path="url(#b)"><path fill="#fff" d="M7.273 53.168a2.315 2.315 0 00-.02.227zm20.743-29.883h3.55c1.309 2.094 3.41 3.61 5.946 3.61 2.543-.008 4.633-1.516 5.937-3.61h3.567c.613 3.961 2.277 7.36 6.16 10.113 1.82 1.293 3.625 2.465 5.082 3.649 1.484 1.2 2.531 2.308 2.902 3.668.004.027.012.058.016.086l3.183 12.867c0 .023.004.047.004.066.149.801-.222 1.625-.773 2.141a3.307 3.307 0 01-2.285.91H13.727a3.259 3.259 0 01-2.286-.91c-.554-.512-.93-1.34-.78-2.14L13.854 40.8l.012-.086c.363-1.36 1.418-2.469 2.895-3.668 1.46-1.184 3.277-2.352 5.097-3.649 3.88-2.753 5.547-6.152 6.16-10.113zm39.73 29.836l.024.274c0-.09-.008-.184-.024-.274zm-39.73-33.25c-1.68 0-3.137 1.242-3.395 2.895-.527 3.43-1.512 5.543-4.758 7.851-1.738 1.23-3.601 2.426-5.273 3.781-1.649 1.336-3.375 2.98-4.035 5.43-.004.004-.004.008-.008.012-.008.035-.02.097-.035.144L7.3 53.004c-.012.039-.016.082-.02.117-.386 2.113.504 4.031 1.801 5.242a6.8 6.8 0 004.645 1.836h47.57a6.79 6.79 0 004.64-1.836c1.297-1.21 2.196-3.12 1.805-5.242-.008-.035-.008-.082-.02-.117l-3.21-13.02c-.012-.047-.024-.109-.035-.144-.004-.004-.004-.008-.008-.012-.66-2.45-2.387-4.094-4.04-5.43-1.667-1.355-3.523-2.546-5.265-3.78-3.242-2.31-4.223-4.423-4.758-7.852-.258-1.653-1.715-2.895-3.394-2.895h-4.309c-.719 0-1.363.445-1.613 1.121a3.811 3.811 0 01-3.578 2.488 3.818 3.818 0 01-3.59-2.488 1.71 1.71 0 00-1.61-1.12zm0 0"/></g><path fill="#fff" d="M37.512 33.945c4.093 0 7.37 3.266 7.37 7.332 0 4.067-3.277 7.332-7.37 7.332-4.09 0-7.367-3.265-7.367-7.332 0-4.066 3.277-7.332 7.367-7.332zm0-3.414c-5.946 0-10.801 4.828-10.801 10.746 0 5.91 4.855 10.746 10.8 10.746 5.95 0 10.81-4.836 10.81-10.746 0-5.918-4.86-10.746-10.81-10.746zm0 0"/></svg>