<svg xmlns="http://www.w3.org/2000/svg" width="100" viewBox="0 0 75 75" height="100" version="1.0"><defs><clipPath id="a"><path d="M1 27h73v45.605H1zm0 0"/></clipPath><clipPath id="b"><path d="M1 44h73v28.605H1zm0 0"/></clipPath><clipPath id="c"><path d="M15 2.105h44V42H15zm0 0"/></clipPath></defs><g clip-path="url(#a)"><path fill="#fff" d="M72.887 72.738H2.105A1.104 1.104 0 011 71.633V28.605a1.104 1.104 0 112.21 0v41.922h68.571V28.605c0-.613.496-1.105 1.106-1.105.613 0 1.105.492 1.105 1.105v43.028c0 .613-.492 1.105-1.105 1.105"/></g><g clip-path="url(#b)"><path fill="#fff" d="M72.887 72.738c-.227 0-.457-.066-.653-.21L37.496 47.081 2.758 72.527a1.109 1.109 0 01-1.547-.238 1.11 1.11 0 01.242-1.547l35.39-25.926a1.102 1.102 0 011.305 0L73.54 70.742a1.11 1.11 0 01.242 1.547c-.219.293-.554.45-.894.45"/></g><path fill="#fff" d="M72.887 29.71c-.227 0-.457-.07-.653-.214L57.105 18.414a1.106 1.106 0 111.305-1.785L73.54 27.71a1.11 1.11 0 01.241 1.547 1.108 1.108 0 01-.894.453m-70.782 0c-.34 0-.675-.155-.894-.452a1.11 1.11 0 01.242-1.547l14.684-10.758a1.108 1.108 0 011.547.238 1.11 1.11 0 01-.239 1.547L2.758 29.496a1.097 1.097 0 01-.653.215"/><path fill="#fff" d="M43.516 51.223c-.34 0-.676-.157-.895-.45a1.106 1.106 0 01.242-1.546L72.234 27.71a1.11 1.11 0 011.547.238 1.11 1.11 0 01-.242 1.547L44.168 51.012c-.195.144-.426.21-.652.21m-12.039.001c-.227 0-.457-.067-.653-.211L1.454 29.496a1.11 1.11 0 01-.243-1.547 1.109 1.109 0 011.547-.238l29.37 21.516c.497.359.602 1.054.243 1.546-.219.293-.555.45-.894.45"/><g clip-path="url(#c)"><path fill="#fff" d="M57.355 41.09a1.105 1.105 0 01-1.105-1.11V4.316H17.898v34.938c0 .613-.496 1.105-1.105 1.105-.613 0-1.11-.492-1.11-1.105V3.21c0-.61.497-1.106 1.11-1.106h40.562c.61 0 1.106.497 1.106 1.106v36.77c0 .613-.496 1.109-1.106 1.109"/></g><path fill="#fff" d="M37.633 20.777c-1.93 0-3.5 1.57-3.5 3.5a3.503 3.503 0 003.5 3.496 3.503 3.503 0 003.496-3.496c0-1.93-1.57-3.5-3.496-3.5zm0 9.207a5.717 5.717 0 01-5.711-5.707 5.718 5.718 0 015.71-5.71 5.715 5.715 0 015.708 5.71 5.714 5.714 0 01-5.707 5.707"/><path fill="#fff" d="M37.074 37.93c-7.383 0-13.386-6.004-13.386-13.383S29.69 11.16 37.073 11.16c7.38 0 13.383 6.008 13.383 13.387v1.098a4.616 4.616 0 01-4.61 4.613 4.616 4.616 0 01-4.609-4.613v-5.7a1.104 1.104 0 112.211 0v5.7a2.399 2.399 0 004.797 0v-1.098c0-6.16-5.012-11.172-11.172-11.172-6.164 0-11.172 5.012-11.172 11.172 0 6.16 5.008 11.172 11.172 11.172 2.2 0 4.328-.64 6.156-1.848a1.1 1.1 0 011.532.309c.34.511.199 1.195-.313 1.535a13.312 13.312 0 01-7.375 2.215"/></svg>