<svg xmlns="http://www.w3.org/2000/svg" width="200" viewBox="0 0 150 150" height="200" version="1.0"><defs><clipPath id="a"><path d="M1.082 3.5h147.75v143.25H1.082zm0 0"/></clipPath></defs><g clip-path="url(#a)"><path fill="#77b0b6" d="M148.531 39.164c.797-8.426-3.46-16.973-9.906-20.078-.977-2.512-2.453-4.254-3.902-5.438-4.641-3.875-11.532-4.316-15.641-2.75-1.539.59-2.867 1.418-3.934 2.485-3.132-1.242-6.414-1.422-9.578-.473.118-.71.09-1.422-.03-2.07-.56-2.723-2.364-4.762-5.29-5.914-6.715-2.66-17.594-.09-23.152 3.87-10.528-.944-20.903.446-30.868 4.2a69.322 69.322 0 00-23.417 14.637A68.249 68.249 0 007.469 49.305c-7.57 16.703-8.102 35.36-1.54 52.449 6.594 17.18 19.516 30.808 36.426 38.348 9.11 4.05 18.747 6.093 28.446 6.093 8.308 0 16.644-1.507 24.656-4.523 17.238-6.508 30.957-19.219 38.586-35.895 3.812-8.28 5.883-17.062 6.207-25.902.121-.027.238-.086.297-.207 2.484-2.75 4.496-6.387 5.707-10.2 1.27-3.991 1.508-7.863.648-10.91-.914-3.28-3.015-5.527-6.117-6.535 4.465-2.687 7.184-7.152 7.746-12.859zm-28.945-26.937c3.723-1.418 9.96-1.004 14.191 2.515 3.399 2.836 4.88 7.184 4.286 12.653a7.888 7.888 0 00-.946-1.063c-3.488-3.46-8.722-4.375-14.398-2.543-1.035-.86-2.219-1.45-3.489-1.687-2.039-.352-3.933.328-5.351 1.953 0 0 0 .03-.031.03-.149-.03-.293-.03-.414-.03-.973-5.5 1.359-10.024 6.152-11.828zm15.727 37.02c-.649 5.054-2.958 8.722-6.887 10.91-3.817 2.097-7.63 2.628-11.383 1.507-4.082-1.215-7.926-4.375-10.824-8.84a10.94 10.94 0 004.172.797 14.21 14.21 0 003.902-.562c3.164-.887 5.824-2.63 7.215-3.664 2.215-.239 4.965-1.157 7.36-3.965 2.484-.383 4.644-1.121 6.386-2.215.18 1.21.387 3.488.059 6.031zm3.492 28.44a25.7 25.7 0 01-4.496-3.578 28.788 28.788 0 003.812-6.265c.477 3.281.684 6.562.684 9.844zm-4.172-21.761c-1.301 4.23-3.25 7.601-5.469 11.09-.797-1.688-1.3-3.371-1.418-4.938.442-.207.914-.445 1.36-.68 2.363-1.332 4.226-3.164 5.527-5.472zm1.094 1.3c.828 2.665 1.507 5.352 1.98 8.044-1.27 2.93-2.394 5.234-4.402 7.804a25.337 25.337 0 01-3.371-4.582c2.304-3.578 4.343-6.976 5.793-11.265zm3.105 6.153a74.493 74.493 0 00-1.89-7.098c3.843 2.867 6.917 6.09 8.808 9.254-.266 1.688-.738 3.403-1.39 5.117-1.536-2.394-3.075-4.523-5.528-7.273zM94.984 27.453c.266 2.606 1.45 5.117 3.489 7.215-.473 1.066-.797 2.187-.914 3.344-.563 4.699 1.656 9.816 5.675 13.008.149.117.325.238.473.355 1.184 2.156 2.543 4.11 4.082 5.793-6.418-.473-12.805-5.203-15.672-11.824-2.75-6.27-1.683-12.715 2.867-17.89zm3.727-13.156c-.297-.117-.59-.266-.887-.383-2.011-.828-4.05-1.598-6.12-2.219-.325-.414-.622-.828-.919-1.21-1.152-1.54-2.097-2.84-3.844-4.407 2.22-.531 4.496-.855 6.684-.855 2.719 2.601 4.64 6.472 5.086 9.074zm-9.313-3.281a68.09 68.09 0 00-10.023-1.98c1.715-.977 3.727-1.833 5.914-2.485 1.95 1.625 2.926 2.867 4.11 4.465zm-.71 1.273c-1.567.945-3.637 1.86-7.008 2.629-1.153-1.45-2.157-2.984-2.926-4.55a74.353 74.353 0 019.933 1.921zm1.832.531a65.58 65.58 0 015.68 1.98c-2.692 2.04-6.18 3.52-10.204 4.317-.058-.031-.086-.058-.148-.117-1.094-.828-2.13-1.805-3.102-2.867 3.192-.77 5.527-1.778 7.774-3.313zm7.187 2.602c.648.265 1.27.562 1.922.855-.86.77-1.629 1.657-2.277 2.602a16.369 16.369 0 00-1.63 3.078c-2.363.68-5.171.059-8.097-1.715 3.988-.976 7.45-2.633 10.082-4.82zm26.461 12.773c1.094 2.895 0 4.317-1.066 5.528a45.905 45.905 0 00-.887-1.657c.058-2.214-.5-4.257-1.3-5.468-.59-.918-1.33-1.418-2.13-1.477-1.062-.121-1.832.59-1.922.68-.59-.063-1.328.027-2.215.441-.058.031-.12.059-.18.09a2.34 2.34 0 01.563-1.36c1.36-1.566 2.926-1.656 3.992-1.48 2.157.414 4.227 2.278 5.145 4.703zm1.535 4.137c2.192 2.781 5.117 7.836 2.129 12.035-2.512 2.957-5.437 3.578-7.508 3.578h-.117c-1.922-.03-3.695-.62-4.91-1.332 3.875-.62 6.742-2.277 8.101-4.789.77-1.418 1.301-3.636.266-6.652.09-.09.148-.176.238-.266.621-.62 1.387-1.449 1.801-2.574zm-21.285 5.68c.707.765 1.566 1.238 2.512 1.508.976 1.683 2.453 2.628 4.375 2.808.18.027.355.027.562.027 3.254 0 6.86-2.246 8.457-4.492a9.418 9.418 0 001.508-3.343c1.184 2.574 1.3 4.851.297 6.652-1.48 2.691-5.324 4.32-10.352 4.32h-.058c-3.25 0-5.469-.828-6.621-2.457-1.035-1.625-.918-3.695-.68-5.023zm10.789-10.469c.86-.383 1.57-.441 2.07-.117.68.441.95 1.39.95 1.949v.09c.058.473-.032 1.035-.297 1.656a4.212 4.212 0 00-1.125-.445 4.441 4.441 0 00-.856-.086c-.68 0-1.273.176-1.773.324l-.621.176c-.27.062-.504 0-.621-.176-.18-.207-.18-.504-.059-.828.41-.918.973-1.922 2.332-2.543zm-1.652 7.332c-.207-.945.351-2.008.62-2.453.145-.031.294-.09.442-.117.621-.18 1.211-.387 1.863-.207.383.09.622.207.77.324-.742 1.152-1.863 2.367-3.164 3.398-.266-.293-.445-.59-.531-.945zm6.117-5.559c-.027-.914-.414-2.039-1.211-2.777h.148c.442.059.829.504 1.063.856 1.273 1.921 1.687 6.476-.531 9.582-1.477 2.07-4.938 4.109-7.715 3.87-1.067-.085-1.922-.5-2.602-1.21a9.05 9.05 0 002.215-.473c4.582-1.598 9.078-6.742 8.633-9.848zm-6.531-3.87c-.207.738-.18 1.417-.09 1.831-.77.739-1.211 1.598-1.48 2.246-.352.829-.235 1.715.296 2.309.207.234.445.414.738.531-.324.739-.648 1.774-.414 2.809a3.04 3.04 0 00.77 1.45c-.77.472-1.535.886-2.363 1.151-1.836.653-4.317.86-5.856-1.804-.887-1.508-.207-4.258 1.598-6.68 1.508-1.98 4.02-3.902 6.8-3.844zm-9.79 10.968c-.355 1.063-1.269 4.672.622 7.39 1.422 2.04 4.05 3.075 7.804 3.075h.063c.5 0 .972-.027 1.445-.059 1.098 1.094 3.137 2.16 5.707 2.453-3.578 2.25-9.668 4.793-14.84.594-3.636-2.93-5.648-7.512-5.144-11.738.293-2.336 1.449-5.41 5.086-7.953-1.215 2.336-1.508 4.64-.742 6.238zm26.493 7.332c2.336-5.176-1.625-10.762-3.785-13.273 0-.801-.149-1.715-.563-2.782a9.582 9.582 0 00-1.625-2.777c4.879-1.363 9.285-.535 12.242 2.395 2.602 2.57 3.578 6.355 2.453 9.668-1.125 3.457-4.199 5.824-8.722 6.77zm-15.73-29.242c-1.95 2.516-2.72 5.883-2.098 9.582-2.395.293-4.493 1.742-6 3.398-3.079 1.45-5.383 3.461-6.832 5.856-4.168-4.613-3.133-9.996-.649-13.602 2.953-4.347 8.988-7.629 15.578-5.234zm-9.993-3.399c.149.707.09 1.508-.148 2.336v.028c-1.121.472-2.157 1.094-3.133 1.804-.207-.09-.414-.175-.621-.296-.176-2.895-2.07-6.829-4.555-9.668 1.45.148 2.84.445 4.05.918 2.485.976 3.966 2.601 4.407 4.878zM94.957 140.34c-35.039 13.187-74.39-4.348-87.695-39.086-6.414-16.766-5.883-35.008 1.476-51.36 7.422-16.527 20.907-29.152 37.965-35.566 9.817-3.695 20.016-5.086 30.395-4.11 1.656 3.696 4.554 7.391 7.894 9.934 3.016 2.305 6.063 3.52 8.781 3.52.504 0 1.004-.063 1.477-.121a13.985 13.985 0 00-.293 1.863c-5.824 5.766-7.363 13.246-4.2 20.55 3.25 7.481 10.731 12.712 18.036 12.712h.414c2.246 2.07 4.762 3.578 7.39 4.379 1.423.414 2.868.648 4.317.648 1.805 0 3.637-.355 5.441-1.004.739 5.914 5.942 12.918 12.387 16.676-.855 26.371-17.441 51.059-43.785 60.965zm45.324-62.535c.031-3.871-.297-7.746-.918-11.59 1.774 2.129 3.016 3.965 4.317 6.062a28.317 28.317 0 01-3.399 5.528zm-.09-24.45c2.75.856 4.524 2.75 5.325 5.618.355 1.3.472 2.75.414 4.289-2.309-3.223-5.68-6.45-9.73-9.227a17.68 17.68 0 002.484-.887 3.998 3.998 0 011.507.207zm-4.109-.796c.297-1.008.531-2.07.68-3.196.414-3.281 0-6.062-.176-7.125 1.598-1.3 2.777-2.925 3.398-4.82.887-2.691.594-5.645-.68-8.188.563-3.285.473-5.972-.058-8.222 5.262 3.285 8.574 10.676 7.895 17.976-.68 6.774-4.7 11.653-11.059 13.575zm0 0"/></g><path d="M12.61 72.875c1.219 3.168 2.223 4.16 4.809 4.949.844.226 1.96.418 2.394.394 4.227-.218 5.262-.359 5.278-.574.008-.105.613-.277 1.383-.433 1.257-.23 3.66-1.344 6.64-2.954 1.633-.898 5.887-3.656 6.238-4.058.18-.203.805-.64 1.368-.977 1.816-1.156 5.726-4.37 10.578-8.644 4.508-3.973 5.523-5.301 3.867-4.778-.387.133-.762.106-.863-.011-.098-.114-.102-.063-.012.16.094.223.027.379-.242.36-.215-.016-.496.124-.621.386-.07.21-.352.352-.508.285-.215-.015-.383.078-.344.242.04.22-.129.317-.39.188-.364-.188-.422-.14-.282.14.192.34.086.329-.23.2-.364-.192-.813.047-1.567.746-.632.543-.98.84-.855.633.117-.153.078-.317-.082-.329-.164-.011-.39.133-.516.395-.125.203-.355.402-.515.39-.215-.015-.782.32-1.297.712-.516.449-1.02.68-1.07.62-.098-.113-.165.044-.18.258-.02.266-.145.473-.246.41-.422-.136-2.73 1.145-2.934 1.669-.074.265-.3.41-.398.293-.157-.067-.72.218-1.243.718-.57.442-1.082.782-1.136.778-.106-.012-.114.097-.075.261-.011.16-.066.157-.222.09-.203-.176-.934.254-4.395 2.477a12.79 12.79 0 00-1.144.883c-.399.293-.848.53-.957.523-.313-.133-2.38.79-2.399 1.059-.008.105-.176.203-.39.187-.215-.016-.438.074-.504.23-.188.364-5.059 1.993-7.196 2.426-2.515.457-5.855.368-7.05-.207-.672-.375-.864-.715-1.145-1.976-.441-2.028-.25-3.848.621-6.102 2.946-7.601 11.035-15.46 19.957-19.32 2.79-1.192 4.953-2 6.54-2.309 1.59-.312 1.421-.218 1.718-1.328.344-1.699.309-1.918-.668-3.289l-.887-1.144-2.78.437c-1.532.262-3.22.461-3.653.48-1.508-.007-4.778-.304-6.047-.617-1.117-.246-1.215-.363-1.117-.949.367-2.02 6.011-6.773 11.636-9.8 1.575-.856 6.313-2.872 7.914-3.4 4.04-1.312 8.524-1.405 10.915-.198 1.351.64 1.5.812 1.437 1.672.016.484-.121.906-.285.894-.16-.012-.227.145-.137.422.086.277.024.379-.129.262-.304-.242-.976.789-.73 1.074.156.121.097.172-.059.105-.16-.066-.328.028-.441.13-.067.156-.82.855-1.578 1.605-.758.754-1.352 1.465-1.305 1.574.098.117.035.219-.121.152-.418-.191-3.063 1.98-2.93 2.371.086.274-.023.32-.289.247-.207-.125-.535-.04-.765.16-.176.199-.516.39-.731.375-.32-.024-.453.289-.469 1.207-.015 1.668.23 1.957 1.344 1.5 1.89-.774 4.273-2.32 6.242-4.114 2.43-2.136 3.145-3.054 4.016-5.308 1.074-2.778 1.031-3.645-.54-6.457-.995-1.801-1.85-2.621-3.374-3.168-.84-.281-1.164-.305-1.344-.047-.18.254-.23.2-.21-.07.023-.325-.403-.41-1.915-.36-1.027.028-2.05.008-2.266-.011-.214-.016-.328.085-.23.199.047.113-.39.187-.934.199-2.84-.215-12.996 4.254-16.96 7.46-.567.392-1.024.731-1.133.724-.32-.024-1.543 1.18-1.403 1.46.043.11-.015.16-.168.04-.36-.243-3.496 2.757-4.418 4.253-.55.875-.707 1.512-.789 3.286-.25 4.027.567 6.082 2.75 7.164.367.136.41.3.192.34a.737.737 0 00-.368.566c-.015.215-.128.312-.285.246-.156-.117-.547.066-.847.477-.348.351-.692.593-.739.484-.195-.23-3.535 2.54-3.394 2.82.101.114-.067.157-.324.028-.364-.188-.426-.086-.344.242.086.277.012.597-.16.691-.223.09-.219.04-.094-.168.117-.152.078-.32-.082-.332-.164-.011-.332.082-.344.246-.012.16-.539.715-1.172 1.258-1.504 1.344-3.453 3.57-3.312 3.852.094.168-.024.32-.242.36-.606.167-2.559 3.151-3.903 5.96-2.3 4.738-2.41 8.344-.414 13.348zm0 0" fill="#77b0b6"/><path d="M48.533 45.151c.082.082.18.148.227.148.05 0 .343-.277.668-.601.312-.328.734-.703.93-.8.343-.196.343-.212.163-.31-.214-.113-.765-.046-.765.098 0 .051-.035.082-.067.051-.03-.035-.129 0-.226.082-.098.078-.133.098-.098.031.047-.082.031-.097-.05-.082-.067.031-.114.082-.114.149a.245.245 0 01-.082.16c-.047.035-.047.015-.016-.047.098-.164-.097-.113-.226.047a1.07 1.07 0 01-.277.246c-.098.062-.165.144-.149.195.016.047-.031.098-.113.098-.113 0-.113.031-.031.195.062.098.16.262.226.34zm2.379 3.91c-.164.164-.309.344-.309.41 0 .063-.02.098-.05.063-.032-.031-.13.035-.196.164-.082.113-.406.473-.715.797-.312.312-.539.605-.523.636.031.032 0 .047-.082.047s-.145.067-.145.133c0 .063-.05.13-.132.16a.15.15 0 00-.082.2c.035.062.02.097-.047.062-.051-.031-.114.035-.13.113a.444.444 0 01-.214.23c-.098.016-.145.083-.129.114.031.047-.031.113-.129.129-.097.035-.148.098-.117.148.05.082-.062.13-.227.098-.03 0-.066.016-.066.047 0 .148-.34.098-.437-.063-.098-.195-.082-1.449.015-1.793.031-.113.13-.44.211-.714.067-.297.164-.606.211-.688a20.217 20.217 0 01.785-1.871c.176-.375.324-.75.324-.832 0-.082-.113-.21-.261-.293-.258-.129-.278-.129-.555.113-.324.262-.664.817-.566.914.03.047.015.047-.051.016-.13-.082-.57.832-.488.977.03.05.015.066-.032.05-.05 0-.082.016-.097.047 0 .035-.067.23-.164.426-.684 1.629-.524 3.11.457 4.102.34.343.437.41.746.41.297 0 .41-.067.765-.41.23-.227.41-.454.41-.504 0-.063.047-.145.114-.18.129-.082.504-.586 1.008-1.352 1.16-1.773 1.515-2.523.898-1.906zm0 0" fill="#77b0b6"/><path d="M56.887 41.424c-.047 0-.18.063-.308.145-.13.098-.293.195-.375.21-.098.036-.13.099-.114.15.032.046-.03.081-.164.081-.113 0-.242.063-.277.114a.468.468 0 01-.211.195c-.242.145-1.172 1.027-1.187 1.156-.016.067-.165.211-.31.324-.179.118-.276.247-.245.329.031.062.015.097-.016.062-.148-.078-1.402 1.55-1.418 1.809 0 .066-.015.117-.05.117-.079 0-.34.488-.293.535.019.031.019.05-.016.016-.063-.032-.781 1.304-.828 1.515 0 .067-.098.227-.215.39-.113.15-.18.31-.145.36.032.047.016.164-.035.262-.078.129-.062.16 0 .16.067 0 .051.05-.031.117-.082.047-.164.211-.195.356-.145.719-.196 1.11-.145 1.176.031.046.016.062-.035.03-.242-.148-.242 1.774 0 2.462.18.504.863 1.367 1.305 1.66.847.555 1.906.21 3.402-1.11.766-.648 1.762-1.71 1.71-1.789-.03-.05 0-.082.067-.082.145 0 1.32-1.433 1.27-1.566 0-.031.016-.047.066-.016.032.016.262-.21.489-.535.226-.312.52-.703.652-.863.129-.164.277-.344.324-.41.164-.195.277-.535.211-.602-.031-.031-.078-.015-.098.032a6.72 6.72 0 01-.375.472c-.195.215-.34.41-.34.442 0 .03-.05.066-.113.066-.066 0-.18.062-.246.145-.097.113-.097.132.016.066.066-.031.05.016-.063.113-.097.098-.195.211-.195.262 0 .062-.035.082-.082.047-.05-.031-.082-.016-.082.035 0 .047-.113.195-.262.34-.144.133-.261.293-.261.344 0 .062-.047.113-.13.144-.066.035-.097.082-.066.133.02.031 0 .082-.047.082-.113 0-.343.195-.343.293 0 .031-.211.242-.454.488-.246.242-.394.406-.328.375.082-.066.098-.05.067.016-.032.047-.133.097-.211.097-.067 0-.117.016-.082.047.047.051-.39.555-.489.555-.066 0-.375.324-.343.36.015.015-.13.144-.34.277-.215.129-.395.277-.395.308 0 .032-.113.098-.242.145-.148.05-.262.148-.262.23 0 .082-.046.098-.128.082-.067-.035-.149 0-.18.063-.016.066-.082.133-.149.133-.078 0-.57.18-.91.36-.066.03-.293.062-.488.077-.39.02-.602-.144-.848-.633-.36-.652-.21-2.28.375-4.105.13-.406.164-.457.438-.504.816-.148 1.972-.668 3.047-1.387 3.21-2.168 4.886-5.832 3.062-6.71a1.62 1.62 0 00-1.238-.048c-.016.016-.063.016-.098 0zm1.305.7l.293.015-.016.555c-.015.422-.097.7-.328 1.172-.16.344-.293.668-.293.719 0 .046-.047.078-.097.078-.047 0-.063.035-.032.082.016.035-.015.097-.082.113-.082.035-.129.098-.129.148 0 .047-.066.145-.132.227-.063.066-.098.164-.063.215.016.047.016.062-.035.047-.113-.082-.324.164-.242.277.03.047 0 .082-.082.082-.067 0-.13.047-.13.098 0 .047-.034.062-.081.031-.082-.047-.133.082-.098.262.016.047 0 .047-.05.015-.032-.03-.145.032-.243.149-.117.129-.23.21-.262.21-.03 0-.129.098-.21.196-.098.098-.165.145-.165.129 0-.063-.375.23-.75.602-.113.101-.242.164-.277.148-.047-.031-.082 0-.082.05 0 .063-.031.079-.062.048-.036-.032-.149.015-.278.097-.113.098-.277.18-.344.211a3.344 3.344 0 00-.39.23c-.145.079-.324.16-.406.16-.082.02-.149.052-.149.099 0 .05-.031.082-.078.05-.035-.03-.215.016-.375.082-.39.16-.39.114 0-.718.55-1.106 1.742-2.899 2.426-3.598.066-.082.293-.313.488-.54.473-.503 1.664-1.433 2.117-1.628a1.55 1.55 0 01.637-.113zm0 0" fill="#77b0b6"/><path d="M59.819 52.842c.097.032.21.047.277.063.129 0 1.156-.324 1.203-.406.035-.032.18-.145.344-.262.18-.113.36-.258.441-.324.864-.75 1.317-1.188 1.285-1.254 0-.031.016-.05.051-.016.113.063 1.496-1.351 1.414-1.449-.031-.035-.015-.05.035-.02.047.036.18-.03.278-.16.21-.277.097-.375-.149-.148a6.48 6.48 0 01-.39.308c-.13.082-.211.2-.18.247.031.03-.066.097-.21.128-.15.036-.263.098-.263.18 0 .067-.03.098-.062.067-.05-.016-.297.18-.57.421-.262.262-.473.442-.473.41 0-.035-.05 0-.098.079-.05.082-.133.133-.164.117-.05-.035-.082-.035-.082.016-.015.113-.406.52-.539.554a.7.7 0 00-.21.145.303.303 0 01-.243.133c-.098 0-.148.046-.133.113 0 .062-.015.097-.047.082-.082-.05-.636.226-.586.293.032.031-.097.047-.668.062-.441.035-.605-.047-.718-.355-.243-.668-.047-1.567.554-2.559.016-.031.149-.015.278.067.359.175.765.144 1.27-.098.6-.297.944-.668 1.093-1.207.113-.36.113-.523.031-.75-.129-.406-.7-.797-1.09-.766-.312.051-.898.328-.816.407.05.05-.098.082-.164.05-.016-.015-.211.164-.453.391-.54.52-.961 1.156-.996 1.45-.016.113-.047.195-.082.163-.114-.066-.356.961-.356 1.547 0 .504.047.7.274 1.207.296.633.605 1.008.914 1.074zm.652-4.316c.195-.277.797-.781 1.156-.98.324-.176.52-.13.504.117 0 .113-.066.226-.113.242-.067.035-.082.098-.067.18.051.097.016.113-.082.082-.097-.051-.144-.016-.113.066.016.063 0 .113-.015.113-.032.016-.211.098-.422.211-.215.098-.54.211-.72.227l-.323.035zm0 0" fill="#77b0b6"/><path d="M65.682 52.842c.097.032.21.047.277.063.129 0 1.156-.324 1.203-.406.035-.032.18-.145.344-.262.18-.113.36-.258.441-.324.863-.75 1.317-1.188 1.285-1.254 0-.031.016-.05.051-.016.113.063 1.496-1.351 1.414-1.449-.031-.035-.015-.05.035-.02.047.036.18-.03.278-.16.21-.277.097-.375-.149-.148a6.48 6.48 0 01-.39.308c-.13.082-.211.2-.18.247.031.03-.067.097-.211.128-.148.036-.262.098-.262.18 0 .067-.031.098-.062.067-.051-.016-.297.18-.57.421-.262.262-.473.442-.473.41 0-.035-.051 0-.098.079-.05.082-.133.133-.164.117-.05-.035-.082-.035-.082.016-.016.113-.406.52-.539.554a.7.7 0 00-.211.145.303.303 0 01-.242.133c-.098 0-.149.046-.133.113 0 .062-.016.097-.047.082-.082-.05-.637.226-.586.293.031.031-.097.047-.668.062-.441.035-.605-.047-.719-.355-.242-.668-.046-1.567.555-2.559.016-.031.149-.015.278.067.359.175.765.144 1.27-.098.6-.297.944-.668 1.093-1.207.113-.36.113-.523.031-.75-.129-.406-.7-.797-1.09-.766-.312.051-.898.328-.816.407.05.05-.098.082-.164.05-.016-.015-.211.164-.453.391-.54.52-.961 1.156-.996 1.45-.016.113-.047.195-.083.163-.113-.066-.355.961-.355 1.547 0 .504.047.7.273 1.207.297.633.606 1.008.915 1.074zm.652-4.316c.195-.277.797-.781 1.156-.98.324-.176.52-.13.504.117 0 .113-.066.226-.113.242-.067.035-.082.098-.067.18.051.097.016.113-.082.082-.097-.051-.144-.016-.113.066.016.063 0 .113-.016.113-.03.016-.21.098-.421.211-.215.098-.54.211-.72.227l-.323.035zm0 0" fill="#77b0b6"/><path d="M73.302 48.28c-.113.05-.242.164-.258.246-.05.16-.312.488-.75.945-.132.145-.21.293-.195.325.031.046 0 .066-.066.03-.082-.015-.145.036-.18.18-.031.133-.082.196-.129.18-.05-.031-.098 0-.113.067-.016.046-.067.082-.082.062-.067-.062.39-1.547.652-2.082.113-.277.227-.508.227-.539 0-.016.113-.246.277-.488.18-.278.277-.524.262-.684-.035-.293-.067-.328-.524-.508l-.359-.144-.356.36c-.18.21-.359.472-.39.6-.02.13-.082.227-.133.227-.113 0-.602 1.125-.555 1.305.036.098.036.148 0 .113-.097-.097-.273.684-.273 1.239 0 .539.016.601.355 1.042.442.586.684.715.961.54.23-.149.817-.883 1.274-1.598.16-.262.355-.54.406-.586.066-.066.34-.441.617-.816.278-.375.766-.926 1.078-1.239.91-.91 1.137-.941.766-.113-.098.21-.148.426-.117.473.02.03 0 .082-.047.082-.082 0-.227.324-.195.457.015.031 0 .047-.051.015-.063-.03-.586.993-.926 1.809-.066.18-.23.52-.344.766-.18.39-.195.472-.097.535.097.066.097.082-.016.082-.164 0-.54 1.11-.39 1.11.046 0 .046.03-.036.081-.144.098-.176.227-.21 1.043-.032.438 0 .766.081.942.114.292.54.785.735.863.21.082.242.066.632-.16.215-.114.36-.262.344-.293-.031-.051 0-.082.067-.082.129 0 .91-.899 1.414-1.664a38.617 38.617 0 002.039-3.207c.472-.848.57-1.11.406-1.11-.066 0-.129.082-.129.164 0 .098-.035.18-.082.18-.05 0-.082.031-.082.082 0 .047-.05.144-.082.195-.422.504-.52.668-.473.668.032 0-.047.098-.18.227-.128.133-.292.36-.359.523a1.914 1.914 0 01-.273.438c-.098.097-.164.21-.133.246.016.047-.031.097-.129.129-.098.015-.164.082-.148.113.066.098-.242.621-.356.621-.05 0-.097.063-.097.129s-.036.133-.082.133c-.051 0-.098.097-.133.21-.032.114-.098.196-.145.16-.05-.046-.066-.015-.035.083.035.082.02.133-.047.113-.066 0-.097.051-.097.133.015.082-.016.129-.051.113-.032-.015-.114.051-.176.149a4.067 4.067 0 01-.375.422c-.148.129-.36.324-.473.441-.261.242-.75.422-.816.293-.129-.18.164-1.469.488-2.25.098-.227.215-.504.246-.602.032-.082.164-.39.293-.652.114-.277.211-.52.211-.555 0-.03.246-.55.54-1.171.78-1.579.945-2.118.945-2.801 0-.504-.02-.621-.215-.801a1.398 1.398 0 00-.551-.293c-.277-.062-.36-.047-.606.164-.144.113-.277.277-.277.324 0 .067-.047.102-.113.082-.047 0-.145.098-.211.23-.067.114-.18.227-.242.227-.067 0-.102.032-.082.082.03.047.015.082-.035.082-.13 0-.438.536-.391.668.016.047-.016.082-.082.047-.129-.047-.55.442-.55.621 0 .063-.099.16-.216.227zm5.685-8.602c0-.324.39-.976 1.011-1.66.473-.52.52-.765.243-.976-.227-.196-.586-.133-.715.113a1.67 1.67 0 01-.262.344c-.098.097-.148.21-.113.273.03.05.03.067 0 .035-.082-.066-.344.258-.278.34.032.016 0 .098-.066.164-.242.246-.258 1.254-.031 1.547.144.18.226.113.21-.18zm-1.123 19.11c.242.144.96.066 1.449-.164.437-.211 1.074-.586 1.156-.668.016-.032.18-.145.344-.262.422-.273 1.465-1.383 1.902-2 .848-1.191 1.125-2.04 1.063-3.309l-.036-.847 1.157-.766a34.59 34.59 0 001.273-.848c.047-.046.098-.062.098-.03 0 .03.129-.052.273-.165.164-.113.524-.324.817-.453.293-.133.539-.277.539-.297 0-.113-.375-.16-.442-.062a.11.11 0 01-.148.03.106.106 0 00-.145.032c-.031.05-.082.067-.129.05-.035-.03-.097 0-.117.032-.031.051-.144.098-.258.098-.117 0-.214.035-.23.082-.016.05-.113.098-.211.133a2.823 2.823 0 00-.555.195 4.8 4.8 0 01-.57.227c-.098.03-.195.097-.195.144 0 .05-.032.05-.082.035-.047-.035-.078-.035-.078.016 0 .031-.133.113-.297.18a3.26 3.26 0 00-.7.406l-.375.293-.421-.39c-.211-.212-.442-.391-.489-.391-.05 0-.261-.114-.508-.262a3.686 3.686 0 00-.453-.258c-.035 0-.097-.035-.164-.066-.113-.067-.113-.13.032-.442.328-.73 1.597-2.215 1.875-2.215.082 0 .128-.082.128-.195 0-.277-.52-.602-.863-.52-.129.032-.242.114-.242.18 0 .063-.05.098-.098.063-.133-.082-.523.21-.472.36.03.081.015.097-.036.065-.16-.097-1.039.895-1.12 1.254a.601.601 0 01-.133.227c-.16.18-.13.539.097.996.39.746.735 1.105 1.352 1.414.328.164.62.344.668.39.097.118-.227.489-.356.426-.035-.035-.097 0-.133.083-.015.062-.082.113-.113.082-.047-.02-.113.015-.144.078-.035.066-.18.18-.328.246-.13.082-.34.21-.438.308-.117.098-.23.18-.277.18-.051 0-.098.082-.098.164 0 .098-.035.195-.098.227-.05.05-.066.03-.035-.032.035-.05.035-.097.016-.097-.13 0-1.254 1.074-1.254 1.187 0 .051-.047.098-.113.098-.063 0-.145.066-.18.164-.031.098-.082.164-.098.129-.03-.016-.144.098-.242.277-.113.18-.23.309-.262.309-.046 0-.144.082-.226.195-.117.149-.133.195-.05.215.065 0 .03.031-.067.062-.078.036-.16.098-.16.149 0 .047-.098.195-.231.324-.129.149-.242.328-.242.406 0 .082-.035.149-.082.149-.051 0-.082.097-.082.226 0 .118-.047.196-.098.164-.031-.03-.082.051-.098.165 0 .113-.015.34-.03.503-.016.457.34 1.028.863 1.32zm-.036-1.45c.293-.734 1.059-1.742 2.137-2.804.91-.91 2.117-1.969 2.246-1.969.035 0 .164-.082.278-.195.164-.164.246-.196.292-.114.032.047.032.145-.03.211-.052.047-.067.098-.036.098.035 0 .02.082-.031.18a1.76 1.76 0 00-.13.406c-.034.129-.081.246-.132.277a1.822 1.822 0 00-.21.391c-.083.18-.325.586-.571.914-.227.324-.39.617-.36.664.036.05 0 .067-.062.05-.066 0-.098.032-.098.099.016.05 0 .097-.035.082-.031-.016-.34.261-.7.601-.339.328-.651.621-.698.621-.035 0-.082.016-.082.063 0 .035-.082.113-.196.18-.129.066-.195.148-.164.195.035.05.016.066-.047.035-.05-.035-.164.047-.261.176-.098.117-.211.195-.227.164-.035-.016-.18.015-.328.082a2.03 2.03 0 01-.488.21c-.309.083-.309 0-.067-.616zm-.271 24.878c.512-1.406 1.02-2.765 1.148-3.066.168-.465 1.106-3.531 1.192-4.04.043-.128.168-.554.297-.894.511-1.363 1.363-4.98 1.488-6.468.344-3.957.3-7.192-.082-7.192-.172 0-.598 1.918-.809 3.66-.086.723-.3 1.914-.468 2.68-.172.766-.383 1.531-.426 1.746-.043.211-.086.469-.129.512 0 .082-.043.254-.086.383 0 .125-.168.593-.383 1.062-.21.426-.426 1.063-.465 1.446-.086.382-.214.851-.343.98-.168.254-.723 1.914-.809 2.469 0 .082-.21.594-.422 1.148a13.912 13.912 0 00-.512 1.7c-.086.382-.214.683-.34.683-.128 0-.171.168-.085.383.043.21 0 .426-.086.508-.13.086-.34.511-.551.98-.172.426-.555 1.445-.895 2.211-.296.809-.554 1.574-.554 1.746a.27.27 0 01-.254.254c-.086 0-.215.215-.215.512 0 .254-.082.511-.211.511s-.215.086-.172.168c0 .13-.168.684-.465 1.278-.258.597-.425 1.062-.3 1.062.085 0 .042.086-.086.215-.297.211-1.489 2.852-1.274 2.852.043 0-.172.34-.469.765-.554.723-.68 1.063-.511 1.36 0 .043-.168.34-.426.683-.594.723-1.445 2.383-1.445 2.848 0 .172-.13.426-.34.512-.172.086-.469.511-.684.98-.508 1.274-.976 2.082-.976 1.828 0-.172-.254.297-.555 1.02-.297.683-.594 1.191-.68 1.11-.086-.044-.34.253-.512.722-.21.426-.507.808-.68.808-.167 0-.21.168-.167.383.082.254.039.34-.086.254-.129-.086-.215-.043-.215.129 0 .129-.34.637-.723 1.106-1.062 1.19-2.765 3.32-3.105 3.87-.172.258-.637.723-1.02 1.067-.386.297-.683.68-.597.809.086.125 0 .21-.172.168-.168-.043-.254.086-.211.253 0 .215-.043.258-.172.172-.125-.086-.465.13-.766.47-.296.339-.636.55-.68.468-.085-.043-.128 0-.128.125 0 .258-1.828 1.277-2.594 1.492-.215.04-.598.125-.766.254-1.53.68-1.445-5.957.13-12.89.847-3.833 2.636-9.067 5.445-16.087.894-2.168 1.191-3.316 1.277-4.425.125-1.743.082-1.829-1.152-2.637l-.89-.598-.513.727c-.254.383-.851 1.36-1.32 2.125-.465.765-.934 1.406-1.02 1.449-.085.043-.171.254-.171.465 0 .215-.082.3-.168.258-.13-.086-.297 0-.34.254-.086.257-.043.296.125.214.215-.128.215-.086 0 .168-.168.172-.426.34-.551.34-.172 0-.258.172-.215.34 0 .172-.043.3-.168.3-.086 0-.383.384-.64.81-.254.464-.68 1.148-.977 1.488-1.234 1.617-1.277 1.742-1.023 1.785.171 0 .171.043-.043.129-.34.172-.594.469-1.657 2-.382.512-1.234 1.703-1.875 2.594-.636.894-1.105 1.703-1.02 1.832.044.128 0 .21-.171.168-.168-.04-.254.128-.211.382.043.344-.086.47-.34.383-.258-.039-.512.172-.597.469-.125.258-.551.766-.977 1.105-.383.344-.809.852-.852 1.11-.086.254-.214.383-.254.34-.171-.215-.726.425-.597.636.043.13.043.172-.086.172-.34-.129-1.192.551-1.02.852.086.168.043.21-.086.082-.253-.125-1.574.512-1.87.894-.044.086-.34.172-.641.13-.508-.044-.594-.13-.637-1.407-.172-3.191 1.32-8.977 3.785-14.762 2.172-4.98 4.938-9.531 8.3-13.402 1.532-1.746 1.657-2.684.552-3.45-.809-.55-1.575-.507-2.254.216-.258.296-.555.507-.68.507-.086 0-.3.301-.426.641-.129.34-.343.55-.425.469-.13-.086-.258.043-.34.254-.086.21-.215.34-.344.254-.082-.082-.168.043-.168.257 0 .211-.129.383-.258.383-.125 0-.168.168-.082.297.082.172.082.254-.086.129-.469-.34-3.87 4.508-5.617 8.082-1.402 2.852-1.957 4.129-1.828 4.254.043.086 0 .172-.129.172s-.34.383-.512.808a13.45 13.45 0 01-.55 1.575c-.598 1.703-.81 2.34-.852 2.98 0 .211-.086.383-.172.297-.125-.086-.426 1.36-.809 3.7-.082.343-.125 1.702-.125 3.023 0 2.168.043 2.55.68 3.957 1.445 3.402 3.235 5.234 4.594 4.765.766-.258 2.808-1.488 2.808-1.703 0-.086.172-.172.34-.172.215 0 .344-.082.344-.21 0-.087.805-1.063 1.742-2.212.98-1.109 2.34-2.937 3.063-4.043a48.79 48.79 0 011.66-2.382c.297-.34.297-.34.129.128-.13.254-.426 1.489-.723 2.723-1.617 7.106-1.574 12.336.211 15.656 1.063 2 2.383 3.79 3.149 4.172 1.32.68 3.832 0 4.98-1.32.168-.215.426-.383.508-.383.215 0 3.703-3.871 4.64-5.234.426-.594.934-1.278 1.149-1.531.168-.297.508-.766.723-1.063.722-.937 4.636-7.79 4.636-8.043 0-.129.086-.297.172-.34.211-.129.809-1.234 1.36-2.512.214-.468.468-1.02.597-1.19.254-.298 3.871-8.466 4.852-10.935.297-.765.976-2.554 1.488-3.914zm-1.53 16.208c.113.035.246.055.324.074.148 0 1.347-.379 1.406-.476.035-.036.207-.168.398-.301.208-.133.418-.305.512-.383 1.008-.875 1.54-1.387 1.5-1.46 0-.04.02-.06.059-.02.133.074 1.75-1.579 1.652-1.692-.039-.039-.02-.058.04-.02.058.04.206-.038.323-.19.247-.321.114-.438-.171-.169a9.332 9.332 0 01-.457.36c-.153.093-.247.226-.208.285.036.039-.078.113-.25.152-.167.04-.3.113-.3.207 0 .078-.04.117-.078.078-.059-.02-.344.207-.664.492-.305.305-.551.516-.551.477 0-.039-.059 0-.114.094-.058.097-.152.152-.191.133-.059-.036-.094-.036-.094.02-.02.132-.476.608-.629.648a.745.745 0 00-.246.168.358.358 0 01-.285.152c-.113 0-.172.058-.152.133 0 .078-.02.117-.059.097-.094-.058-.738.266-.683.34.039.04-.114.059-.778.078-.515.035-.703-.058-.836-.418-.285-.78-.058-1.824.645-2.984.02-.04.172-.02.324.074.418.211.89.172 1.48-.113.704-.34 1.102-.777 1.274-1.406.133-.418.133-.61.039-.875-.152-.473-.816-.93-1.273-.891-.364.055-1.047.379-.95.473.055.058-.117.097-.191.058-.02-.02-.246.192-.531.457-.63.606-1.121 1.348-1.16 1.692-.02.133-.059.226-.094.187-.133-.074-.418 1.121-.418 1.805 0 .59.055.82.32 1.406.344.742.703 1.18 1.067 1.258zm.757-5.04c.23-.32.934-.91 1.352-1.14.379-.207.61-.148.59.137 0 .133-.078.266-.133.285-.078.035-.098.113-.078.207.058.113.02.133-.094.094-.113-.055-.172-.02-.133.078.02.074 0 .133-.02.133-.038.02-.245.113-.495.246-.246.113-.625.246-.836.266l-.38.039zm0 0" fill="#77b0b6"/><path d="M84.915 93.1c-.133.058-.285.191-.304.285-.055.191-.36.57-.872 1.105-.152.168-.25.34-.23.38.039.054 0 .073-.074.038-.098-.02-.172.035-.211.207-.035.153-.094.227-.153.211-.054-.039-.113 0-.132.075-.02.058-.075.093-.094.078-.074-.078.457-1.809.762-2.434.132-.324.265-.59.265-.629 0-.02.133-.285.32-.57.212-.32.325-.606.305-.797-.039-.344-.074-.379-.605-.59l-.418-.172-.422.418c-.207.25-.418.555-.453.703-.02.153-.098.27-.153.27-.132 0-.703 1.308-.648 1.52.04.113.04.171 0 .132-.113-.113-.32.797-.32 1.446 0 .625.02.703.418 1.214.511.684.797.836 1.12.625.266-.168.95-1.023 1.481-1.859.192-.305.418-.629.477-.684.074-.078.398-.515.722-.953.32-.437.891-1.082 1.254-1.441 1.063-1.067 1.329-1.106.891-.133-.113.246-.168.492-.133.55.02.036 0 .095-.054.095-.098 0-.266.378-.231.53.02.04 0 .06-.055.02-.078-.039-.683 1.16-1.082 2.11-.078.207-.27.61-.402.894-.207.453-.227.551-.113.625.113.078.113.094-.02.094-.187 0-.625 1.293-.453 1.293.055 0 .055.04-.039.098-.172.113-.211.265-.246 1.214-.04.512 0 .895.094 1.102.132.344.625.914.855 1.008.246.094.285.074.742-.192.246-.132.418-.304.399-.34-.04-.058 0-.097.074-.097.152 0 1.066-1.043 1.652-1.938 1.14-1.652 1.598-2.394 2.375-3.742.555-.988.668-1.293.477-1.293-.074 0-.152.094-.152.192 0 .113-.04.207-.094.207-.059 0-.094.039-.094.097 0 .055-.059.168-.098.227-.492.59-.605.777-.55.777.039 0-.055.117-.207.266a2.12 2.12 0 00-.418.61c-.079.171-.23.417-.325.511-.113.117-.191.25-.152.285.02.059-.039.117-.152.153-.114.02-.192.097-.172.132.078.118-.285.723-.418.723-.055 0-.113.078-.113.152 0 .078-.04.153-.094.153-.059 0-.113.113-.153.246-.039.133-.113.23-.171.191-.059-.058-.075-.02-.04.094.04.098.02.152-.054.133-.078 0-.113.058-.113.152.015.098-.02.152-.059.133-.04-.016-.133.058-.211.172a4.763 4.763 0 01-.434.496c-.171.152-.418.379-.554.512-.301.285-.871.492-.95.343-.152-.21.192-1.71.57-2.625.114-.265.247-.59.286-.703a12.5 12.5 0 01.344-.758c.133-.324.246-.609.246-.648 0-.04.285-.645.625-1.367.914-1.844 1.105-2.469 1.105-3.27 0-.59-.02-.722-.25-.93-.133-.132-.418-.285-.644-.343-.324-.074-.418-.055-.703.191-.172.133-.325.324-.325.38 0 .077-.054.112-.132.097-.055 0-.172.113-.246.265-.075.133-.211.266-.286.266-.074 0-.113.035-.093.094.035.058.02.094-.04.094-.152 0-.511.628-.456.78.019.055-.02.095-.094.055-.153-.054-.649.516-.649.723 0 .078-.113.192-.246.266zm0 0" fill="#77b0b6"/><path d="M90.974 98.08c.457.418.55.457.894.399.512-.055.97-.438 1.88-1.559.437-.512.855-1.023.933-1.102.074-.093.3-.398.512-.683.21-.266.398-.477.418-.457.039.02 0 .398-.075.855-.133.797-.078 3.176.075 3.422.039.055.074.207.093.305.117.758 1.067 1.918 1.957 2.394.551.286.914.266 1.598-.078.457-.226 2.148-1.918 2.148-2.164 0-.039.094-.152.207-.25.098-.094.192-.226.192-.285 0-.055.074-.168.152-.246.38-.379 1.598-2.203 1.48-2.203-.035 0 .02-.078.133-.172.286-.246.836-1.215.782-1.332-.04-.055-.02-.094.039-.094.133 0 .605-.816.605-1.043 0-.152-.054-.136-.265.114-.457.492-.625.738-.59.738.039 0-.055.117-.188.27-.133.148-.23.3-.23.34.02.038-.094.171-.246.284-.172.133-.266.285-.227.364.035.113.02.132-.098.093-.093-.039-.132 0-.093.153.02.152 0 .187-.114.152-.132-.059-.19.035-.152.246 0 .059-.058.074-.133.074-.152 0-.191.118-.172.383.02.055-.074.133-.191.168-.113.04-.187.098-.148.117.015.035-.04.133-.153.246-.097.114-.191.266-.191.34 0 .078-.04.153-.094.153-.059 0-.078.039-.059.097.04.055 0 .094-.093.094-.078 0-.172.078-.211.152-.04.094-.207.305-.399.493-.207.21-.324.402-.285.476.059.059.04.078-.039.04-.055-.04-.133 0-.168.073-.039.098-.097.172-.137.172-.054 0-.3.211-.585.496-.266.266-.57.493-.649.493a.37.37 0 00-.246.132c-.074.078-.324.192-.57.266-.399.113-.477.113-.664-.055-.23-.21-.364-.515-.418-.972-.266-1.805 0-3.703.797-6.157.324-.949.398-1.082.664-1.195.8-.324 2.66-1.75 3.648-2.773.723-.723 1.996-2.453 1.996-2.68a.14.14 0 01.098-.133c.094-.039.57-1.027.969-2.035.226-.57.265-.836.285-1.633 0-.836-.02-1.008-.192-1.199-.55-.61-1.332-.664-2.242-.172-.246.133-.457.305-.457.383a.175.175 0 01-.133.168c-.094.039-.113.02-.054-.074.054-.133.054-.133-.098-.02-.094.078-.133.192-.113.227.039.058.02.078-.02.078-.133-.04-1.027.722-1.027.875 0 .054-.114.207-.246.34-.133.113-.207.265-.188.324.035.058.016.074-.039.039-.113-.078-.629.492-.629.684 0 .074-.055.171-.133.246-.093.058-.132.152-.093.21.02.055-.02.094-.094.094-.078 0-.23.114-.305.246-.152.23-.152.246 0 .246.153 0 .133.04-.058.118-.207.113-1.102 1.46-1.102 1.691 0 .035-.039.074-.074.074-.098.02-.477.895-.457 1.028.02.035 0 .074-.059.074-.094 0-.816 1.539-.836 1.805 0 .097-.039.191-.074.191-.078 0-.398.664-.398.875 0 .133-.04.113-.192-.098-.418-.53-1.883-.851-2.566-.55-.59.25-1.196.687-1.692 1.238-.285.3-.53.586-.53.625 0 .039-.079.172-.192.304-.114.114-.168.266-.153.305.04.055.02.094-.035.094-.078 0-.117.078-.25.496-.015.016-.094.152-.187.3-.192.305-.399 1.067-.344 1.24.039.073.02.167-.02.187-.093.117-.113.894 0 1.218.059.188.325.532.61.797zm8.304-7.676c.227-.535 1.731-3.574 1.938-3.933.113-.192.246-.363.305-.383a.138.138 0 00.093-.133c0-.187 1.657-2.375 2.13-2.812.304-.246.913-.57 1.14-.57.246 0 .266.21.113 1.007a5.91 5.91 0 00-.133.664.439.439 0 01-.093.192.418.418 0 00-.078.246c0 .113-.153.496-.34.875-.38.742-.418.855-.23.742.058-.04.077-.02.038.055-.039.058-.133.078-.187.039-.059-.04-.078.02-.04.172.02.113.02.191 0 .171-.097-.097-.437.34-.398.493.035.058-.039.152-.133.191a.58.58 0 00-.304.266c-.172.379-.363.683-.496.797-.114.097-.114.097 0-.075.078-.113-.075.02-.305.305-.625.703-1.289 1.328-1.406 1.328-.055 0-.074.078-.035.152.035.094 0 .133-.098.094-.074-.035-.152-.015-.152.02 0 .058-.133.152-.286.23-.168.074-.3.188-.3.285 0 .075-.04.114-.098.075-.055-.02-.152.039-.227.152-.078.113-.171.172-.21.133-.036-.04-.075-.02-.075.058 0 .055-.02.094-.074.094-.039-.02-.172.02-.285.094-.27.152-.27.133.226-1.024zm-6.101 3.266c.969-.969 1.14-1.082 1.957-1.387.477-.172.762-.093.953.246.113.25.113.305-.078.59-.113.172-.246.324-.305.324-.035 0-.074.06-.035.133.035.094-.039.172-.191.211-.133.016-.246.094-.246.149 0 .078-.25.363-.551.668-.383.359-.535.59-.496.703.058.113.039.133-.074.035-.114-.094-.172-.094-.23-.016-.036.075-.036.133 0 .168.019.04-.169.266-.438.535-.286.247-.493.551-.493.664 0 .133-.02.153-.093.04-.079-.118-.118-.098-.23.074-.075.113-.173.21-.247.21-.152 0-.36.266-.266.321.055.04.04.04-.039.02-.054-.02-.207.058-.34.171-.285.247-.285.247-.285-.093 0-.973.91-2.965 1.727-3.766zm0 0" fill="#77b0b6"/><path d="M103.376 97.15l.02.91.495.59c.285.305.625.61.758.645.344.098.363.098.703-.055.438-.191 1.77-1.652 1.77-1.922 0-.074.035-.132.093-.132.04 0 .207-.266.36-.586.285-.59.304-.61.668-.61.36 0 1.289-.152 1.574-.265a.727.727 0 01.25-.078c.305-.036.644-.188.644-.266 0-.04.06-.094.133-.094.192 0 1.313-.55 1.825-.914.53-.34.57-.586.113-.512-.188.04-.38.114-.453.172-.059.04-.153.055-.211.02-.059-.04-.114-.02-.114.035 0 .059-.078.117-.171.117-.094 0-.438.133-.778.285-.324.149-.629.266-.668.246-.035-.039-.074 0-.074.055 0 .059-.078.078-.152.04-.075-.04-.153-.02-.153.038 0 .055-.172.133-.359.188-.21.039-.457.097-.535.117-.418.094-.89.133-.89.035 0-.035.054-.285.152-.512.34-.968.418-2.015.207-2.699-.286-.836-.645-1.156-1.559-1.367-.36-.094-.492-.074-.836.094-.227.117-.437.265-.473.324-.058.059-.078.074-.078.039 0-.098-.511.418-.511.512 0 .039-.04.113-.114.191-.152.152-.191.418-.058.418.078 0 .039.055-.059.133-.148.113-.187.226-.133.664.04.496.02.55-.492 1.332-.285.438-.531.871-.531.95a.503.503 0 01-.113.284c-.079.075-.098.114-.059.114.039 0 0 .132-.078.285-.094.172-.133.55-.113 1.18zm2.851-5.226c.438-.457 1.102-.664 1.445-.457.172.094.188.21.188.644-.016.649-.074 1.16-.188 1.446a7.195 7.195 0 01-.21.515c-.075.188-.094.301-.04.282.04-.036.118 0 .153.058.039.078.039.094-.016.059-.117-.078-.363.168-.27.246.02.039-.035.152-.148.266-.172.171-.191.171-.535 0a3.197 3.197 0 01-.57-.418c-.227-.247-.227-.266-.055-.532.227-.382.738-.836.91-.836.098 0 .133-.058.098-.152a.623.623 0 01-.059-.191c0-.094-.61-.34-.855-.34-.34 0-.305-.117.152-.59zm-1.71 4.922a.537.537 0 00.077-.246c.035-.25.836-1.809.91-1.809.059 0 .153.078.23.172a4.2 4.2 0 00.552.438c.34.226.398.324.36.53a.561.561 0 01-.227.364c-.118.055-.172.152-.133.207.035.04 0 .098-.078.098-.094 0-.094.015.02.093.132.075.112.094-.04.094-.094 0-.152.04-.113.098.039.055 0 .113-.059.113-.148 0-.433.399-.398.531.02.059 0 .075-.035.04-.059-.04-.211.035-.344.187-.153.152-.38.344-.492.398-.27.172-.305.153-.325-.035-.02-.363.04-1.18.094-1.273zm0 0" fill="#77b0b6"/><path d="M112.778 94.584c.172-.57.325-1.082.344-1.14.02-.06.192-.512.38-1.008.495-1.235.476-1.48-.095-1.692-.265-.093-.343-.074-.515.114-.34.363-.985 1.824-1.48 3.347-.247.758-.286 2.602-.075 3.211.074.266.188.473.246.473.055 0 .094.058.094.117 0 .168.683.93.894 1.004.59.21 1.082-.207 2.032-1.707a57.55 57.55 0 00.82-1.274c.113-.171.703-1.199 1.289-2.242.59-1.066 1.14-2.074 1.238-2.226.094-.168.492-.91.89-1.672.65-1.274.798-1.672.63-1.672-.113 0-.399.191-.285.21.035 0-.04.075-.172.188-.153.118-.266.286-.266.364 0 .054-.094.187-.21.265-.134.094-.188.207-.134.285.04.075.04.094-.054.04-.098-.06-.114-.04-.078.074.039.113.02.152-.094.093-.133-.035-.152-.02-.094.118.035.093.016.148-.039.113-.059-.04-.094-.02-.094.035 0 .059-.097.211-.21.324-.114.114-.192.266-.153.344.02.055-.02.152-.094.172-.078.035-.152.133-.152.207 0 .094-.04.152-.094.152-.039 0-.058.075-.02.172.036.113.02.153-.077.074-.094-.054-.114-.039-.075.098.035.094.035.148-.02.113-.077-.058-.456.625-.417.778 0 .039-.02.058-.078.039-.055-.02-.094.02-.114.074 0 .059-.074.133-.152.191-.074.04-.133.114-.094.153.02.039-.039.172-.152.285-.113.113-.191.265-.191.324 0 .055-.055.094-.114.094-.054 0-.093.055-.054.133.015.074-.04.191-.133.246a.419.419 0 00-.192.324c0 .133-.058.191-.113.133-.098-.04-.113 0-.078.152.039.113.02.192-.055.192-.058-.02-.117.074-.133.187-.02.133-.078.211-.117.191-.054-.039-.113 0-.148.094-.04.094-.02.133.055.078.078-.039.093-.02.039.055a.286.286 0 01-.211.113.152.152 0 00-.153.153c0 .078-.035.132-.093.132-.06 0-.094.098-.094.211 0 .133-.04.192-.113.153-.06-.059-.098.02-.079.152.04.188 0 .227-.132.207-.094-.02-.172.04-.172.113 0 .078-.153.286-.34.457-.192.192-.344.38-.305.399.02.039-.133.152-.324.265-.473.25-.55.118-.473-.851.094-1.18.114-1.219.453-2.3zm6.555 3.84c.113.035.246.055.324.074.149 0 1.348-.379 1.407-.476.035-.036.207-.168.398-.301.207-.133.418-.305.512-.383 1.008-.875 1.539-1.387 1.5-1.46 0-.04.02-.06.058-.02.133.074 1.75-1.579 1.653-1.692-.04-.039-.02-.058.039-.02.058.04.207-.038.324-.19.246-.321.113-.438-.172-.169a9.332 9.332 0 01-.457.36c-.152.093-.246.226-.207.285.035.039-.078.113-.25.152-.168.04-.3.113-.3.207 0 .078-.04.117-.079.078-.058-.02-.344.207-.664.492-.305.305-.55.516-.55.477 0-.039-.06 0-.114.094-.059.097-.152.152-.191.133-.059-.036-.094-.036-.094.02-.02.132-.477.608-.63.648a.745.745 0 00-.245.168.358.358 0 01-.285.152c-.114 0-.172.058-.153.133 0 .078-.02.117-.058.097-.094-.058-.739.266-.684.34.04.04-.113.059-.777.078-.516.035-.703-.058-.836-.418-.285-.78-.059-1.824.644-2.984.02-.04.172-.02.325.074.418.211.89.172 1.48-.113.703-.34 1.102-.777 1.274-1.406.132-.418.132-.61.039-.875-.153-.473-.817-.93-1.274-.891-.363.055-1.047.379-.95.473.056.058-.116.097-.19.058-.02-.02-.247.192-.532.457-.629.606-1.12 1.348-1.16 1.692-.02.133-.058.226-.094.187-.132-.074-.418 1.121-.418 1.805 0 .59.055.82.32 1.406.344.742.704 1.18 1.067 1.258zm.758-5.04c.23-.32.934-.91 1.352-1.14.378-.207.609-.148.59.137 0 .133-.079.266-.133.285-.079.035-.098.113-.079.207.059.113.02.133-.093.094-.114-.055-.172-.02-.133.078.02.074 0 .133-.02.133-.039.02-.246.113-.496.246-.246.113-.625.246-.836.266l-.379.039zm0 0" fill="#77b0b6"/><path d="M124.765 99.639c-.172.988-.02 1.445.683 2.11.457.437.61.51.93.51.55 0 .953-.304 1.711-1.292.133-.188.285-.379.324-.399.055-.035.438-.644.723-1.12.285-.438 3.496-5.169 3.8-5.547.188-.25.34-.516.34-.57 0-.231-.32-.325-.59-.173-.148.075-.206.133-.148.133.055.02.016.059-.078.113-.094.059-.172.172-.172.247 0 .078-.113.25-.226.363a4.898 4.898 0 00-.477.57 6.268 6.268 0 01-.34.457c-.21.227-1.047 1.348-1.047 1.406 0 .016-.093.133-.187.227-.098.094-.25.305-.363.457a6.294 6.294 0 01-.438.57c-.133.153-.187.32-.152.399.039.074.039.093-.02.054-.094-.093-.738.782-.738.989 0 .078-.078.133-.152.133-.079 0-.153.097-.153.21 0 .094-.058.227-.152.247a.254.254 0 00-.133.21c0 .075-.039.114-.094.094-.078-.058-.418.285-.363.364.04.015-.055.093-.207.167-.133.079-.25.192-.25.25 0 .055-.152.188-.34.286l-.344.168v-.32c0-.192.153-.782.344-1.333.207-.55.418-1.14.473-1.347.058-.192.152-.364.191-.403.04-.015.211-.472.399-.984.53-1.578.398-2.89-.36-3.613l-.285-.246.246-.325c.133-.172.38-.472.551-.703.324-.418 1.027-1.594 1.121-1.879.098-.343.04-1.199-.113-1.406-.133-.21-.762-.496-1.102-.496-.437 0-1.082.496-1.12.855 0 .059-.06.094-.134.094-.191 0-.629.57-.496.668.059.035.02.094-.113.133-.113.035-.191.094-.152.152.039.055 0 .094-.055.094-.059 0-.078.04-.059.094.04.039-.02.113-.093.152-.133.04-.153.078-.04.23.133.133.114.153-.019.094-.133-.058-.191.04-.285.438-.152.605-.094.95.246 1.445.191.266.23.399.152.492-.074.094-.035.211.192.438.265.265.34.305.457.191.36-.285.605.227.398.836-.097.266-.097.399-.02.473.094.097.094.113 0 .058-.058-.039-.152.075-.226.266-.363.93-.648 1.633-.723 1.746-.058.059-.078.152-.039.192.04.039 0 .132-.074.21-.172.208-.457 1.157-.61 2.07zm1.613-7.754c-.168.039-.168.02 0-.34.344-.742.82-1.484 1.121-1.789.324-.285.324-.285.25-.04a1.128 1.128 0 01-.21.403.653.653 0 00-.134.34c0 .098-.039.152-.074.113-.078-.074-.687.82-.742 1.086a.286.286 0 01-.211.227zm-79.266 39.784c.637.37 1.508.62 2.367.62.664-.007 1.36-.175 1.871-.55.48-.344.809-.86.79-1.586-.043-1.5-1.754-2.016-2.954-2.336-.789-.219-1.382-.594-1.34-1.258.028-.347.16-.613.364-.797.32-.293.789-.418 1.27-.41 1.011.02 1.827.817 2.015 1.5h.184l-.258-1.305c-.61-.285-1.145-.417-1.95-.417-.675 0-1.242.167-1.66.453-.504.347-.734.859-.718 1.375.027.71.425 1.101.949 1.367.48.23 1.055.363 1.555.523.914.301 1.71.754 1.675 1.684-.047 1.031-.879 1.527-1.847 1.543-.985.012-1.977-.7-2.262-1.738l-.168.02zm6.066.391v.132h1.739v-.133c-.336-.054-.434-.215-.442-.37-.02-1.954-.02-3.942 0-5.892.008-.144.106-.34.442-.39v-.133a42.978 42.978 0 00-1.739 0v.133c.336.05.399.21.446.39a383.12 383.12 0 010 5.872c-.047.175-.11.336-.446.39zm2.662.132h1.465v-.133c-.41-.008-.64-.238-.63-.64l.079-5.329c.16.622.984 1.852 1.918 2.641 1.418 1.191 2.863 2.664 2.996 3.453h.215l.098-6.14c0-.426.257-.614.62-.637v-.133h-1.437v.133c.406.008.594.238.586.637l-.062 4.718c-.313-.797-1.41-1.691-2.395-2.605-.977-.899-1.793-2.14-1.953-2.883h-1.375v.211c.371.027.566.223.559.629l-.07 5.305c-.009.425-.25.613-.614.64zm7.587-3.391c0 1.04.328 1.954.922 2.575.55.586 1.348.933 2.34.914.851-.008 1.773-.153 2.52-.559l.241-1.297h-.144c-.371 1.004-1.195 1.57-2.277 1.633-.97.047-1.758-.293-2.247-1.16-.363-.649-.503-1.465-.488-2.238.055-1.641.774-3.262 2.637-3.297.308 0 .574.015.887.133.636.238 1.097.742 1.242 1.25h.183l-.21-1.18c-.692-.328-1.313-.434-2.079-.434-.804.016-1.648.211-2.25.707-.851.692-1.277 1.82-1.277 2.953zm6.801-3.379c.453.036.453.18.453.348v5.73c0 .301-.035.497-.453.56v.132h5.218l.239-1.18h-.211c-.293.825-.864.977-2.672.993-.469 0-.809.019-1.277 0-.02-1-.02-2.606-.02-3.61l1.52-.008a.754.754 0 01.718.586h.133l.008-1.41h-.14a.73.73 0 01-.72.637l-1.519.008c0-1.118.02-1.621.02-2.739.445-.02.746-.011 1.214 0 1.614.016 2.325.22 2.54.727l.195-.027-.223-.895h-2.527c-.446 0-.774-.012-1.2-.012l-.93.012h-.366zm12.432 3.282h-3.461v.383h3.46zm3.485-1.586l.78-.676v5.227c-.019.203-.14.336-.48.39v.133c.532.008 1.243.008 1.785 0v-.133c-.34-.054-.453-.215-.46-.37v-6.38l-1.633 1.559zm4.695 2.476c.476.008 1.019-.18 1.335-.543l-.097.313c-.266.867-.707 1.746-1.473 2.297-.398.281-.824.426-1.434.496v.133c.157.007.317 0 .477-.008.95-.063 1.82-.57 2.441-1.277.664-.766 1.063-1.864 1.09-2.903.028-1.25-.441-2.828-2.031-2.812-1.297.007-1.996 1.164-2.024 2.28-.015 1.028.524 2.005 1.715 2.024zm-.81-2.265c0-.754.4-1.782 1.153-1.809.934-.035 1.11 1.305 1.137 2.043.015.414 0 .742-.07 1.133-.313.39-.684.559-1.047.543-.809-.027-1.18-.977-1.172-1.91zm4.418-.875c.328-.403.629-.438.977-.438l2.218-.008c-1.297 1.457-2.761 4.594-3.035 6.192h.867c.278-1.774 1.278-5.063 2.797-6.633v-.152h-3.816l-.196 1.039zm6.265 3.14c.477.008 1.02-.18 1.336-.543l-.098.313c-.265.867-.707 1.746-1.472 2.297-.399.281-.825.426-1.434.496v.133c.156.007.316 0 .477-.008.949-.063 1.82-.57 2.441-1.277.664-.766 1.063-1.864 1.09-2.903.027-1.25-.442-2.828-2.031-2.812-1.297.007-1.996 1.164-2.024 2.28-.015 1.028.524 2.005 1.715 2.024zm-.809-2.265c0-.754.399-1.782 1.153-1.809.933-.035 1.11 1.305 1.137 2.043.015.414 0 .742-.07 1.133-.313.39-.684.559-1.048.543-.808-.027-1.18-.977-1.172-1.91zm0 0" fill="#77b0b6"/></svg>